<?xml version="1.0" encoding="UTF-8"?><svg xmlns="http://www.w3.org/2000/svg" viewBox="0 0 598.01 671.24"><defs><style>.d{fill:#fff;}</style></defs><g id="a"/><g id="b"><g id="c"><g><polygon class="d" points="436.42 0 574.74 138.32 580.24 132.81 447.43 0 436.42 0"/><polygon class="d" points="321.94 0 592.51 270.57 598.01 265.06 332.96 0 321.94 0"/><polygon class="d" points="207.46 0 577.48 370.02 582.99 364.51 218.48 0 207.46 0"/><polygon class="d" points="92.99 0 544.87 451.88 550.37 446.37 104 0 92.99 0"/><polygon class="d" points="379.18 0 589.87 210.69 595.38 205.18 390.19 0 379.18 0"/><polygon class="d" points="264.7 0 587.68 322.98 593.19 317.47 275.72 0 264.7 0"/><polygon class="d" points="150.22 0 563.01 412.78 568.51 407.27 161.24 0 150.22 0"/><polygon class="d" points="35.75 0 523.47 487.72 528.98 482.21 46.76 0 35.75 0"/><polygon class="d" points="0 10.48 0 21.49 499.08 520.57 504.59 515.06 0 10.48"/><polygon class="d" points="0 67.72 0 78.73 471.86 550.59 477.37 545.08 0 67.72"/><polygon class="d" points="0 124.96 0 135.97 441.84 577.81 447.35 572.3 0 124.96"/><polygon class="d" points="0 182.19 0 193.21 408.99 602.2 414.5 596.69 0 182.19"/><polygon class="d" points="0 239.43 0 250.45 373.15 623.6 378.66 618.09 0 239.43"/><polygon class="d" points="0 296.67 0 307.69 334.05 641.74 339.56 636.23 0 296.67"/><polygon class="d" points="0 353.91 0 364.93 291.29 656.22 296.8 650.71 0 353.91"/><polygon class="d" points="0 411.15 0 422.16 244.25 666.41 249.75 660.9 0 411.15"/><polygon class="d" points="0 468.39 0 479.4 191.84 671.24 197.34 665.73 0 468.39"/><polygon class="d" points="0 525.63 0 536.64 131.96 668.6 137.47 663.09 0 525.63"/><polygon class="d" points="0 582.87 0 593.88 59.59 653.47 65.09 647.96 0 582.87"/><polygon class="d" points="493.66 0 522.99 29.33 528.5 23.83 504.67 0 493.66 0"/></g></g></g></svg>