<svg width="95" height="217" viewBox="0 0 95 217" fill="none" xmlns="http://www.w3.org/2000/svg">
<defs>
<clipPath id="clip0_800_767">
<rect width="112.519" height="217" fill="white"/>
</clipPath>
</defs>
<g opacity="0.5" clip-path="url(#clip0_800_767)">
<path d="M101.903 148.293H101.691C101.479 148.293 101.266 148.293 100.842 148.08C99.7804 147.866 99.1435 147.013 99.3558 145.946C99.5681 144.879 100.417 144.239 101.479 144.452C101.691 144.452 101.903 144.452 102.116 144.666C103.177 144.879 103.814 145.733 103.602 146.799C103.389 147.653 102.753 148.293 101.903 148.293ZM93.836 146.159C93.6237 146.159 93.4114 146.159 93.1991 145.946C92.9868 145.946 92.7745 145.733 92.5622 145.733C91.713 145.306 91.0761 144.239 91.5007 143.172C91.9253 142.319 92.9868 141.678 94.0483 142.105C94.2606 142.105 94.4729 142.319 94.6852 142.319C95.5344 142.959 95.959 144.026 95.5344 145.092C95.3221 145.733 94.4729 146.159 93.836 146.159ZM86.4056 142.319C85.981 142.319 85.7687 142.319 85.3441 141.892C85.1318 141.678 84.9195 141.678 84.7072 141.465C83.858 140.825 83.6457 139.758 84.2826 138.905C84.9195 138.051 85.981 137.838 86.8302 138.478C87.0425 138.691 87.2548 138.691 87.4671 138.905C88.3163 139.545 88.5286 140.612 87.8917 141.465C87.6794 142.105 87.0425 142.319 86.4056 142.319ZM80.2489 136.984C79.8243 136.984 79.1874 136.771 78.9751 136.344C78.7628 136.131 78.5505 135.917 78.3382 135.704C77.7013 134.851 77.7013 133.784 78.5505 133.144C79.3997 132.503 80.4612 132.503 81.0981 133.357C81.3104 133.57 81.5227 133.784 81.5227 133.784C82.1596 134.637 82.1596 135.704 81.5227 136.344C81.0981 136.771 80.6735 136.984 80.2489 136.984ZM75.1537 130.37C74.5168 130.37 73.8799 129.943 73.4553 129.516C73.243 129.303 73.243 129.09 73.0307 128.876C72.6061 128.023 72.8184 126.742 73.6676 126.316C74.5168 125.889 75.7906 126.102 76.2152 126.956C76.4275 127.169 76.4275 127.383 76.6398 127.596C77.2767 128.449 76.8521 129.73 76.0029 130.156C75.7906 130.156 75.5783 130.37 75.1537 130.37ZM71.7569 122.688C70.9077 122.688 70.2708 122.262 70.0585 121.408C70.0585 121.195 69.8462 120.981 69.8462 120.555C69.6339 119.488 70.0585 118.421 71.12 118.208C72.1815 117.994 73.243 118.421 73.4553 119.488C73.4553 119.701 73.6676 119.914 73.6676 120.128C74.0922 121.195 73.4553 122.262 72.6061 122.475C72.1815 122.688 71.9692 122.688 71.7569 122.688ZM69.8462 114.58C68.997 114.58 68.1478 113.94 67.9355 112.873C67.9355 112.66 67.9355 112.446 67.9355 112.02C67.9355 110.953 68.5724 110.099 69.6339 109.886C70.6954 109.886 71.5446 110.526 71.7569 111.593C71.7569 111.806 71.7569 112.02 71.7569 112.233C71.7569 113.513 71.12 114.58 69.8462 114.58C70.0585 114.58 70.0585 114.58 69.8462 114.58ZM69.8462 106.259C68.5724 106.045 67.9355 105.192 67.9355 104.125C67.9355 103.912 67.9355 103.698 67.9355 103.271C68.1478 102.205 68.997 101.564 70.0585 101.564C71.12 101.778 71.7569 102.631 71.7569 103.698C71.7569 103.912 71.7569 104.125 71.7569 104.338C71.5446 105.619 70.9077 106.259 69.8462 106.259ZM71.5446 98.1505C71.3323 98.1505 71.12 98.1505 70.9077 98.1505C69.8462 97.7237 69.4216 96.6569 69.6339 95.8034C69.6339 95.59 69.8462 95.3766 69.8462 94.9499C70.2708 93.883 71.3323 93.4563 72.1815 93.883C73.243 94.3098 73.6676 95.3766 73.243 96.2301C73.243 96.4435 73.0307 96.6569 73.0307 96.8702C73.243 97.7237 72.3938 98.1505 71.5446 98.1505ZM75.1537 90.6824C74.7291 90.6824 74.5168 90.6824 74.0922 90.4691C73.243 89.8289 72.8184 88.7621 73.4553 87.9086C73.6676 87.6952 73.6676 87.4818 73.8799 87.2685C74.5168 86.415 75.5783 86.2016 76.4275 86.6283C77.2767 87.2685 77.489 88.3353 77.0644 89.1888C76.8521 89.4022 76.8521 89.6156 76.6398 89.8289C76.4275 90.2557 75.7906 90.6824 75.1537 90.6824ZM80.0366 84.0679C79.612 84.0679 79.1874 83.8545 78.7628 83.6411C77.9136 83.001 77.9136 81.7208 78.7628 81.0807C78.9751 80.8673 79.1874 80.6539 79.3997 80.4405C80.0366 79.8004 81.3104 79.587 81.9473 80.4405C82.5842 81.0807 82.7965 82.3609 81.9473 83.001C81.735 83.2144 81.5227 83.4277 81.5227 83.4277C81.0981 83.8545 80.6735 84.0679 80.0366 84.0679ZM86.4056 78.5202C85.7687 78.5202 85.1318 78.3068 84.9195 77.6667C84.2826 76.8132 84.4949 75.7463 85.3441 75.1062C85.5564 74.8928 85.7687 74.8928 85.981 74.6795C86.8302 74.0394 88.104 74.2527 88.5286 75.3196C89.1655 76.1731 88.9532 77.4533 87.8917 77.8801C87.6794 78.0934 87.4671 78.0934 87.2548 78.3068C87.0425 78.5202 86.8302 78.5202 86.4056 78.5202ZM93.6237 74.6795C92.9868 74.6795 92.1376 74.2527 91.9253 73.3992C91.5007 72.3324 91.9253 71.2655 92.9868 71.0521C93.1991 71.0521 93.4114 70.8388 93.6237 70.8388C94.6852 70.412 95.7467 71.0521 95.959 71.9056C96.3836 72.9725 95.7467 74.0394 94.8975 74.2527C94.6852 74.2527 94.4729 74.4661 94.2606 74.4661C94.0483 74.6795 93.836 74.6795 93.6237 74.6795ZM101.691 72.5457C100.842 72.5457 99.9927 71.9056 99.7804 71.0521C99.5681 69.9853 100.205 69.1318 101.267 68.9184C101.479 68.9184 101.691 68.9184 102.116 68.705C103.177 68.4917 104.026 69.3452 104.239 70.1986C104.451 71.2655 103.602 72.119 102.753 72.3324C102.54 72.3324 102.328 72.3324 102.116 72.5457C101.903 72.5457 101.691 72.5457 101.691 72.5457Z" fill="white"/>
<path d="M105.937 125.036H105.725C105.513 125.036 105.088 125.036 104.876 124.823C103.814 124.609 103.177 123.543 103.39 122.689C103.602 121.622 104.663 120.982 105.513 121.195C105.725 121.195 105.937 121.195 106.149 121.409C107.211 121.622 107.848 122.476 107.636 123.543C107.636 124.396 106.786 125.036 105.937 125.036ZM98.2944 121.622C97.8698 121.622 97.4452 121.409 97.0206 121.195C96.8083 120.982 96.596 120.769 96.3837 120.555C95.5345 119.915 95.5345 118.635 96.3837 117.995C97.0206 117.141 98.2944 117.141 98.9313 117.995C99.1436 118.208 99.3559 118.208 99.3559 118.422C100.205 119.062 100.205 120.342 99.5682 120.982C99.3559 121.409 98.719 121.622 98.2944 121.622ZM93.8361 114.581C92.9869 114.581 92.35 114.154 92.1377 113.301C92.1377 113.087 91.9254 112.661 91.9254 112.447C91.7131 111.38 92.35 110.527 93.4115 110.1C94.473 109.887 95.3222 110.527 95.7468 111.594C95.7468 111.807 95.9591 112.02 95.9591 112.234C96.1714 113.301 95.7468 114.368 94.6853 114.581C94.0484 114.581 93.8361 114.581 93.8361 114.581ZM93.8361 106.259C93.6238 106.259 93.4115 106.259 93.4115 106.259C92.35 106.046 91.9254 104.979 92.1377 103.912C92.1377 103.699 92.35 103.272 92.35 103.059C92.7746 101.992 93.8361 101.565 94.6853 101.992C95.7468 102.419 96.1714 103.486 95.7468 104.339C95.7468 104.552 95.5345 104.766 95.5345 104.979C95.3222 105.619 94.473 106.259 93.8361 106.259ZM98.2944 99.218C97.8698 99.218 97.2329 99.0047 96.8083 98.5779C96.1714 97.7244 96.1714 96.6576 97.0206 96.0175C97.2329 95.8041 97.4452 95.5907 97.6575 95.3773C98.5067 94.7372 99.5682 94.9506 100.205 95.5907C100.842 96.4442 100.63 97.5111 99.9928 98.1512C99.7805 98.3646 99.5682 98.3646 99.5682 98.5779C99.1436 99.0047 98.719 99.218 98.2944 99.218ZM105.725 95.5907C104.876 95.5907 104.026 94.9506 103.814 93.8837C103.602 92.8169 104.451 91.9634 105.3 91.75C105.513 91.75 105.937 91.75 106.149 91.75C107.211 91.75 108.06 92.3901 108.272 93.457C108.272 94.5238 107.636 95.3773 106.574 95.5907C106.362 95.5907 106.149 95.5907 105.937 95.5907C105.937 95.5907 105.937 95.5907 105.725 95.5907Z" fill="white"/>
<path d="M105.937 171.552C105.725 171.552 105.3 171.552 105.088 171.552C104.026 171.552 103.177 170.698 103.389 169.632C103.389 168.565 104.238 167.711 105.3 167.925C105.512 167.925 105.725 167.925 105.937 167.925C106.998 167.925 107.848 168.778 107.848 169.845C107.848 170.698 106.998 171.552 105.937 171.552ZM97.8695 170.698H97.6572C97.4449 170.698 97.2326 170.698 96.808 170.485C95.7465 170.272 95.1096 169.418 95.3219 168.351C95.5342 167.285 96.3834 166.644 97.4449 166.858C97.6572 166.858 97.8695 166.858 98.0818 167.071C99.1433 167.285 99.7802 168.138 99.5679 169.205C99.5679 170.058 98.7187 170.698 97.8695 170.698ZM90.0145 168.778C89.8022 168.778 89.5899 168.778 89.3776 168.778C89.1653 168.565 88.953 168.565 88.7407 168.565C87.6792 168.351 87.2546 167.285 87.4669 166.218C87.6792 165.151 88.7407 164.724 89.8022 164.937C90.0145 164.937 90.2267 165.151 90.439 165.151C91.5005 165.364 91.9251 166.431 91.7128 167.498C91.5005 168.351 90.6514 168.778 90.0145 168.778ZM82.3717 165.791C82.1594 165.791 81.9471 165.791 81.5225 165.578C81.3102 165.364 81.0979 165.364 80.8856 165.151C80.0364 164.724 79.6118 163.657 80.0364 162.59C80.461 161.737 81.5225 161.31 82.584 161.737C82.7963 161.737 83.0086 161.95 83.2209 161.95C84.0701 162.377 84.4947 163.444 84.0701 164.511C83.6455 165.578 83.0086 165.791 82.3717 165.791ZM75.1535 161.95C74.7289 161.95 74.5166 161.95 74.092 161.737C73.8797 161.523 73.6674 161.523 73.4551 161.31C72.6059 160.67 72.3936 159.603 72.8182 158.75C73.4551 157.896 74.5166 157.683 75.3658 158.109C75.5781 158.323 75.7904 158.323 76.0027 158.536C76.8519 159.176 77.0642 160.243 76.6396 161.097C76.4273 161.737 75.7904 161.95 75.1535 161.95ZM68.7845 157.043C68.3599 157.043 67.9353 156.829 67.5107 156.616L66.8739 156.189C66.0247 155.549 66.0247 154.269 66.6616 153.629C67.2984 152.775 68.5722 152.775 69.2091 153.415L69.846 153.842C70.6952 154.482 70.6952 155.762 70.0583 156.403C69.846 156.829 69.2091 157.043 68.7845 157.043ZM62.8402 151.495C62.4156 151.495 61.7787 151.282 61.3541 150.855C61.1418 150.641 60.9295 150.428 60.9295 150.215C60.2926 149.361 60.2926 148.294 61.1418 147.654C61.991 147.014 63.0525 147.014 63.6894 147.868C63.9017 148.081 63.9017 148.294 64.114 148.508C64.7509 149.361 64.7509 150.428 63.9017 151.068C63.6894 151.282 63.2648 151.495 62.8402 151.495ZM57.745 145.094C57.1081 145.094 56.4712 144.88 56.2589 144.24C56.0466 144.027 56.0466 143.814 55.8343 143.6C55.1974 142.747 55.4097 141.68 56.2589 141.04C57.1081 140.4 58.1696 140.613 58.8065 141.466C59.0188 141.68 59.0188 141.893 59.2311 142.107C59.868 142.96 59.6557 144.027 58.8065 144.667C58.5942 144.88 58.1696 145.094 57.745 145.094ZM53.7113 138.052C53.0744 138.052 52.4375 137.626 52.0129 136.986C51.8006 136.772 51.8006 136.559 51.5883 136.345C51.1637 135.492 51.5883 134.212 52.4375 133.785C53.2867 133.358 54.5605 133.785 54.9851 134.638L55.4097 135.279C55.8343 136.132 55.4097 137.412 54.5605 137.839C54.1359 138.052 53.9236 138.052 53.7113 138.052ZM50.5268 130.584C49.6776 130.584 49.0407 130.158 48.8284 129.304C48.8284 129.091 48.6161 128.877 48.6161 128.664C48.1915 127.597 48.8284 126.53 49.8899 126.317C50.9514 125.89 52.0129 126.53 52.2252 127.597C52.2252 127.811 52.4375 128.024 52.4375 128.237C52.8621 129.304 52.2252 130.371 51.376 130.584C50.9514 130.584 50.7391 130.584 50.5268 130.584ZM48.4038 122.69C47.5546 122.69 46.7054 122.05 46.4931 121.196L46.2808 120.556C46.0685 119.489 46.7054 118.636 47.7669 118.422C48.8284 118.209 49.6776 118.849 49.8899 119.916L50.1022 120.556C50.3145 121.623 49.6776 122.476 48.6161 122.69H48.4038ZM47.3423 114.581C46.2808 114.581 45.6439 113.728 45.4316 112.874C45.4316 112.661 45.4316 112.448 45.4316 112.021C45.4316 110.954 46.0685 110.101 47.13 110.101C48.1915 110.101 49.0407 110.741 49.0407 111.808C49.0407 112.021 49.0407 112.234 49.0407 112.448C49.253 113.515 48.4038 114.581 47.3423 114.581ZM47.3423 106.473C47.13 106.473 47.13 106.473 47.3423 106.473C46.2808 106.473 45.4316 105.406 45.4316 104.553C45.4316 104.34 45.4316 104.126 45.4316 103.699C45.4316 102.633 46.4931 101.992 47.3423 101.992C48.4038 101.992 49.0407 103.059 49.0407 103.913C49.0407 104.126 49.0407 104.34 49.0407 104.553C49.0407 105.62 48.1915 106.473 47.3423 106.473ZM48.4038 98.3651C48.1915 98.3651 48.1915 98.3651 47.9792 98.3651C46.9177 98.1518 46.2808 97.0849 46.4931 96.2314L46.7054 95.5913C46.9177 94.5244 47.9792 93.8843 48.8284 94.0977C49.8899 94.3111 50.5268 95.3779 50.3145 96.2314L50.1022 96.8715C49.8899 97.725 49.253 98.3651 48.4038 98.3651ZM50.5268 90.4704C50.3145 90.4704 50.1022 90.4704 49.8899 90.4704C48.8284 90.0436 48.4038 88.9768 48.8284 88.1233C48.8284 87.9099 49.0407 87.6965 49.0407 87.4831C49.4653 86.4163 50.5268 85.9895 51.376 86.4163C52.4375 86.843 52.8621 87.9099 52.4375 88.7634C52.4375 88.9768 52.2252 89.1901 52.2252 89.4035C52.0129 89.8302 51.1637 90.4704 50.5268 90.4704ZM53.7113 82.7889C53.499 82.7889 53.0744 82.789 52.8621 82.5756C52.0129 82.1488 51.5883 81.082 52.0129 80.0151L52.4375 79.375C52.8621 78.5215 54.1359 78.0947 54.9851 78.5215C55.8343 78.9482 56.2589 80.2285 55.8343 81.082L55.1974 81.9355C54.9851 82.5756 54.3482 82.7889 53.7113 82.7889ZM57.745 75.961C57.3204 75.961 57.1081 75.7477 56.6835 75.5343C55.8343 74.8942 55.622 73.8273 56.2589 72.9738C56.4712 72.7604 56.4712 72.5471 56.6835 72.3337C57.3204 71.4802 58.3819 71.2668 59.2311 71.9069C60.0803 72.5471 60.2926 73.6139 59.6557 74.4674C59.4434 74.6808 59.4434 74.8942 59.2311 75.1075C59.0188 75.5343 58.3819 75.961 57.745 75.961ZM62.8402 69.3465C62.4156 69.3465 61.991 69.1331 61.5664 68.9197C60.7172 68.2796 60.7172 66.9994 61.3541 66.3593C61.5664 66.1459 61.7787 65.9325 61.7787 65.7191C62.4156 64.8656 63.6894 64.8656 64.3263 65.7191C65.1755 66.3593 65.1755 67.6395 64.3263 68.2796C64.114 68.493 63.9017 68.7064 63.9017 68.7064C63.9017 69.1331 63.2648 69.3465 62.8402 69.3465ZM68.5722 63.7988C68.1476 63.7988 67.5107 63.5854 67.0862 63.1587C66.4493 62.3052 66.4493 61.2383 67.2985 60.5982C67.5107 60.3848 67.723 60.1715 67.9353 60.1715C68.7845 59.5313 69.846 59.5313 70.4829 60.3848C71.1198 61.2383 71.1198 62.3052 70.2706 62.9453C70.0583 63.1587 69.846 63.1587 69.6337 63.372C69.4214 63.5854 68.9968 63.7988 68.5722 63.7988ZM75.1535 58.8912C74.5166 58.8912 73.8797 58.6778 73.6674 58.0377C73.0305 57.1842 73.4551 55.904 74.3043 55.4773C74.5166 55.2639 74.7289 55.2639 74.9412 55.0505C75.7904 54.4104 77.0642 54.8371 77.4888 55.6906C78.1257 56.5441 77.7011 57.8243 76.8519 58.2511C76.6396 58.4645 76.4273 58.4645 76.215 58.6778C75.7904 58.8912 75.5781 58.8912 75.1535 58.8912ZM82.3717 55.0505C81.7348 55.0505 81.0979 54.6238 80.6733 53.9836C80.2487 53.1302 80.6733 51.8499 81.5225 51.4232C81.7348 51.2098 81.9471 51.2098 82.1594 51.2098C83.0086 50.7831 84.2824 51.2098 84.707 52.0633C85.1316 52.9168 84.707 54.197 83.8578 54.6238C83.6455 54.6238 83.4332 54.8371 83.2209 54.8371C82.7963 54.8371 82.584 55.0505 82.3717 55.0505ZM89.8022 52.0633C88.953 52.0633 88.3161 51.6365 88.1038 50.7831C87.8915 49.7162 88.3161 48.6493 89.3776 48.436C89.5899 48.436 89.8022 48.2226 90.0145 48.2226C91.076 48.0092 92.1374 48.436 92.3497 49.5028C92.562 50.5697 92.1374 51.6365 91.076 51.8499C90.8637 51.8499 90.6513 52.0633 90.439 52.0633C90.2267 52.0633 90.0145 52.0633 89.8022 52.0633ZM97.6572 50.1429C96.808 50.1429 95.9588 49.5028 95.7465 48.6493C95.5342 47.5825 96.1711 46.729 97.2326 46.5156C97.4449 46.5156 97.6572 46.5156 98.0818 46.3022C99.1433 46.0889 99.9925 46.9423 100.205 47.7958C100.417 48.8627 99.5679 49.7162 98.7187 49.9296C98.5064 49.9296 98.2941 49.9296 98.0818 50.1429C97.8695 50.1429 97.8695 50.1429 97.6572 50.1429ZM105.725 49.2894C104.663 49.2894 103.814 48.436 103.814 47.5825C103.814 46.5156 104.663 45.6621 105.512 45.6621C105.725 45.6621 105.937 45.6621 106.361 45.6621C107.423 45.6621 108.272 46.5156 108.272 47.5825C108.272 48.6493 107.423 49.5028 106.361 49.5028C106.361 49.2894 106.149 49.2894 105.725 49.2894C105.937 49.2894 105.937 49.2894 105.725 49.2894Z" fill="white"/>
<path d="M103.815 160.243C103.39 160.243 103.178 160.243 102.966 160.243C101.904 160.243 101.267 159.176 101.267 158.109C101.267 157.042 102.329 156.402 103.39 156.402C103.602 156.402 103.815 156.402 104.027 156.402C105.089 156.402 105.725 157.469 105.725 158.323C105.725 159.39 104.876 160.243 103.815 160.243ZM95.7474 158.749C95.5351 158.749 95.5351 158.749 95.3228 158.749C95.1105 158.749 94.8982 158.536 94.4736 158.536C93.4121 158.323 92.9875 157.256 93.1998 156.189C93.4121 155.122 94.4736 154.695 95.5351 154.909C95.7474 154.909 95.9597 155.122 96.172 155.122C97.2335 155.336 97.8704 156.402 97.4458 157.469C97.4458 158.323 96.5966 158.749 95.7474 158.749ZM88.1046 156.189C87.8923 156.189 87.68 156.189 87.2554 155.976C87.0431 155.976 86.8308 155.762 86.6185 155.762C85.7693 155.336 85.3447 154.269 85.7693 153.202C86.1939 152.348 87.2554 151.922 88.3169 152.348C88.5292 152.348 88.7415 152.562 88.9538 152.562C89.803 152.988 90.2276 154.055 90.0153 155.122C89.3784 155.762 88.7415 156.189 88.1046 156.189ZM80.8865 152.348C80.4619 152.348 80.2496 152.348 79.825 152.135C79.6127 151.922 79.4004 151.922 79.1881 151.708C78.3389 151.068 78.1266 150.001 78.7635 149.148C79.4004 148.294 80.4619 148.081 81.3111 148.721C81.5234 148.934 81.7357 148.934 81.948 149.148C82.7971 149.788 83.0095 150.855 82.5849 151.708C81.948 151.922 81.3111 152.348 80.8865 152.348ZM74.3052 147.227C73.8806 147.227 73.456 147.014 73.0314 146.801C72.8191 146.587 72.6068 146.374 72.3945 146.374C71.5453 145.734 71.5453 144.454 72.3945 143.813C73.0314 142.96 74.3052 142.96 74.9421 143.813C75.1544 144.027 75.3667 144.24 75.3667 144.24C76.2159 144.88 76.2159 146.16 75.579 146.801C75.3667 147.014 74.7298 147.227 74.3052 147.227ZM68.7854 141.04C68.1485 141.04 67.7239 140.826 67.2993 140.399C67.087 140.186 67.087 139.973 66.8747 139.759C66.2378 138.906 66.4501 137.839 67.2993 137.199C68.1485 136.559 69.21 136.772 69.8469 137.626C70.0592 137.839 70.0592 138.052 70.2715 138.266C70.9084 139.119 70.6961 140.186 69.8469 140.826C69.6346 141.04 69.21 141.04 68.7854 141.04ZM64.3271 134.212C63.6902 134.212 63.0533 133.785 62.6287 133.145C62.4164 132.931 62.4164 132.718 62.2041 132.505C61.7795 131.651 61.9918 130.371 63.0533 129.944C63.9025 129.517 65.1763 129.731 65.6009 130.798C65.8132 131.011 65.8132 131.224 66.0255 131.438C66.4501 132.291 66.2378 133.571 65.1763 133.998C64.964 134.212 64.5394 134.212 64.3271 134.212ZM60.9303 126.744C60.0812 126.744 59.4443 126.317 59.232 125.463C59.232 125.25 59.0197 125.037 59.0197 124.823C58.5951 123.756 59.232 122.689 60.2934 122.476C61.3549 122.049 62.4164 122.689 62.6287 123.756C62.6287 123.97 62.841 124.183 62.841 124.396C63.2656 125.463 62.6287 126.53 61.7795 126.744C61.3549 126.744 61.1426 126.744 60.9303 126.744ZM59.0197 118.635C58.1705 118.635 57.3213 117.995 57.109 117.142C57.109 116.928 57.109 116.715 56.8967 116.288C56.6844 115.221 57.5336 114.368 58.3828 114.155C59.4443 113.941 60.2934 114.795 60.5057 115.648C60.5057 115.862 60.5057 116.075 60.718 116.288C60.9303 117.355 60.2934 118.209 59.232 118.422C59.232 118.635 59.0197 118.635 59.0197 118.635ZM58.1705 110.527C57.109 110.527 56.2598 109.674 56.2598 108.607C56.2598 108.394 56.2598 108.18 56.2598 107.967C56.2598 106.9 57.109 106.046 58.1705 106.046C59.232 106.046 60.0811 106.9 60.0811 107.967C60.0811 108.18 60.0811 108.394 60.0811 108.607C60.0811 109.674 59.232 110.527 58.1705 110.527ZM58.8074 102.206H58.5951C57.5336 101.992 56.8967 101.139 57.109 100.072C57.109 99.8586 57.109 99.6452 57.3213 99.2185C57.5336 98.1516 58.3828 97.5115 59.4443 97.7249C60.5057 97.9383 61.1426 98.7917 60.9303 99.8586C60.9303 100.072 60.9303 100.285 60.718 100.499C60.5057 101.566 59.8689 102.206 58.8074 102.206ZM60.9303 94.3109C60.718 94.3109 60.5057 94.3109 60.2934 94.3109C59.232 93.8842 58.8074 92.8173 59.232 91.9638C59.232 91.7504 59.4443 91.5371 59.4443 91.3237C59.8688 90.2568 60.9303 89.8301 61.7795 90.2568C62.841 90.6836 63.2656 91.7505 62.841 92.6039C62.841 92.8173 62.6287 93.0307 62.6287 93.2441C62.4164 93.6708 61.7795 94.3109 60.9303 94.3109ZM64.1148 86.6295C63.9025 86.6295 63.4779 86.6295 63.2656 86.4161C62.4164 85.9894 61.9918 84.7091 62.4164 83.8557C62.6287 83.6423 62.6287 83.4289 62.841 83.2155C63.2656 82.3621 64.5394 81.9353 65.3886 82.5754C66.2378 83.0022 66.6624 84.2824 66.0255 85.1359C65.8132 85.3493 65.8132 85.5626 65.6009 85.776C65.6009 86.4161 64.7517 86.6295 64.1148 86.6295ZM68.5731 79.8016C68.1485 79.8016 67.7239 79.5882 67.5116 79.3748C66.6624 78.7347 66.4501 77.4545 67.087 76.8144C67.2993 76.601 67.2993 76.3876 67.5116 76.1742C68.1485 75.3208 69.4223 75.3207 70.0592 75.9609C70.9084 76.601 70.9084 77.8812 70.2715 78.5213C70.0592 78.7347 70.0592 78.9481 69.8469 79.1615C69.8469 79.5882 69.21 79.8016 68.5731 79.8016ZM74.3052 73.6138C73.8806 73.6138 73.2437 73.4004 73.0314 72.9737C72.1822 72.3335 72.1822 71.2667 73.0314 70.4132C73.2437 70.1998 73.456 69.9864 73.6683 69.9864C74.5175 69.3463 75.579 69.3463 76.2159 70.1998C76.8528 71.0533 76.8528 72.1202 76.0036 72.7603C75.7913 72.9736 75.579 73.187 75.3667 73.187C75.1544 73.6138 74.7298 73.6138 74.3052 73.6138ZM80.6742 68.7062C80.0373 68.7062 79.4004 68.4928 79.1881 67.8527C78.5512 66.9992 78.7635 65.719 79.825 65.2922C80.0373 65.0789 80.2496 65.0789 80.4619 64.8655C81.3111 64.2254 82.5848 64.6521 83.0094 65.5056C83.6463 66.3591 83.2217 67.6393 82.3726 68.0661C82.1603 68.2795 81.948 68.2795 81.7357 68.4928C81.3111 68.4928 81.0988 68.7062 80.6742 68.7062ZM87.8923 64.6521C87.2554 64.6521 86.4062 64.2254 86.1939 63.5853C85.7693 62.7318 86.1939 61.4515 87.0431 61.0248C87.2554 61.0248 87.4677 60.8114 87.68 60.8114C88.5292 60.3847 89.803 60.8114 90.2276 61.8783C90.6522 62.7318 90.2276 64.012 89.1661 64.4387C88.9538 64.4387 88.7415 64.6521 88.5292 64.6521C88.3169 64.6521 88.1046 64.6521 87.8923 64.6521ZM95.7474 62.0916C94.8982 62.0916 94.049 61.4515 93.8367 60.598C93.6244 59.5312 94.2613 58.6777 95.1105 58.2509C95.3228 58.2509 95.5351 58.0376 95.9597 58.0376C97.0212 57.8242 97.8704 58.4643 98.295 59.5312C98.5073 60.598 97.8704 61.4515 96.8089 61.8783C96.5966 61.8783 96.3843 62.0916 96.172 62.0916C95.9597 61.8783 95.7474 62.0916 95.7474 62.0916ZM103.815 60.598C102.753 60.598 102.116 59.9579 101.904 58.8911C101.904 57.8242 102.541 56.9707 103.602 56.9707C103.815 56.9707 104.027 56.9707 104.452 56.9707C105.513 56.9707 106.362 57.6108 106.362 58.6777C106.362 59.7445 105.725 60.598 104.664 60.598C104.452 60.598 104.027 60.598 103.815 60.598Z" fill="white"/>
<path d="M108.06 137.412C107.848 137.412 107.423 137.412 107.211 137.412C106.149 137.412 105.3 136.558 105.3 135.492C105.3 134.425 106.149 133.571 107.211 133.571C107.423 133.571 107.636 133.571 107.848 133.571C108.909 133.571 109.759 134.425 109.759 135.492C109.759 136.558 108.909 137.412 108.06 137.412ZM99.7805 136.132C99.5682 136.132 99.3559 136.132 99.1436 136.132C98.9313 136.132 98.719 135.918 98.2944 135.918C97.2329 135.492 96.8083 134.425 97.2329 133.571C97.6575 132.504 98.719 132.078 99.5682 132.504C99.7805 132.504 99.9928 132.718 100.205 132.718C101.267 132.931 101.691 133.998 101.479 135.065C101.267 135.492 100.417 136.132 99.7805 136.132ZM92.1377 132.291C91.7132 132.291 91.2886 132.078 91.0763 131.864C90.864 131.651 90.6516 131.437 90.4394 131.437C89.5902 130.797 89.3779 129.73 90.0148 128.877C90.6517 128.023 91.7131 127.81 92.5623 128.45C92.7746 128.664 92.9869 128.664 93.1992 128.877C94.0484 129.517 94.2607 130.584 93.6238 131.437C93.4115 131.864 92.7746 132.291 92.1377 132.291ZM86.4057 126.317C85.7688 126.317 85.3442 126.103 84.9196 125.463C84.7073 125.25 84.495 125.036 84.495 124.823C83.8581 123.969 84.0704 122.903 84.9196 122.262C85.7688 121.622 86.8303 121.836 87.4672 122.689C87.6795 122.903 87.6795 123.116 87.8918 123.329C88.5287 124.183 88.3164 125.25 87.4672 125.89C87.0426 126.103 86.618 126.317 86.4057 126.317ZM82.5843 118.848C81.7351 118.848 81.0982 118.422 80.8859 117.568C80.8859 117.355 80.6736 117.141 80.6736 116.715C80.4613 115.648 80.8859 114.581 81.9474 114.368C83.0089 114.154 84.0704 114.581 84.2827 115.648C84.2827 115.861 84.495 116.075 84.495 116.288C84.9196 117.355 84.2827 118.422 83.2212 118.635C82.7966 118.848 82.5843 118.848 82.5843 118.848ZM81.0982 110.527C80.0367 110.527 79.1875 109.673 79.1875 108.607C79.1875 108.393 79.1875 108.18 79.1875 107.753C79.1875 106.686 80.0367 105.833 81.0982 105.833C82.1597 105.833 83.0089 106.686 83.0089 107.753C83.0089 107.966 83.0089 108.18 83.0089 108.393C83.0089 109.673 82.1597 110.527 81.0982 110.527ZM82.372 102.205C82.1597 102.205 81.9474 102.205 81.7351 102.205C80.6736 101.992 80.249 100.925 80.4613 99.8583C80.4613 99.6449 80.6736 99.4316 80.6736 99.0048C81.0982 97.9379 82.1597 97.5112 83.0089 97.9379C84.0704 98.3647 84.495 99.4315 84.0704 100.285C84.0704 100.498 83.8581 100.712 83.8581 100.925C84.0704 101.565 83.2212 102.205 82.372 102.205ZM86.1934 94.7374C85.7688 94.7374 85.3442 94.524 85.1319 94.3106C84.2827 93.6705 84.0704 92.6036 84.7073 91.7501C84.9196 91.5368 85.1319 91.3234 85.1319 91.11C85.7688 90.2565 86.8303 90.0432 87.6795 90.6833C88.5287 91.3234 88.741 92.3903 88.1041 93.2437C87.8918 93.4571 87.8918 93.6705 87.6795 93.8839C87.4672 94.3106 86.8303 94.7374 86.1934 94.7374ZM92.1377 88.7629C91.5009 88.7629 91.0763 88.5495 90.6517 87.9094C90.0148 87.0559 90.2271 85.9891 91.0763 85.349C91.2886 85.1356 91.5008 85.1356 91.7131 84.9222C92.5623 84.2821 93.6238 84.4955 94.2607 85.349C94.8976 86.2024 94.6853 87.2693 93.8361 87.9094C93.6238 88.1228 93.4115 88.1228 93.1992 88.3362C92.9869 88.5495 92.5623 88.7629 92.1377 88.7629ZM99.5682 84.9222C98.719 84.9222 98.0821 84.4955 97.8698 83.642C97.4452 82.5751 98.0821 81.5082 99.1436 81.2949C99.3559 81.2949 99.5682 81.0815 99.9928 81.0815C101.054 80.8681 102.116 81.2949 102.328 82.3617C102.54 83.4286 102.116 84.4955 101.054 84.7088C100.842 84.7088 100.63 84.9222 100.417 84.9222C99.9928 84.7088 99.7805 84.9222 99.5682 84.9222ZM108.697 83.4286C108.485 83.4286 108.272 83.4286 108.06 83.4286C106.999 83.4286 106.149 82.5751 106.149 81.5082C106.149 80.4414 106.999 79.5879 108.06 79.5879C108.272 79.5879 108.485 79.5879 108.909 79.5879C109.971 79.5879 110.82 80.4414 110.82 81.5082C110.395 82.7885 109.546 83.4286 108.697 83.4286Z" fill="white"/>
<path d="M108.059 194.81H107.21C106.149 194.81 105.299 193.956 105.299 192.89C105.299 191.823 106.149 190.969 107.21 190.969H107.847C108.908 190.969 109.758 191.823 109.758 192.89C109.758 193.956 109.121 194.81 108.059 194.81ZM99.7796 194.383C99.7796 194.383 99.5673 194.383 99.7796 194.383H98.9304C97.8689 194.17 97.232 193.316 97.232 192.249C97.4443 191.183 98.2935 190.542 99.355 190.542H99.9919C101.053 190.542 101.69 191.609 101.69 192.676C101.478 193.743 100.629 194.383 99.7796 194.383ZM91.4999 193.316C91.2876 193.316 91.2876 193.316 91.0753 193.316L90.2261 193.103C89.1646 192.89 88.5277 191.823 88.74 190.969C88.9523 189.902 90.0138 189.262 90.863 189.476L91.4999 189.689C92.5614 189.902 93.1983 190.969 92.986 191.823C93.1983 192.676 92.5614 193.316 91.4999 193.316ZM83.6449 191.183C83.4326 191.183 83.2203 191.183 83.008 191.183C82.7957 191.183 82.5834 190.969 82.3711 190.969C81.3096 190.756 80.885 189.689 81.0973 188.622C81.3096 187.555 82.3711 187.129 83.4326 187.342C83.6449 187.342 83.8572 187.555 84.0694 187.555C85.1309 187.769 85.5555 188.835 85.3432 189.902C85.1309 190.756 84.4941 191.183 83.6449 191.183ZM75.7898 188.409C75.5775 188.409 75.3652 188.409 75.1529 188.195L74.3037 187.982C73.4545 187.555 72.8176 186.488 73.2422 185.422C73.6668 184.568 74.7283 183.928 75.7898 184.355L76.4267 184.568C77.2759 184.995 77.9128 186.062 77.4882 186.915C77.2759 187.982 76.639 188.409 75.7898 188.409ZM68.3593 184.995C68.147 184.995 67.7224 184.995 67.5101 184.781L66.8732 184.355C66.024 183.928 65.5994 182.648 66.024 181.794C66.4486 180.941 67.7224 180.514 68.5716 180.941L69.2085 181.367C70.0577 181.794 70.4823 183.074 70.0577 183.928C69.6331 184.568 68.9962 184.995 68.3593 184.995ZM61.3535 180.727C60.9289 180.727 60.7166 180.727 60.292 180.514C60.0797 180.301 59.8674 180.301 59.6551 180.087C58.8059 179.447 58.5936 178.38 59.2305 177.527C59.8674 176.673 60.9289 176.46 61.778 177.1L62.4149 177.527C63.2641 178.167 63.4764 179.234 62.8395 180.087C62.4149 180.301 61.9903 180.727 61.3535 180.727ZM54.7722 175.82C54.3476 175.82 53.923 175.606 53.4984 175.393L52.8615 174.966C52.0123 174.326 52.0123 173.046 52.6492 172.406C53.2861 171.552 54.5599 171.552 55.1968 172.192L55.8337 172.619C56.6829 173.259 56.6829 174.54 56.046 175.18C55.8337 175.393 55.1968 175.82 54.7722 175.82ZM48.6155 170.059C48.1909 170.059 47.7663 169.845 47.3417 169.419L46.7048 168.992C46.0679 168.352 46.0679 167.071 46.7048 166.431C47.3417 165.791 48.6155 165.791 49.2524 166.431L49.677 166.858C50.3139 167.498 50.3139 168.778 49.677 169.419C49.4647 170.059 49.0401 170.059 48.6155 170.059ZM43.0957 164.084C42.4588 164.084 42.0342 163.871 41.6096 163.444L41.185 162.804C40.5481 161.951 40.7604 160.884 41.3973 160.244C42.2465 159.603 43.308 159.817 43.9449 160.457L44.3695 161.097C45.0064 161.951 45.0064 163.017 44.1572 163.658C43.9449 163.871 43.5203 164.084 43.0957 164.084ZM38.0006 157.47C37.3637 157.47 36.7268 157.256 36.5145 156.616C36.3022 156.403 36.3022 156.189 36.0899 155.976C35.453 155.123 35.6653 153.842 36.7268 153.416C37.576 152.775 38.6375 152.989 39.2743 154.056C39.4866 154.269 39.4867 154.482 39.6989 154.696C40.3358 155.549 40.1235 156.616 39.2743 157.256C38.8498 157.256 38.4252 157.47 38.0006 157.47ZM33.7546 150.215C33.1177 150.215 32.4808 149.788 32.0562 149.148C31.8439 148.935 31.8439 148.721 31.6316 148.508C31.207 147.655 31.4193 146.374 32.4808 145.948C33.33 145.521 34.6038 145.734 35.0284 146.801C35.2407 147.014 35.2407 147.228 35.453 147.441C35.8776 148.295 35.6653 149.575 34.6038 150.002C34.3915 150.215 34.1792 150.215 33.7546 150.215ZM30.3578 142.747C29.7209 142.747 28.8717 142.32 28.6594 141.68C28.6594 141.467 28.4471 141.253 28.4471 141.04C28.0225 139.973 28.4471 138.906 29.5086 138.693C30.5701 138.266 31.6316 138.693 31.8439 139.76L32.0562 140.4C32.4808 141.253 32.0562 142.534 30.9947 142.747C30.7824 142.747 30.5701 142.747 30.3578 142.747ZM27.5979 135.066C26.7487 135.066 26.1118 134.639 25.8995 133.785L25.4749 132.932C25.2626 131.865 25.6872 130.798 26.7487 130.585C27.8102 130.371 28.8717 130.798 29.084 131.865L29.2963 132.505C29.5086 133.572 29.084 134.639 28.0225 134.852C27.8102 135.066 27.8102 135.066 27.5979 135.066ZM25.4749 126.957C24.6257 126.957 23.7765 126.317 23.5642 125.464L23.3519 124.61C23.1396 123.543 23.7765 122.69 24.838 122.477C25.8995 122.263 26.7487 122.903 26.961 123.97L27.1733 124.61C27.3856 125.677 26.7487 126.531 25.6872 126.744C25.6872 126.957 25.6872 126.957 25.4749 126.957ZM24.4134 118.849C23.5642 118.849 22.715 118.209 22.5027 117.142V116.289C22.5027 115.222 23.1396 114.368 24.2011 114.155C25.2626 114.155 26.1118 114.795 26.3241 115.862V116.502C26.3241 117.782 25.4749 118.636 24.4134 118.849ZM23.9888 110.528C22.9273 110.528 22.0781 109.674 22.0781 108.607V107.754C22.0781 106.687 22.9273 105.834 23.9888 105.834C25.0503 105.834 25.8995 106.687 25.8995 107.754V108.394C25.6872 109.674 25.0503 110.528 23.9888 110.528ZM24.4134 102.206C24.2011 102.206 24.2011 102.206 24.4134 102.206C23.1396 101.993 22.5027 101.139 22.5027 100.072V99.2189C22.715 98.1521 23.5642 97.512 24.6257 97.512C25.6872 97.7253 26.3241 98.5788 26.3241 99.6457V100.286C26.1118 101.566 25.2626 102.206 24.4134 102.206ZM25.4749 94.098C25.2626 94.098 25.2626 94.098 25.0503 94.098C23.9888 93.8846 23.3519 92.8178 23.5642 91.9643L23.7765 91.1108C23.9888 90.0439 25.0503 89.4038 25.8995 89.6172C26.961 89.8306 27.5979 90.8974 27.3856 91.7509L27.1733 92.391C27.1733 93.4579 26.3241 94.098 25.4749 94.098ZM27.3856 85.9898C27.1733 85.9898 26.961 85.9898 26.7487 85.9898C25.6872 85.7765 25.2626 84.7096 25.4749 83.6427L25.6872 83.0026C25.8995 81.9358 26.961 81.509 28.0225 81.7224C29.084 81.9358 29.5086 83.0026 29.2963 84.0695L29.084 84.7096C29.084 85.5631 28.2348 85.9898 27.3856 85.9898ZM30.3578 78.0951C30.1455 78.0951 29.9332 78.0951 29.7209 77.8817C28.8717 77.4549 28.2348 76.3881 28.6594 75.5346L28.8717 74.8945C29.2963 74.041 30.3578 73.4009 31.4193 73.8276C32.2685 74.2543 32.9054 75.3212 32.4808 76.3881L32.2685 77.0282C31.6316 77.6683 30.9947 78.0951 30.3578 78.0951ZM33.7546 70.627C33.5423 70.627 33.1177 70.627 32.9054 70.4136C32.0562 69.9869 31.6316 68.7067 32.0562 67.8532C32.2685 67.6398 32.2685 67.4264 32.4808 67.213C32.9054 66.3596 34.1792 65.9328 35.0284 66.5729C35.8776 66.9997 36.3022 68.2799 35.6653 69.1334C35.453 69.3468 35.453 69.5602 35.2407 69.7735C35.0284 70.4136 34.3915 70.627 33.7546 70.627ZM38.0006 63.5857C37.576 63.5857 37.3637 63.5857 36.9391 63.3723C36.0899 62.7322 35.8776 61.6654 36.5145 60.8119L36.9391 60.1717C37.576 59.3183 38.6375 59.1049 39.4867 59.745C40.3358 60.3851 40.5481 61.452 39.9112 62.3055L39.4867 62.9456C39.2744 63.3723 38.6375 63.5857 38.0006 63.5857ZM42.8834 56.9712C42.4588 56.9712 42.0342 56.7578 41.6096 56.5444C40.7604 55.9043 40.7604 54.6241 41.3973 53.9839L41.8219 53.3438C42.4588 52.4903 43.7326 52.4903 44.3695 53.1304C45.2187 53.7706 45.2187 55.0508 44.5818 55.6909L44.1572 56.331C43.9449 56.7578 43.5203 56.9712 42.8834 56.9712ZM48.4032 50.7833C47.9786 50.7833 47.554 50.57 47.1294 50.1432C46.4925 49.5031 46.4925 48.2229 47.1294 47.5828L47.7663 46.9426C48.4032 46.3025 49.677 46.3025 50.3139 46.9426C50.9508 47.5828 50.9508 48.863 50.3139 49.5031L49.8893 49.9299C49.4647 50.57 49.0401 50.7833 48.4032 50.7833ZM54.5599 45.2357C53.923 45.2357 53.4984 45.0223 53.0738 44.5955C52.4369 43.7421 52.4369 42.6752 53.2861 42.0351C53.4984 41.8217 53.7107 41.6083 53.923 41.6083C54.7722 40.9682 55.8337 41.1816 56.4706 41.8217C57.1075 42.6752 56.8952 43.742 56.2583 44.3822C56.046 44.5955 55.8337 44.5955 55.6214 44.8089C55.4091 45.0223 54.9845 45.2357 54.5599 45.2357ZM61.1412 40.3281C60.5043 40.3281 59.8674 40.1147 59.6551 39.4746C59.0182 38.6211 59.2305 37.5542 60.0797 36.9141L60.7166 36.4874C61.5658 35.8473 62.8395 36.0606 63.2641 37.1275C63.901 37.981 63.6887 39.2612 62.8395 39.688L62.2026 40.1147C61.9903 40.1147 61.5658 40.3281 61.1412 40.3281ZM68.147 36.0606C67.5101 36.0606 66.8732 35.6339 66.4486 34.9938C66.024 34.1403 66.2363 32.86 67.2978 32.4333L67.9347 32.0066C68.7839 31.5798 70.0577 31.7932 70.4823 32.86C70.9069 33.7135 70.6946 34.9938 69.6331 35.4205L68.9962 35.8473C68.7839 35.8473 68.5716 36.0606 68.147 36.0606ZM75.5775 32.4333C74.9406 32.4333 74.0914 32.0066 73.8791 31.3664C73.4545 30.5129 73.8791 29.2327 74.9406 29.0193L75.5775 28.806C76.4267 28.3792 77.7005 28.806 77.9128 29.8728C78.3374 30.7263 77.9128 32.0066 76.8513 32.2199H76.4267C76.2144 32.4333 76.0021 32.4333 75.5775 32.4333ZM83.4326 29.6595C82.5834 29.6595 81.9465 29.2327 81.7342 28.3792C81.5219 27.3124 81.9465 26.2455 83.008 26.0321C83.2203 26.0321 83.4326 25.8187 83.6449 25.8187C84.7064 25.6054 85.7678 26.0321 85.9801 27.099C86.1924 28.1658 85.7678 29.2327 84.7064 29.4461C84.4941 29.4461 84.2817 29.6595 84.0694 29.6595C83.8572 29.6595 83.6449 29.6595 83.4326 29.6595ZM91.4999 27.5257C90.6507 27.5257 89.8015 26.8856 89.5892 26.0321C89.3769 24.9653 90.0138 24.1118 91.0753 23.8984L91.9245 23.685C92.986 23.4716 93.8352 24.1118 94.0475 25.1786C94.2598 26.2455 93.6229 27.099 92.5614 27.3124L91.9245 27.5257C91.7122 27.5257 91.4999 27.5257 91.4999 27.5257ZM99.5673 26.4589C98.7181 26.4589 97.8689 25.8187 97.6566 24.7519C97.6566 23.685 98.2935 22.8315 99.355 22.6182H100.204C101.266 22.6182 102.115 23.2583 102.327 24.3251C102.327 25.392 101.69 26.2455 100.629 26.4589H99.5673C99.7796 26.4589 99.5673 26.4589 99.5673 26.4589ZM108.484 26.0321H107.847H107.635C106.573 26.0321 105.724 25.1786 105.724 24.1118C105.724 23.0449 106.573 22.1914 107.635 22.1914H107.847H108.484C109.545 22.1914 110.395 23.0449 110.395 24.1118C110.395 25.1786 109.545 26.0321 108.484 26.0321Z" fill="white"/>
<path d="M109.334 217C108.273 217 107.423 216.147 107.423 215.08C107.423 214.013 108.273 213.159 109.334 213.159H109.971C111.032 213.159 111.882 214.013 111.882 215.08C111.882 216.147 111.032 217 109.971 217H109.334ZM101.904 217C101.904 217 101.691 217 101.904 217H101.054C99.9929 217 99.1437 216.147 99.356 215.08C99.356 214.013 100.205 213.159 101.267 213.373H101.904C102.965 213.373 103.814 214.226 103.602 215.293C103.602 216.147 102.753 217 101.904 217ZM93.6239 216.147H93.4116H92.5624C91.5009 215.933 90.864 215.08 91.0763 214.013C91.2886 212.946 92.1378 212.306 93.1993 212.519H93.8362C94.8977 212.733 95.5346 213.586 95.5346 214.653C95.3223 215.506 94.4731 216.147 93.6239 216.147ZM85.5565 214.653C85.3442 214.653 85.3442 214.653 85.1319 214.653L84.2827 214.44C83.2212 214.226 82.5843 213.159 82.7966 212.306C83.0089 211.239 84.0704 210.599 84.9196 210.812L85.5565 211.026C86.618 211.239 87.2549 212.306 87.0426 213.159C87.2549 214.013 86.4057 214.653 85.5565 214.653ZM77.4892 212.733C77.2769 212.733 77.0646 212.733 76.8523 212.733L76.2154 212.519C75.1539 212.306 74.7293 211.239 74.9416 210.172C75.1539 209.105 76.2154 208.678 77.2769 208.892L77.9138 209.105C78.9753 209.319 79.3999 210.385 79.1876 211.452C79.1876 212.092 78.3384 212.733 77.4892 212.733ZM69.8464 209.959C69.6341 209.959 69.4218 209.959 69.2095 209.745C68.9972 209.745 68.7849 209.532 68.5726 209.532C67.5111 209.105 67.0865 208.038 67.5111 207.185C67.9357 206.118 68.9972 205.691 69.8464 206.118C70.0587 206.118 70.271 206.331 70.4833 206.331C71.5448 206.758 71.9694 207.825 71.5448 208.678C71.3325 209.532 70.4833 209.959 69.8464 209.959ZM62.2036 206.758C61.9913 206.758 61.5667 206.758 61.3544 206.545L60.7175 206.118C59.8683 205.691 59.4437 204.624 59.8683 203.558C60.2929 202.704 61.3544 202.277 62.4159 202.704L63.0528 203.131C63.902 203.558 64.3266 204.624 63.902 205.691C63.4774 206.331 62.8405 206.758 62.2036 206.758ZM54.9855 202.917C54.7732 202.917 54.3486 202.917 54.1363 202.704L53.4994 202.277C52.6502 201.851 52.2256 200.57 52.8625 199.717C53.2871 198.863 54.5609 198.437 55.4101 199.077L56.047 199.503C56.8962 199.93 57.3208 201.21 56.6839 202.064C56.2593 202.491 55.6224 202.917 54.9855 202.917ZM47.9796 198.437C47.555 198.437 47.3427 198.437 46.9181 198.01L46.2812 197.583C45.432 196.943 45.2197 195.876 45.8566 195.023C46.4935 194.169 47.555 193.956 48.4042 194.596L49.0411 195.023C49.8903 195.663 50.1026 196.73 49.4657 197.583C49.0411 198.223 48.6165 198.437 47.9796 198.437ZM41.3983 193.529C40.9737 193.529 40.5491 193.316 40.1245 193.102L39.4876 192.676C38.6384 192.035 38.6384 190.755 39.2753 190.115C39.9122 189.262 41.186 189.262 41.8229 189.902L42.4598 190.328C43.309 190.969 43.309 192.249 42.6721 192.889C42.4598 193.316 41.8229 193.529 41.3983 193.529ZM35.2416 187.981C34.8171 187.981 34.3925 187.768 33.9679 187.555L33.331 187.128C32.4818 186.488 32.4818 185.207 33.331 184.567C33.9679 183.714 35.2416 183.714 35.8785 184.567L36.5154 184.994C37.3646 185.634 37.3646 186.914 36.5154 187.555C36.0908 187.768 35.6662 187.981 35.2416 187.981ZM29.2973 182.22C28.8727 182.22 28.2358 182.007 27.8112 181.58L27.5989 180.94C26.962 180.087 26.962 179.02 27.8112 178.38C28.6604 177.739 29.7219 177.739 30.3588 178.593L30.7834 179.233C31.4203 180.087 31.4203 181.153 30.5711 181.794C30.3588 182.007 29.9342 182.22 29.2973 182.22ZM23.9898 175.819C23.3529 175.819 22.9283 175.606 22.5037 175.179L22.0791 174.539C21.4422 173.685 21.6545 172.618 22.5037 171.978C23.3529 171.338 24.4144 171.552 25.0513 172.405L25.4759 172.832C26.1128 173.685 25.9005 174.752 25.0513 175.392C24.839 175.606 24.4144 175.819 23.9898 175.819ZM19.3192 168.991C18.6823 168.991 18.0454 168.778 17.8331 168.138L17.4085 167.498C16.7716 166.644 17.1962 165.364 18.0454 164.937C18.8946 164.297 20.1684 164.724 20.593 165.577L21.0176 166.217C21.6545 167.071 21.4422 168.351 20.593 168.778C19.9561 168.991 19.7438 168.991 19.3192 168.991ZM15.0732 161.95C14.4363 161.95 13.7994 161.523 13.3748 160.883L12.9502 160.243C12.5256 159.389 12.7379 158.109 13.7994 157.682C14.6486 157.256 15.9224 157.469 16.347 158.536L16.7716 159.176C17.1962 160.029 16.9839 161.31 16.1347 161.736C15.7101 161.95 15.2855 161.95 15.0732 161.95ZM11.2519 154.695C10.615 154.695 9.76576 154.268 9.55346 153.628L9.34116 152.988C8.91656 152.135 9.34116 150.854 10.1904 150.428C11.0396 150.001 12.3133 150.428 12.7379 151.281L12.9502 151.921C13.3748 152.775 12.9502 154.055 12.101 154.482C11.8887 154.695 11.6764 154.695 11.2519 154.695ZM8.27966 147.014C7.43047 147.014 6.79357 146.587 6.58127 145.734L6.15667 145.093C5.73208 144.027 6.36897 142.96 7.21817 142.746C8.27966 142.32 9.34116 142.96 9.55346 143.813L9.76576 144.453C10.1904 145.52 9.55346 146.587 8.70426 146.8C8.70426 147.014 8.49196 147.014 8.27966 147.014ZM5.73208 139.119C4.88288 139.119 4.24598 138.479 4.03368 137.839L3.82138 137.199C3.60908 136.132 4.24598 135.065 5.09518 134.852C6.15667 134.638 7.21817 135.278 7.43047 136.132L7.64277 136.772C7.85507 137.839 7.43047 138.906 6.36897 139.119C5.94437 139.119 5.94437 139.119 5.73208 139.119ZM3.82138 131.011C2.97219 131.011 2.12299 130.371 1.91069 129.517L1.69839 128.664C1.48609 127.597 2.12299 126.743 3.18449 126.53C4.24598 126.317 5.09518 126.957 5.30748 128.024L5.51978 128.664C5.73208 129.731 5.09518 130.584 4.03368 130.797C4.03368 131.011 3.82138 131.011 3.82138 131.011ZM2.54759 122.903C1.69839 122.903 0.849196 122.263 0.636897 121.196V120.342C0.424598 119.275 1.27379 118.422 2.33529 118.208C3.39679 117.995 4.24598 118.849 4.45828 119.915V120.556C4.67058 121.622 3.82138 122.476 2.75989 122.689C2.75989 122.903 2.54759 122.903 2.54759 122.903ZM1.91069 114.581C0.849196 114.581 0 113.728 0 112.874V112.021C0 110.954 0.849196 110.1 1.91069 110.1C2.97219 110.1 3.82138 110.954 3.82138 112.021V112.661C3.82138 113.728 2.97219 114.581 1.91069 114.581ZM1.91069 106.473C0.849196 106.26 0 105.406 0 104.553V103.699C0 102.632 0.849196 101.779 1.91069 101.992C2.97219 101.992 3.82138 102.846 3.60908 103.912V104.553C3.60908 105.619 2.97219 106.473 1.91069 106.473ZM2.54759 98.1514H2.33529C1.27379 97.938 0.636897 97.0846 0.636897 96.0177V95.1642C0.849196 94.0973 1.69839 93.4572 2.75989 93.4572C3.82138 93.6706 4.45828 94.5241 4.45828 95.591V96.2311C4.24598 97.5113 3.39679 98.1514 2.54759 98.1514ZM3.82138 90.0433C3.60908 90.0433 3.60908 90.0433 3.39679 90.0433C2.33529 89.8299 1.69839 88.763 1.91069 87.9095L2.12299 87.056C2.33529 85.9892 3.39679 85.3491 4.24598 85.5624C5.30748 85.7758 5.94437 86.8427 5.73208 87.6962L5.51978 88.3363C5.30748 89.4031 4.67058 90.0433 3.82138 90.0433ZM5.73208 81.9351C5.51978 81.9351 5.30748 81.9351 5.30748 81.9351C4.24598 81.7217 3.82138 80.6549 4.03368 79.588L4.24598 78.9479C4.24598 77.881 5.30748 77.2409 6.36897 77.4543C7.43047 77.6676 7.85507 78.7345 7.64277 79.8014L7.43047 80.4415C7.21817 81.295 6.36897 81.9351 5.73208 81.9351ZM8.06736 74.0403C7.85507 74.0403 7.64277 74.0403 7.43047 73.8269C6.58127 73.6136 5.94437 72.5467 6.36897 71.4798L6.58127 70.8397C7.00587 69.7729 8.06736 69.3461 8.91656 69.7729C9.97806 70.1996 10.4027 71.2665 9.97806 72.12L9.76576 72.7601C9.55346 73.6136 8.91656 74.0403 8.06736 74.0403ZM11.2519 66.3589C11.0396 66.3589 10.8273 66.3589 10.4027 66.1455C9.55346 65.7188 9.12886 64.6519 9.55346 63.5851L9.76576 62.9449C10.1904 62.0914 11.2519 61.6647 12.3133 62.0914C13.1625 62.5182 13.5871 63.5851 13.1625 64.6519L12.9502 65.292C12.5256 65.9322 11.8887 66.3589 11.2519 66.3589ZM14.8609 58.8909C14.6486 58.8909 14.224 58.8909 14.0117 58.6775C13.1625 58.2507 12.7379 56.9705 13.3748 56.117L13.5871 55.4769C14.0117 54.6234 15.2855 54.1967 16.1347 54.8368C16.9839 55.2635 17.4085 56.5438 16.7716 57.3972L16.347 58.0374C16.1347 58.6775 15.4978 58.8909 14.8609 58.8909ZM19.1069 51.8496C18.6823 51.8496 18.47 51.8496 18.0454 51.6362C17.4085 50.9961 16.9839 49.9292 17.6208 49.0757L18.0454 48.4356C18.6823 47.5821 19.7438 47.3687 20.593 48.0089C21.4422 48.649 21.6545 49.7158 21.0176 50.5693L20.593 51.2094C20.3807 51.6362 19.7438 51.8496 19.1069 51.8496ZM23.9898 45.235C23.5652 45.235 23.1406 45.0216 22.9283 44.8083C22.0791 44.1681 21.8668 43.1013 22.5037 42.2478L22.9283 41.6077C23.5652 40.7542 24.839 40.7542 25.4759 41.3943C26.3251 42.0344 26.3251 43.3147 25.6882 43.9548L25.4759 44.3815C25.0513 44.8083 24.6267 45.235 23.9898 45.235ZM29.2973 38.8338C28.8727 38.8338 28.4481 38.6205 28.0235 38.4071C27.1743 37.767 27.1743 36.4867 27.8112 35.8466L28.2358 35.2065C28.8727 34.353 30.1465 34.353 30.7834 34.9931C31.6326 35.6332 31.6326 36.9135 30.9957 37.5536L30.5711 38.1937C30.3588 38.6204 29.7219 38.8338 29.2973 38.8338ZM35.0294 32.8594C34.6048 32.8594 33.9679 32.646 33.7556 32.2193C33.1187 31.3658 33.1187 30.2989 33.7556 29.6588L34.3925 29.2321C35.2416 28.5919 36.3031 28.5919 36.94 29.2321C37.5769 30.0855 37.5769 31.1524 36.94 31.7925L36.3031 32.2193C35.8785 32.646 35.4539 32.8594 35.0294 32.8594ZM41.186 27.5251C40.5491 27.5251 40.1245 27.3117 39.6999 26.885C39.063 26.0315 39.2753 24.9646 39.9122 24.3245L40.5491 23.8977C41.3983 23.2576 42.4598 23.471 43.0967 24.1111C43.7336 24.9646 43.5213 26.0315 42.8844 26.6716L42.4598 27.0983C42.0352 27.3117 41.6106 27.5251 41.186 27.5251ZM47.7673 22.4041C47.1304 22.4041 46.4935 22.1908 46.2812 21.5506C45.6443 20.6971 45.8566 19.6303 46.7058 18.9902L47.3427 18.5634C48.1919 17.9233 49.2534 18.1367 49.8903 18.9902C50.5272 19.8437 50.3149 20.9105 49.4657 21.5506L48.8288 22.1908C48.6165 22.4041 48.1919 22.4041 47.7673 22.4041ZM54.7732 18.1367C54.1363 18.1367 53.4994 17.7099 53.0748 17.2832C52.6502 16.4297 52.8625 15.1495 53.7117 14.7227L54.3486 14.296C55.1978 13.8692 56.4716 14.0826 56.8962 14.9361C57.3208 15.7896 57.1085 17.0698 56.2593 17.4966L55.6224 17.9233C55.4101 17.9233 54.9855 18.1367 54.7732 18.1367ZM61.9913 14.296C61.3544 14.296 60.7175 13.8692 60.2929 13.2291C59.8683 12.3756 60.2929 11.0954 61.1421 10.6686L61.779 10.2419C62.6282 9.81514 63.902 10.2419 64.3266 11.0954C64.7512 11.9489 64.3266 13.2291 63.4774 13.6559L62.8405 13.8692C62.6282 14.0826 62.2036 14.296 61.9913 14.296ZM69.6341 10.882C68.7849 10.882 68.148 10.4553 67.9357 9.60177C67.5111 8.53491 67.9357 7.46804 68.9972 7.25467L69.6341 7.0413C70.6956 6.61455 71.7571 7.25467 71.9694 8.10816C72.394 9.17502 71.7571 10.2419 70.9079 10.4553L70.271 10.6686C70.0587 10.882 69.8464 10.882 69.6341 10.882ZM77.2769 8.32153C76.4277 8.32153 75.7908 7.89479 75.5785 7.0413C75.3662 5.97443 75.7908 4.90757 76.8523 4.6942L77.4892 4.26745C78.5507 4.05408 79.6122 4.48083 79.8245 5.54769C80.0368 6.61455 79.6122 7.68142 78.5507 7.89479L77.9138 8.10816C77.7015 8.10816 77.4892 8.32153 77.2769 8.32153ZM85.3442 6.18781C84.495 6.18781 83.6458 5.54769 83.4335 4.6942C83.2212 3.62734 83.8581 2.77384 84.9196 2.56047L85.7688 2.3471C86.8303 2.13373 87.6795 2.77384 87.8918 3.84071C88.1041 4.90757 87.4672 5.76106 86.4057 5.97443L85.7688 6.18781C85.5565 6.18781 85.3442 6.18781 85.3442 6.18781ZM93.4116 4.6942C92.5624 4.6942 91.7132 4.05408 91.5009 2.98722C91.2886 1.92035 92.1378 1.06686 93.1993 0.853491H94.0485C95.11 0.640118 95.9592 1.49361 96.1715 2.56047C96.3838 3.62734 95.5346 4.48083 94.4731 4.6942H93.8362C93.6239 4.6942 93.4116 4.6942 93.4116 4.6942ZM101.691 3.84071C100.63 3.84071 99.7806 3.20059 99.7806 2.13373C99.7806 1.06686 100.417 0.213373 101.479 0.213373H102.328C103.39 0.213373 104.239 0.853491 104.239 1.92035C104.239 2.98722 103.602 3.84071 102.54 3.84071H101.691ZM110.608 3.84071H109.759C108.697 3.84071 107.848 2.98722 107.848 1.92035C107.848 0.853491 108.697 0 109.759 0H110.608C111.669 0 112.519 0.853491 112.519 1.92035C112.306 2.98722 111.669 3.84071 110.608 3.84071Z" fill="white"/>
<path d="M109.335 206.331C108.273 206.331 107.424 205.477 107.424 204.41C107.424 203.343 108.273 202.49 109.335 202.49H109.972C111.033 202.49 111.882 203.343 111.882 204.41C111.882 205.477 111.033 206.331 109.972 206.331H109.335ZM101.904 206.117C101.904 206.117 101.692 206.117 101.904 206.117H101.055C99.9937 206.117 99.3568 205.05 99.3568 204.197C99.3568 203.13 100.418 202.277 101.268 202.49H101.904C102.966 202.49 103.815 203.343 103.603 204.41C103.603 205.264 102.754 206.117 101.904 206.117ZM93.6248 205.264H93.4125L92.5633 205.05C91.5018 204.837 90.8649 203.984 91.0772 202.917C91.2895 201.85 92.1387 201.21 93.2002 201.423L93.8371 201.637C94.8986 201.85 95.5355 202.703 95.3232 203.77C95.3232 204.624 94.6863 205.264 93.6248 205.264ZM85.5574 203.557C85.3451 203.557 85.3451 203.557 85.1328 203.557L84.4959 203.343C83.4344 203.13 82.7975 202.063 83.2221 200.996C83.4344 199.93 84.4959 199.289 85.5574 199.716L86.1943 199.93C87.2558 200.143 87.8927 201.21 87.6804 202.277C87.2558 203.13 86.4066 203.557 85.5574 203.557ZM77.7023 201.423C77.49 201.423 77.2777 201.423 77.0654 201.423L76.4285 200.996C75.367 200.57 74.9425 199.503 75.367 198.649C75.7916 197.582 76.8531 197.156 77.7023 197.582L78.3392 197.796C79.4007 198.223 79.8253 199.289 79.613 200.143C79.1884 200.783 78.5515 201.423 77.7023 201.423ZM70.0596 198.436C69.8473 198.436 69.635 198.436 69.4227 198.223L68.7858 198.009C67.9366 197.582 67.512 196.516 67.9366 195.449C68.3612 194.595 69.4227 194.168 70.4842 194.595L71.1211 194.809C71.9703 195.235 72.6072 196.302 72.1826 197.369C71.5457 198.009 70.9088 198.436 70.0596 198.436ZM62.6291 194.809C62.4168 194.809 61.9922 194.809 61.7799 194.595L61.143 194.168C60.2938 193.742 59.8692 192.461 60.5061 191.608C60.9307 190.755 62.2045 190.328 63.0537 190.968L63.6906 191.395C64.5398 191.821 64.9644 193.102 64.5398 193.955C63.9029 194.382 63.266 194.809 62.6291 194.809ZM55.6232 190.541C55.1986 190.541 54.9863 190.541 54.5617 190.328L53.9248 189.901C53.0756 189.261 52.8633 188.194 53.5002 187.341C54.1371 186.487 55.1986 186.274 56.0478 186.914L56.6847 187.341C57.5339 187.981 57.7462 189.048 57.3216 189.901C56.897 190.328 56.2601 190.541 55.6232 190.541ZM49.042 185.847C48.6174 185.847 48.1928 185.634 47.9805 185.42L47.3436 184.993C46.4944 184.353 46.4944 183.073 47.1313 182.433C47.7682 181.579 49.042 181.579 49.6789 182.22L50.3158 182.646C51.165 183.286 51.1649 184.567 50.5281 185.207C50.1035 185.42 49.4666 185.847 49.042 185.847ZM42.673 180.299C42.2484 180.299 41.8238 180.086 41.3992 179.872L40.7623 179.446C39.9131 178.806 39.9131 177.525 40.7623 176.885C41.3992 176.032 42.673 176.032 43.3099 176.885L43.7345 177.312C44.5837 177.952 44.5837 179.232 43.7345 179.872C43.7345 180.086 43.3099 180.299 42.673 180.299ZM36.9409 174.538C36.5163 174.538 35.8794 174.325 35.4548 173.898L35.0302 173.258C34.3933 172.404 34.3933 171.338 35.2425 170.697C36.0917 170.057 37.1532 170.057 37.7901 170.911L38.2147 171.551C38.8516 172.404 38.8516 173.471 38.0024 174.111C38.0024 174.325 37.3655 174.538 36.9409 174.538ZM31.8457 168.137C31.2088 168.137 30.7842 167.924 30.3596 167.497L29.935 166.857C29.2981 166.003 29.5104 164.936 30.3596 164.296C31.2088 163.656 32.2703 163.87 32.9072 164.723L33.3318 165.363C33.9687 166.217 33.7564 167.283 32.9072 167.924C32.6949 167.924 32.2703 168.137 31.8457 168.137ZM27.1752 161.309C26.5383 161.309 25.9014 161.096 25.6891 160.456L25.2645 159.815C24.6276 158.962 25.0522 157.682 25.9014 157.255C26.7506 156.615 28.0243 157.042 28.4489 157.895L28.8735 158.535C29.5104 159.389 29.0858 160.669 28.2367 161.096C27.8121 161.309 27.3875 161.309 27.1752 161.309ZM23.1415 154.268C22.5046 154.268 21.8677 153.841 21.4431 153.201L21.0185 152.561C20.5939 151.707 21.0185 150.427 21.8677 150C22.7169 149.574 23.9907 150 24.4153 150.854L24.8399 151.494C25.2645 152.347 25.0522 153.628 23.9907 154.054C23.5661 154.054 23.3538 154.268 23.1415 154.268ZM19.7447 146.8C19.1078 146.8 18.2586 146.373 18.0463 145.733L17.834 145.093C17.4094 144.026 17.834 142.959 18.8955 142.746C19.957 142.319 21.0185 142.746 21.2308 143.813L21.4431 144.453C21.8677 145.306 21.4431 146.586 20.3816 146.8C20.1693 146.586 19.957 146.8 19.7447 146.8ZM16.7725 138.905C15.9233 138.905 15.2864 138.478 15.0741 137.625L14.8618 136.985C14.6495 135.918 15.0741 134.851 16.1356 134.637C17.1971 134.424 18.2586 134.851 18.4709 135.918L18.6832 136.558C18.8955 137.625 18.4709 138.692 17.4094 138.905C17.1971 138.905 16.9848 138.905 16.7725 138.905ZM14.8618 131.01C14.0126 131.01 13.1634 130.37 12.9511 129.517L12.7388 128.663C12.5265 127.596 13.1634 126.743 14.2249 126.529C15.2864 126.316 16.1356 126.956 16.3479 128.023L16.5602 128.663C16.7725 129.73 16.1356 130.583 15.0741 130.797C15.0741 131.01 14.8618 131.01 14.8618 131.01ZM13.3757 122.902C12.5265 122.902 11.6773 122.262 11.465 121.195V120.342C11.2527 119.275 12.1019 118.421 13.1634 118.208C14.2249 117.994 15.0741 118.848 15.2864 119.915V120.555C15.4987 121.622 14.6495 122.475 13.588 122.689C13.588 122.902 13.3757 122.902 13.3757 122.902ZM12.7388 114.58C11.6773 114.58 10.8281 113.727 10.8281 112.873V112.02C10.8281 110.953 11.6773 110.1 12.5265 110.1C13.588 110.1 14.4372 110.953 14.4372 111.807V112.447C14.6495 113.727 13.8003 114.58 12.7388 114.58ZM12.7388 106.472C12.7388 106.472 12.5265 106.472 12.7388 106.472C11.6773 106.472 10.8281 105.619 10.8281 104.552V103.698C10.8281 102.632 11.6773 101.778 12.7388 101.991C13.8003 101.991 14.6495 102.845 14.4372 103.912V104.552C14.4372 105.619 13.588 106.472 12.7388 106.472ZM13.3757 98.1508H13.1634C12.1019 97.9374 11.465 97.0839 11.465 96.017V95.1635C11.6773 94.0967 12.5265 93.4566 13.588 93.4566C14.6495 93.6699 15.2864 94.5234 15.2864 95.5903V96.2304C15.0741 97.5106 14.2249 98.1508 13.3757 98.1508ZM14.6495 90.0426C14.4372 90.0426 14.4372 90.0426 14.2249 90.0426C13.1634 89.8292 12.5265 88.7624 12.7388 87.9089L12.9511 87.0554C13.1634 85.9885 14.2249 85.3484 15.2864 85.5618C16.3479 85.7751 16.9848 86.842 16.7725 87.9089L16.5602 88.549C16.3479 89.4025 15.4987 90.0426 14.6495 90.0426ZM16.7725 82.1478C16.5602 82.1478 16.3479 82.1478 16.1356 82.1478C15.0741 81.9344 14.6495 80.8676 14.8618 79.8007L15.2864 78.9472C15.4987 77.8804 16.5602 77.4536 17.6217 77.667C18.6832 77.8804 19.1078 78.9472 18.8955 80.0141L18.6832 80.6542C18.2586 81.5077 17.6217 82.1478 16.7725 82.1478ZM19.5324 74.253C19.3201 74.253 19.1078 74.253 18.8955 74.0396C18.0463 73.6129 17.4094 72.546 17.834 71.6925C17.834 71.4792 18.0463 71.2658 18.0463 71.0524C18.4709 70.1989 19.5324 69.5588 20.3816 69.9856C21.2308 70.4123 21.8677 71.4792 21.4431 72.3327L21.2308 73.1862C21.0185 73.8263 20.3816 74.253 19.5324 74.253ZM22.9292 66.785C22.7169 66.785 22.2923 66.785 22.08 66.5716C21.2308 66.1449 20.8062 65.078 21.4431 64.0111L21.8677 63.371C22.2923 62.5175 23.5661 62.0908 24.4153 62.5175C25.2645 62.9443 25.6891 64.2245 25.2645 65.078L24.8399 65.7181C24.4153 66.3582 23.7784 66.785 22.9292 66.785ZM26.9629 59.5303C26.5383 59.5303 26.326 59.5303 25.9014 59.3169C25.0522 58.6768 24.8399 57.61 25.2645 56.7565C25.4768 56.5431 25.4768 56.3297 25.6891 56.1163C26.326 55.2629 27.3875 55.0495 28.2367 55.4762C29.0858 56.1163 29.2981 57.1832 28.8735 58.0367C28.6612 58.2501 28.6612 58.4634 28.4489 58.6768C28.2366 59.3169 27.5998 59.5303 26.9629 59.5303ZM31.6334 52.9158C31.2088 52.9158 30.7842 52.7024 30.5719 52.489C29.7227 51.8489 29.5104 50.782 30.1473 49.9285C30.3596 49.7152 30.3596 49.5018 30.5719 49.2884C31.2088 48.4349 32.2703 48.2216 33.1195 48.8617C33.9687 49.5018 34.181 50.5687 33.5441 51.4221C33.3318 51.6355 33.3318 51.8489 33.1195 52.0623C32.9072 52.489 32.2703 52.9158 31.6334 52.9158ZM36.9409 46.5146C36.5163 46.5146 36.0917 46.3012 35.6671 46.0878C34.8179 45.4477 34.8179 44.1675 35.4548 43.5274L36.0917 42.6739C36.7286 41.8204 38.0024 41.8204 38.6393 42.4605C39.4885 43.1006 39.4885 44.3808 38.8516 45.021L38.2147 45.8745C38.0024 46.3012 37.3655 46.5146 36.9409 46.5146ZM42.673 40.5401C42.2484 40.5401 41.6115 40.3268 41.3992 39.9C40.7623 39.0465 40.7623 37.9797 41.3992 37.3396C41.6115 37.1262 41.8238 36.9128 42.0361 36.9128C42.8853 36.2727 43.9468 36.2727 44.5837 37.1262C45.2206 37.9797 45.2206 39.0465 44.3714 39.6867C44.1591 39.9 43.9468 40.1134 43.7345 40.1134C43.5222 40.3268 43.0976 40.5401 42.673 40.5401ZM48.8297 35.2058C48.1928 35.2058 47.7682 34.9925 47.3436 34.5657C46.7067 33.7122 46.919 32.6454 47.5559 32.0052C47.7682 31.7919 47.9805 31.7919 48.1928 31.5785C49.042 30.9384 50.1035 31.1517 50.7404 32.0052C51.3772 32.8587 51.165 33.9256 50.3158 34.5657C50.1035 34.7791 49.8912 34.7791 49.6789 34.9925C49.6789 34.9925 49.2543 35.2058 48.8297 35.2058ZM55.4109 30.2983C54.774 30.2983 54.1371 30.0849 53.9248 29.4448C53.2879 28.5913 53.5002 27.311 54.3494 26.8843L54.9863 26.4575C55.8355 25.8174 57.1093 26.2442 57.5339 27.0977C58.1708 27.9512 57.7462 29.2314 56.897 29.6581L56.2601 30.0849C56.2601 30.2983 55.8355 30.2983 55.4109 30.2983ZM62.6291 26.0308C61.9922 26.0308 61.3553 25.6041 60.9307 24.9639C60.5061 24.1104 60.7184 22.8302 61.7799 22.4035L62.4168 21.9767C63.266 21.55 64.5398 21.7633 64.9644 22.8302C65.389 23.6837 65.1767 24.9639 64.1152 25.3907L63.4783 25.8174C63.0537 26.0308 62.8414 26.0308 62.6291 26.0308ZM69.8473 22.4035C69.2104 22.4035 68.3612 21.9767 68.1489 21.3366C67.7243 20.4831 68.1489 19.2029 69.2104 18.7761L69.8473 18.5628C70.6965 18.136 71.9703 18.5628 72.3949 19.6296C72.8195 20.4831 72.3949 21.7633 71.3334 22.1901L70.6965 22.4035C70.4842 22.4035 70.0596 22.4035 69.8473 22.4035ZM77.49 19.6296C76.6408 19.6296 76.0039 19.2029 75.7916 18.3494C75.3671 17.2825 76.0039 16.2157 77.0654 16.0023L77.7023 15.7889C78.7638 15.3622 79.8253 16.0023 80.0376 17.0691C80.4622 18.136 79.8253 19.2029 78.7638 19.4162L78.1269 19.6296C77.9146 19.4162 77.7023 19.6296 77.49 19.6296ZM85.3451 17.2825C84.4959 17.2825 83.6467 16.6424 83.4344 15.7889C83.2221 14.722 83.859 13.8686 84.7082 13.4418L85.3451 13.2284C86.4066 13.0151 87.2558 13.6552 87.6804 14.722C87.8927 15.7889 87.2558 16.6424 86.1943 17.0691L85.5574 17.2825C85.7697 17.2825 85.5574 17.2825 85.3451 17.2825ZM93.4125 15.5755C92.5633 15.5755 91.7141 14.9354 91.5018 14.0819C91.2895 13.0151 92.1387 12.1616 92.9879 11.9482L93.8371 11.7348C94.8986 11.5215 95.7478 12.3749 95.9601 13.2284C96.1724 14.2953 95.3232 15.1488 94.474 15.3622L93.8371 15.5755C93.6248 15.5755 93.6248 15.5755 93.4125 15.5755ZM101.692 14.722C100.631 14.722 99.9937 13.8686 99.7814 13.0151C99.7814 11.9482 100.418 11.0947 101.48 11.0947H102.329C103.391 11.0947 104.24 11.7348 104.24 12.8017C104.24 13.8686 103.603 14.722 102.541 14.722H101.692ZM110.609 14.5087H109.76C108.698 14.5087 107.849 13.6552 107.849 12.5883C107.849 11.5215 108.698 10.668 109.76 10.668H110.609C111.67 10.8813 112.519 11.7348 112.519 12.8017C112.519 13.8686 111.67 14.5087 110.609 14.5087Z" fill="white"/>
<path d="M108.06 183.287H107.211C106.149 183.287 105.3 182.434 105.3 181.367C105.3 180.3 106.149 179.446 107.211 179.446H107.848C108.909 179.446 109.758 180.3 109.758 181.367C109.758 182.434 109.121 183.287 108.06 183.287ZM99.7803 182.86H98.7188C97.6573 182.647 97.0204 181.794 97.0204 180.727C97.2327 179.66 98.0819 179.02 99.1434 179.02H99.7803C100.842 179.233 101.479 180.087 101.479 181.153C101.691 182.22 100.842 182.86 99.7803 182.86ZM91.9252 181.58C91.7129 181.58 91.7129 181.58 91.5006 181.58L90.6514 181.367C89.5899 181.153 88.953 180.087 89.1653 179.02C89.3776 177.953 90.4391 177.313 91.5006 177.526L92.1375 177.739C93.199 177.953 93.8359 179.02 93.6236 180.087C93.4113 180.94 92.7744 181.58 91.9252 181.58ZM84.0702 179.233C83.8579 179.233 83.6456 179.233 83.4333 179.233C83.221 179.233 83.0087 179.02 82.7964 179.02C81.7349 178.593 81.3103 177.526 81.7349 176.673C82.1595 175.606 83.221 175.179 84.0702 175.606C84.2825 175.606 84.4948 175.819 84.7071 175.819C85.7686 176.246 86.1932 177.313 85.7686 178.166C85.5563 178.806 84.7071 179.233 84.0702 179.233ZM76.4274 176.032C76.2151 176.032 75.7905 176.032 75.5782 175.819C75.3659 175.606 75.1536 175.606 74.9413 175.392C74.0921 174.966 73.6675 173.899 74.0921 172.832C74.5167 171.978 75.5782 171.552 76.6397 171.978C76.852 172.192 77.0643 172.192 77.2766 172.192C78.1258 172.618 78.5504 173.685 78.1258 174.752C77.9135 175.819 77.2766 176.032 76.4274 176.032ZM69.4215 172.192C68.9969 172.192 68.7846 172.192 68.36 171.978L67.7231 171.552C66.8739 170.912 66.6616 169.845 67.0862 168.991C67.7231 168.138 68.7846 167.924 69.6338 168.351L70.2707 168.778C71.1199 169.418 71.3322 170.485 70.9076 171.338C70.6953 171.765 70.0584 172.192 69.4215 172.192ZM62.8402 167.498C62.4156 167.498 61.991 167.284 61.7788 167.071C61.5665 166.857 61.3542 166.857 61.1419 166.644C60.2927 166.004 60.2927 164.724 60.9296 164.084C61.5665 163.23 62.8402 163.23 63.4771 163.87C63.6894 164.084 63.9017 164.084 64.114 164.297C64.9632 164.937 64.9632 166.217 64.3263 166.857C63.9017 167.284 63.2648 167.498 62.8402 167.498ZM56.6836 161.95C56.259 161.95 55.8344 161.736 55.4098 161.31L54.7729 160.67C54.136 160.03 54.136 158.749 54.7729 158.109C55.4098 157.469 56.6836 157.469 57.3205 158.109L57.7451 158.536C58.382 159.176 58.382 160.456 57.7451 161.096C57.7451 161.736 57.1082 161.95 56.6836 161.95ZM51.3761 155.975C50.7392 155.975 50.3146 155.762 49.89 155.335C49.6777 155.122 49.6777 154.909 49.4654 154.695C48.8285 153.842 49.0408 152.775 49.89 152.135C50.7392 151.495 51.8007 151.708 52.4376 152.561C52.6499 152.775 52.6499 152.988 52.8622 153.202C53.4991 154.055 53.2868 155.122 52.6499 155.762C52.013 155.762 51.5884 155.975 51.3761 155.975ZM46.4932 149.148C45.8563 149.148 45.2194 148.934 45.0071 148.294C44.7948 148.081 44.7948 147.867 44.5825 147.654C43.9456 146.8 44.3702 145.52 45.2194 145.093C46.0686 144.453 47.3424 144.88 47.767 145.734L48.1916 146.374C48.8285 147.227 48.4039 148.507 47.5547 148.934C47.3424 149.148 46.9178 149.148 46.4932 149.148ZM42.6718 142.106C42.0349 142.106 41.398 141.679 40.9734 141.039C40.7611 140.826 40.7611 140.613 40.5488 140.399C40.1242 139.546 40.5488 138.266 41.398 137.839C42.2472 137.412 43.521 137.839 43.9456 138.692L44.1579 139.332C44.5825 140.186 44.1579 141.466 43.3087 141.893C43.0964 142.106 42.8841 142.106 42.6718 142.106ZM39.4873 134.638C38.6381 134.638 38.0012 134.211 37.7889 133.358L37.5767 132.718C37.1521 131.651 37.789 130.584 38.6381 130.371C39.6996 129.944 40.7611 130.584 40.9734 131.438L41.1857 132.078C41.6103 133.145 40.9734 134.211 40.1242 134.425C39.9119 134.425 39.6996 134.638 39.4873 134.638ZM37.1521 126.743C36.3029 126.743 35.4537 126.103 35.2414 125.25L35.0291 124.61C34.8168 123.543 35.4537 122.689 36.5152 122.476C37.5767 122.263 38.4258 122.903 38.6381 123.97L38.8504 124.61C39.0627 125.677 38.4258 126.53 37.3644 126.957C37.5767 126.743 37.3644 126.743 37.1521 126.743ZM35.8783 118.635C35.0291 118.635 34.1799 117.995 33.9676 116.928C33.9676 116.715 33.9676 116.501 33.9676 116.075C33.9676 115.008 34.6045 114.154 35.666 113.941C36.7275 113.941 37.5766 114.581 37.7889 115.648C37.7889 115.861 37.7889 116.075 37.7889 116.288C37.7889 117.568 37.1521 118.422 35.8783 118.635C36.0906 118.635 35.8783 118.635 35.8783 118.635ZM35.4537 110.527C34.3922 110.527 33.543 109.674 33.543 108.607V107.753C33.543 106.686 34.3922 105.833 35.4537 105.833C36.5152 105.833 37.3644 106.686 37.3644 107.753V108.393C37.3644 109.674 36.5152 110.527 35.4537 110.527ZM35.8783 102.419C35.8783 102.419 35.666 102.419 35.8783 102.419C34.6045 102.206 33.9676 101.352 33.9676 100.285V99.4317C34.1799 98.3648 35.0291 97.7247 36.0906 97.7247C37.1521 97.9381 37.7889 98.7916 37.7889 99.8584V100.499C37.5766 101.565 36.7275 102.419 35.8783 102.419ZM37.1521 94.3107C36.9398 94.3107 36.9398 94.3107 36.7275 94.3107C35.666 94.0974 35.0291 93.0305 35.2414 91.9636L35.4537 91.3235C35.666 90.2567 36.7275 89.6165 37.7889 89.8299C38.8504 90.0433 39.4873 91.1101 39.275 92.177L39.0627 92.8171C38.8504 93.6706 38.0012 94.3107 37.1521 94.3107ZM39.4873 86.4159C39.275 86.4159 39.0627 86.4159 38.8504 86.4159C37.7889 85.9892 37.3644 84.9223 37.7889 84.0688L38.0012 83.4287C38.4258 82.3619 39.4873 81.9351 40.3365 82.3619C41.398 82.7886 41.8226 83.8555 41.398 84.709L41.1857 85.3491C40.9734 85.9892 40.1242 86.4159 39.4873 86.4159ZM42.4595 78.9479C42.2472 78.9479 41.8226 78.9479 41.6103 78.7345C40.7611 78.3078 40.3365 77.2409 40.7611 76.1741C40.9734 75.9607 40.9734 75.7473 41.1857 75.5339C41.6103 74.6805 42.6718 74.2537 43.7333 74.6804C44.5825 75.1072 45.0071 76.1741 44.5825 77.2409L44.3702 77.881C43.9456 78.5212 43.3087 78.9479 42.4595 78.9479ZM46.4932 71.6932C46.0686 71.6932 45.8563 71.6932 45.4317 71.4799C44.5825 70.8397 44.3702 69.7729 44.7948 68.9194C45.0071 68.706 45.0071 68.4926 45.2194 68.2793C45.8563 67.4258 46.9178 67.2124 47.767 67.6391C48.6162 68.2793 48.8285 69.3461 48.4039 70.1996C48.1916 70.413 48.1916 70.6264 47.9793 70.8397C47.767 71.4799 47.1301 71.6932 46.4932 71.6932ZM51.1638 65.0787C50.7392 65.0787 50.3146 64.8653 50.1023 64.6519C49.2531 64.0118 49.2531 62.7316 49.89 62.0915C50.1023 61.8781 50.1023 61.6647 50.3146 61.4513C50.9515 60.5978 52.2253 60.5979 52.8622 61.238C53.7114 61.8781 53.7114 63.1583 53.0745 63.7984C52.8622 64.0118 52.8622 64.2252 52.6499 64.4386C52.2253 64.8653 51.8007 65.0787 51.1638 65.0787ZM56.6836 58.8909C56.259 58.8909 55.8344 58.6775 55.4098 58.2507C54.7729 57.6106 54.7729 56.3304 55.4098 55.6903L56.0467 55.0502C56.6836 54.41 57.9574 54.41 58.5943 55.0502C59.2312 55.6903 59.2312 56.9705 58.5943 57.6106L58.1697 58.0374C57.5328 58.6775 57.1082 58.8909 56.6836 58.8909ZM62.6279 53.5566C61.991 53.5566 61.5664 53.3432 61.1419 52.9164C60.505 52.0629 60.7173 50.9961 61.3542 50.356L61.9911 49.9292C62.8402 49.2891 63.9017 49.5025 64.5386 50.1426C65.1755 50.9961 64.9632 52.0629 64.3263 52.7031L63.6894 53.1298C63.4771 53.3432 63.0525 53.5566 62.6279 53.5566ZM69.2092 48.649C68.5723 48.649 67.9354 48.4356 67.7231 47.7955C67.0862 46.942 67.5108 45.6618 68.36 45.235L68.9969 44.8083C69.8461 44.1682 71.1199 44.5949 71.5445 45.4484C72.1814 46.3019 71.7568 47.5821 70.9076 48.0089L70.2707 48.4356C70.0584 48.649 69.6338 48.649 69.2092 48.649ZM76.4274 44.8083C75.7905 44.8083 75.1536 44.3815 74.729 43.7414C74.3044 42.8879 74.729 41.6077 75.5782 41.1809C75.7905 40.9676 76.0028 40.9676 76.2151 40.7542C77.0643 40.3274 78.3381 40.7542 78.7627 41.6077C79.1873 42.4612 78.7627 43.7414 77.9135 44.1682C77.7012 44.1682 77.4889 44.3815 77.2766 44.3815C76.852 44.8083 76.6397 44.8083 76.4274 44.8083ZM83.8579 41.6077C83.0087 41.6077 82.3718 41.1809 82.1595 40.3274C81.7349 39.2606 82.3718 38.1937 83.221 37.9803L83.8579 37.767C84.9194 37.3402 85.9808 37.9803 86.1931 38.8338C86.6177 39.9007 85.9808 40.9676 85.1316 41.1809L84.4948 41.3943C84.2825 41.6077 84.0702 41.6077 83.8579 41.6077ZM91.7129 39.2606C90.8637 39.2606 90.0145 38.6205 89.8022 37.767C89.5899 36.7001 90.2268 35.8466 91.2883 35.4199C91.5006 35.4199 91.7129 35.2065 92.1375 35.2065C93.199 34.9931 94.0482 35.6332 94.2605 36.7001C94.4728 37.767 93.8359 38.6205 92.7744 38.8338C92.5621 38.8338 92.3498 38.8338 92.1375 39.0472C91.9252 39.2606 91.9252 39.2606 91.7129 39.2606ZM99.7803 37.9803C98.9311 37.9803 98.0819 37.3402 97.8696 36.2734C97.6573 35.2065 98.5065 34.353 99.568 34.1396C99.7803 34.1396 99.9926 34.1396 100.417 34.1396C101.479 33.9263 102.328 34.7798 102.54 35.8466C102.54 36.9135 101.903 37.767 100.842 37.9803C100.417 37.9803 100.205 37.9803 99.7803 37.9803ZM108.485 37.5536H107.848C106.786 37.5536 105.937 36.7001 105.937 35.6332C105.937 34.5664 106.786 33.7129 107.848 33.7129H108.697C109.758 33.7129 110.608 34.5664 110.608 35.6332C110.395 36.7001 109.546 37.5536 108.485 37.5536Z" fill="white"/>
</g>
</svg>
