<svg width="217" height="136" viewBox="0 0 217 136" fill="none" xmlns="http://www.w3.org/2000/svg">
<g clip-path="url(#clip0_371_5287)">
<path d="M216.143 102.65C216.143 120.798 201.413 135.498 183.23 135.498C165.046 135.498 150.316 120.798 150.316 102.65C150.316 84.5035 165.046 69.8032 183.23 69.8032C201.413 69.8032 216.143 84.5263 216.143 102.65ZM183.23 83.0197C172.365 83.0197 163.559 91.8079 163.559 102.65C163.559 113.493 172.365 122.281 183.23 122.281C194.094 122.281 202.9 113.493 202.9 102.65C202.9 91.8079 194.094 83.0197 183.23 83.0197Z" fill="white"/>
<path d="M138.057 114.292V45.0364H124.311V114.999C124.311 114.999 125.934 135.566 149.813 136.023V122.304C149.813 122.304 140.024 122.692 138.057 114.292Z" fill="white"/>
<path d="M94.2335 70.1683C114.338 70.7161 117.289 85.7131 117.289 89.6849C117.289 93.6567 117.289 134.311 117.289 134.311H103.291V127.486C92.0835 138.648 78.9548 136 72.9851 133.923C61.6633 129.951 58.1639 111.073 69.0053 102.468C79.8468 93.8622 103.268 95.3459 103.268 95.3459C103.588 93.4969 102.49 82.8826 91.1686 82.1065C79.8468 81.3304 72.1617 89.0686 72.1617 89.0686L64.7054 79.55C73.2825 70.2368 85.9308 69.94 94.2335 70.1683ZM103.542 105.641C103.542 105.641 86.9372 105.184 79.9383 108.905C72.9622 112.625 74.3575 125.02 86.7771 124.472C99.1967 123.925 103.474 117.876 103.542 105.641Z" fill="white"/>
<path d="M42.9312 43.918V82.9284C39.0887 80.737 39.2717 80.0751 34.194 79.9381C31.4036 79.8696 14.4095 79.9381 14.4095 79.9381V43.918H0V134.744H14.3867V94.296H32.1355C32.1355 94.296 42.5653 97.2177 42.9312 106.234V107.193C42.9084 107.741 42.9084 108.129 42.9312 108.403V134.744H57.3179V43.918H42.9312Z" fill="white"/>
<path d="M133.94 11.0708C135.678 9.90668 137.211 9.22189 138.194 9.22189C138.903 9.22189 139.521 9.79255 139.521 10.5458C139.521 11.8698 139.521 15.4992 139.521 15.4992C141.74 12.8285 146.726 8.92514 152.97 6.93924V1.30111C152.97 0.570661 152.375 0 151.666 0H131.79C131.058 0 130.486 0.593488 130.486 1.30111V13.6959C131.561 12.7828 132.751 11.8698 133.94 11.0708Z" fill="white"/>
<path d="M139.589 20.4068C138.743 21.3655 138.331 22.1188 137.462 22.1188C136.707 22.1188 136.136 21.5025 136.136 20.7492C136.136 19.0144 136.136 14.5632 136.136 13.81C136.136 13.81 134.397 14.6774 131.332 17.2339C131.012 17.5078 130.715 17.7589 130.44 17.9872V27.1863C130.44 27.9167 131.035 28.4874 131.744 28.4874H151.643C152.375 28.4874 152.947 27.8939 152.947 27.1863V10.7056C146.337 13.1023 141.694 17.9872 139.589 20.4068Z" fill="white"/>
<path d="M9.60599 20.9319C11.4815 20.9319 12.9225 20.4297 14.3634 19.7221V22.9863C13.0368 23.5569 11.1156 24.0135 9.24003 24.0135C3.59058 24.0135 0.182617 20.0873 0.182617 14.6774C0.182617 8.21756 4.82569 5.3186 9.2629 5.3186C10.9097 5.3186 13.014 5.56969 14.3634 6.23166V9.49584C12.9682 8.83388 11.4586 8.37735 9.60599 8.37735C6.7927 8.37735 3.88792 10.135 3.88792 14.6774C3.88792 19.1743 6.74695 20.9319 9.60599 20.9319Z" fill="white"/>
<path d="M19.5328 12.0296C20.3105 10.6828 21.7743 9.95236 23.4211 9.95236C26.6461 9.95236 28.0642 11.9154 28.0642 15.2024V23.6482H24.6105V15.9557C24.6105 14.2209 24.2445 12.7144 22.3004 12.7144C20.036 12.7144 19.5328 14.5633 19.5328 16.6633V23.6482H16.0791V4.86206H19.5328V12.0296V12.0296Z" fill="white"/>
<path d="M32.7752 17.8047C33.0039 19.9504 34.4906 21.2058 36.8922 21.2058C38.2416 21.2058 39.5911 20.8634 40.9863 20.1102V23.0091C40.0714 23.4885 38.4017 23.9907 36.2975 23.9907C31.6315 23.9907 29.3672 20.7721 29.3672 16.9145C29.3672 12.9198 32.0204 9.90674 35.8629 9.90674C40.0714 9.90674 42.0155 13.0796 41.9698 17.8047H32.7752ZM32.6837 15.6134H38.6305C38.539 13.2394 37.2124 12.4176 35.7257 12.4176C34.422 12.4176 32.798 13.0568 32.6837 15.6134Z" fill="white"/>
<path d="M50.0214 9.95239C50.8905 9.95239 52.2171 10.0437 52.8804 10.3861V13.1937C52.2628 12.9198 51.348 12.7144 50.3873 12.7144C48.1687 12.7144 46.5219 14.084 46.5219 16.9829C46.5219 19.8819 48.1687 21.2058 50.3873 21.2058C51.4623 21.2058 52.4687 20.8863 53.132 20.5895V23.3972C52.4001 23.6939 51.0049 23.9678 50.0214 23.9678C45.4012 23.9678 43.0225 20.7265 43.0225 16.9601C43.0453 13.2166 45.4469 9.95239 50.0214 9.95239Z" fill="white"/>
<path d="M58.0719 4.86206V16.3209L62.7836 10.2719H66.466L61.4112 16.5492L67.3809 23.6711H63.1038L58.0719 17.7134V23.6711H54.6182V4.86206H58.0719Z" fill="white"/>
<path d="M68.0215 28.5102V10.2718H71.4752V11.9838C72.2071 10.7284 73.6481 9.9751 75.3406 9.9751C78.68 9.9751 81.1044 12.7599 81.1044 16.9828C81.1044 21.2742 78.6113 24.0134 75.3177 24.0134C73.9225 24.0134 72.3215 23.4655 71.4752 22.0046V28.5558H68.0215V28.5102ZM77.4677 16.9828C77.4677 14.3578 76.347 12.6001 74.4715 12.6001C72.5731 12.6001 71.338 14.2665 71.338 16.96C71.338 19.6992 72.5959 21.3427 74.4715 21.3427C76.347 21.3427 77.4677 19.6079 77.4677 16.9828Z" fill="white"/>
<path d="M82.1797 16.9829C82.1797 12.2807 85.3589 9.95239 88.8355 9.95239C92.3121 9.95239 95.4914 12.2579 95.4914 16.9829C95.4914 21.6852 92.3121 23.9907 88.8355 23.9907C85.3589 23.9907 82.1797 21.6852 82.1797 16.9829ZM85.6792 16.9829C85.6792 19.7678 86.8456 21.2971 88.8584 21.2971C90.8712 21.2971 92.0377 19.7678 92.0377 16.9829C92.0377 14.1753 90.8712 12.6459 88.8584 12.6459C86.8456 12.6459 85.6792 14.1753 85.6792 16.9829Z" fill="white"/>
<path d="M100.226 4.86206V8.05776H96.7725V4.86206H100.226V4.86206ZM100.226 10.2719V23.6711H96.7725V10.2719H100.226Z" fill="white"/>
<path d="M105.784 12.0296C106.561 10.6828 108.025 9.95239 109.672 9.95239C112.897 9.95239 114.315 11.9155 114.315 15.2025V23.6483H110.861V15.9557C110.861 14.2209 110.495 12.7144 108.551 12.7144C106.287 12.7144 105.784 14.5633 105.784 16.6634V23.6483H102.33V10.272H105.784V12.0296V12.0296Z" fill="white"/>
<path d="M117.335 12.623H115.185V10.2719H117.335V6.61963H120.765V10.2719H123.807V12.6458H120.765V19.5394C120.765 20.909 121.086 21.2742 122.206 21.2742C122.71 21.2742 123.098 21.2286 123.739 21.1601V23.8764C122.961 23.9677 122.481 23.9906 121.749 23.9906C118.547 23.9906 117.335 22.621 117.335 19.6992V12.623Z" fill="white"/>
<path d="M123.808 6.55122C123.808 5.61533 124.54 4.86206 125.5 4.86206C126.438 4.86206 127.17 5.61533 127.17 6.55122C127.17 7.50993 126.438 8.24038 125.5 8.24038C124.54 8.24038 123.808 7.4871 123.808 6.55122ZM126.918 6.55122C126.918 5.75229 126.278 5.09033 125.477 5.09033C124.677 5.09033 124.036 5.72947 124.036 6.55122C124.036 7.37297 124.677 8.01211 125.477 8.01211C126.278 7.98928 126.918 7.35014 126.918 6.55122ZM124.86 5.59251H125.523C125.958 5.59251 126.186 5.77512 126.186 6.14034C126.186 6.43709 126.026 6.59687 125.798 6.66535L126.232 7.4871H125.912L125.5 6.711H125.134V7.4871H124.837V5.59251H124.86ZM125.5 6.43709C125.752 6.43709 125.889 6.36861 125.889 6.14034C125.889 5.9349 125.729 5.8436 125.477 5.8436H125.134V6.43709H125.5Z" fill="white"/>
</g>
<defs>
<clipPath id="clip0_371_5287">
<rect width="216.143" height="136" fill="white"/>
</clipPath>
</defs>
</svg>
