<svg width="312" height="33" viewBox="0 0 312 33" fill="none" xmlns="http://www.w3.org/2000/svg">
<path d="M5.03677 25.9949H0V2.19531H5.03677V25.9949Z" fill="white"/>
<path d="M14.83 3.875V8.35493H17.9081V11.7149H14.83V20.6747C14.83 21.2347 14.83 21.7947 15.1098 22.0747C15.3897 22.3547 15.9493 22.3547 16.7888 22.3547C17.3484 22.3547 17.9081 22.3547 18.1879 22.3547V25.9947C17.3484 26.2746 16.2291 26.5546 15.3897 26.5546C12.0318 26.5546 10.3529 24.8747 10.3529 21.5147V11.7149H7.55469V8.35493H10.0731V3.875H14.83Z" fill="white"/>
<path d="M28.5416 26.2746C26.0232 26.2746 24.0645 25.7146 22.3856 24.0347C20.7066 22.3547 19.8672 20.3947 19.8672 17.5948V17.0348C19.8672 15.3548 20.147 13.6748 20.9865 12.2749C21.8259 10.8749 22.6654 9.75489 23.7847 8.9149C24.904 8.07492 26.5829 7.79492 27.982 7.79492C30.5004 7.79492 32.1793 8.63491 33.5784 10.0349C34.9775 11.4349 35.5371 13.6748 35.5371 16.4748V18.4348H24.3443C24.6241 19.5547 24.904 20.3947 25.7434 21.2347C26.5829 22.0747 27.4223 22.3547 28.5416 22.3547C30.5004 22.3547 31.8995 21.7947 32.7389 20.3947L34.9775 22.9147C34.138 24.0347 33.2986 24.5947 32.1793 25.1547C31.06 25.7146 30.2205 26.2746 28.5416 26.2746ZM28.2618 11.7149C27.1425 11.7149 26.3031 11.9949 25.7434 12.8348C25.1838 13.6748 24.904 14.5148 24.6241 15.6348H31.3398V15.0748C31.3398 13.9548 31.06 13.1148 30.5004 12.5548C29.9407 11.9949 29.1013 11.7149 28.2618 11.7149Z" fill="white"/>
<path d="M43.0918 8.35617L43.3717 10.3161C44.4909 8.63616 46.4497 8.07617 48.4084 8.07617C50.647 8.07617 52.3259 8.91616 53.1654 10.8761C54.2847 9.19615 56.2434 8.07617 58.482 8.07617C60.4407 8.07617 61.8398 8.63616 62.6793 9.75615C63.5187 10.8761 64.0784 12.5561 64.0784 14.7961V25.9959H59.3214V14.7961C59.3214 13.6761 59.0416 13.1161 58.7618 12.5561C58.482 11.9961 57.6425 11.7161 56.5232 11.7161C55.1241 11.7161 54.0048 12.2761 53.4452 13.6761V25.9959H48.6883V14.7961C48.6883 13.6761 48.4084 13.1161 48.1286 12.5561C47.8488 11.9961 47.2892 11.7161 46.4497 11.7161C45.0506 11.7161 44.2111 12.2761 43.6515 13.3961V25.9959H38.8945V8.35617H43.0918Z" fill="white"/>
<path d="M87.5831 14.7958C87.5831 17.0358 87.3033 19.2757 86.4639 20.9557C85.6244 22.6357 84.5051 24.0357 82.8262 25.1557C81.1473 26.2756 79.4684 26.5556 77.5096 26.5556C75.5509 26.5556 73.8719 25.9956 72.193 25.1557C70.5141 24.3157 69.3948 22.9157 68.5554 20.9557C67.7159 18.9958 67.1562 17.0358 67.1562 14.7958V13.6758C67.1562 11.4359 67.7159 9.1959 68.5554 7.51593C69.3948 5.83596 70.5141 4.43598 72.193 3.31599C73.8719 2.19601 75.5509 1.91602 77.5096 1.91602C79.4684 1.91602 81.1473 2.19601 82.8262 3.31599C84.5051 4.43598 85.6244 5.55596 86.4639 7.51593C87.3033 9.4759 87.863 11.4359 87.863 13.6758V14.7958H87.5831ZM82.5464 13.6758C82.5464 11.1559 81.9867 9.1959 81.1473 8.07592C80.3078 6.95594 78.9087 6.11595 77.2298 6.11595C75.5509 6.11595 74.4316 6.67594 73.3123 8.07592C72.193 9.4759 71.9132 11.1559 71.9132 13.6758V14.7958C71.9132 17.3158 72.4728 18.9958 73.3123 20.3957C74.1518 21.7957 75.5509 22.3557 77.2298 22.3557C78.9087 22.3557 80.028 21.7957 81.1473 20.3957C82.2666 18.9958 82.5464 17.3158 82.5464 14.7958V13.6758Z" fill="white"/>
<path d="M106.892 17.316C106.892 20.116 106.332 22.356 104.933 23.7559C103.534 25.1559 102.135 26.2759 99.8962 26.2759C98.2173 26.2759 96.5383 25.7159 95.4191 24.3159V32.7158H90.6621V8.35617H95.1392L95.4191 10.0361C96.5383 8.63616 97.9374 8.07617 99.8962 8.07617C102.135 8.07617 103.814 8.91616 104.933 10.5961C106.052 12.2761 106.892 14.2361 106.892 17.316ZM102.135 17.036C102.135 15.3561 101.855 14.2361 101.295 13.1161C100.736 11.9961 99.8962 11.7161 98.7769 11.7161C97.3778 11.7161 96.2585 12.2761 95.6989 13.3961V20.676C96.2585 21.796 97.3778 22.356 98.7769 22.356C101.015 22.6359 102.135 20.676 102.135 17.036Z" fill="white"/>
<path d="M115.566 3.875V8.35493H118.644V11.7149H115.566V20.6747C115.566 21.2347 115.566 21.7947 115.846 22.0747C116.126 22.3547 116.686 22.6347 117.245 22.6347C117.805 22.6347 118.365 22.6347 118.644 22.6347V26.2747C117.805 26.5546 116.686 26.8346 115.846 26.8346C112.488 26.8346 110.809 25.1547 110.809 21.7947V11.7149H108.291V8.35493H110.809V3.875H115.566Z" fill="white"/>
<path d="M121.162 3.59543C121.162 2.75545 121.442 2.19546 122.002 1.91546C122.561 1.63546 123.121 1.35547 123.96 1.35547C124.8 1.35547 125.359 1.63546 125.919 1.91546C126.479 2.19546 126.759 3.03544 126.759 3.59543C126.759 4.43542 126.479 4.99541 125.919 5.27541C125.359 5.5554 124.52 6.1154 123.68 6.1154C122.841 6.1154 122.281 5.8354 121.722 5.5554C121.162 5.27541 121.162 4.43542 121.162 3.59543ZM126.199 25.9951H121.442V8.35536H126.199V25.9951Z" fill="white"/>
<path d="M136.832 13.6754L139.91 8.35547H144.946L139.91 17.0353L145.226 25.9952H139.91L136.832 20.3953L133.754 25.9952H128.717L134.033 17.0353L128.717 8.35547H133.754L136.832 13.6754Z" fill="white"/>
<path d="M146.906 14.2358C146.906 11.9959 147.466 10.0359 148.305 8.07592C149.145 6.11595 150.824 4.71597 152.503 3.59599C154.182 2.47601 156.14 1.91602 158.379 1.91602C160.617 1.91602 162.296 2.47601 164.255 3.59599C166.214 4.71597 167.333 6.11595 168.452 8.07592C169.572 10.0359 169.852 11.9959 169.852 14.2358C169.852 16.4758 169.292 18.4358 168.452 20.3957C167.613 22.3557 165.934 23.7557 164.255 24.8757C162.576 25.9956 160.338 26.5556 158.379 26.5556C156.14 26.5556 154.182 25.9956 152.503 24.8757C150.824 23.7557 149.425 22.0757 148.305 20.1157C147.186 18.1558 146.906 16.1958 146.906 14.2358ZM148.585 13.9558C148.585 15.9158 149.145 17.5958 149.984 19.2757C150.824 20.9557 151.943 22.0757 153.622 22.9157C155.301 23.7557 156.7 24.3157 158.379 24.3157C160.058 24.3157 161.737 23.7557 163.416 22.9157C164.815 22.0757 166.214 20.6757 167.053 19.2757C167.893 17.5958 168.452 15.9158 168.452 13.9558C168.452 11.9959 167.893 10.3159 167.053 8.91591C166.214 7.23593 165.095 6.11595 163.416 5.27596C162.017 4.43598 160.338 3.87599 158.379 3.87599C156.7 3.87599 155.021 4.43598 153.622 5.27596C152.223 6.11595 150.824 7.51593 149.984 8.91591C149.145 10.5959 148.585 12.2759 148.585 13.9558ZM156.14 15.3558V20.9557H153.902V6.95594H158.379C160.058 6.95594 161.457 7.23593 162.296 8.07592C163.136 8.91591 163.695 9.75589 163.695 11.1559C163.695 12.5559 163.136 13.3958 161.457 14.2358C162.856 14.7958 163.416 15.9158 163.416 17.5958V18.7158C163.416 19.5557 163.416 20.3957 163.695 20.6757V20.9557H161.457C161.177 20.6757 161.177 19.8357 161.177 18.7158C161.177 17.5958 161.177 17.0358 161.177 17.0358C160.897 15.9158 160.338 15.3558 158.939 15.3558H156.14ZM156.14 13.1158H158.659C159.498 13.1158 160.058 12.8358 160.617 12.5559C161.177 12.2759 161.457 11.7159 161.457 11.1559C161.457 10.3159 161.177 9.75589 160.897 9.4759C160.058 9.1959 159.498 8.91591 158.379 8.91591H156.14V13.1158Z" fill="white"/>
<path d="M183.843 25.9952V10.5955H181.045V8.3555H183.843V6.39553C183.843 4.43556 184.403 3.03559 185.242 1.9156C186.082 0.795621 187.761 0.515625 189.719 0.515625C190.279 0.515625 191.118 0.515625 191.678 0.795621V3.31558C191.118 3.31558 190.559 3.03559 189.999 3.03559C188.88 3.03559 188.32 3.31558 187.761 3.87557C187.201 4.43556 186.921 5.27555 186.921 6.39553V8.3555H190.839V10.5955H186.921V25.9952H183.843Z" fill="white"/>
<path d="M193.076 17.036C193.076 15.3561 193.356 13.6761 194.195 12.2761C195.035 10.8761 195.874 9.75615 196.994 9.19615C198.113 8.63616 199.512 8.07617 201.191 8.07617C203.709 8.07617 205.668 8.91616 207.067 10.5961C208.466 12.2761 209.306 14.5161 209.306 17.316C209.306 18.996 209.026 20.676 208.187 22.076C207.347 23.4759 206.508 24.5959 205.388 25.1559C204.269 25.7159 202.87 26.2759 201.191 26.2759C198.673 26.2759 196.714 25.4359 195.315 23.7559C193.916 22.076 193.076 20.116 193.076 17.036ZM196.154 17.316C196.154 19.276 196.714 20.956 197.553 22.076C198.393 23.1959 199.792 23.7559 201.191 23.7559C202.87 23.7559 203.989 23.1959 204.829 22.076C205.668 20.956 206.228 19.276 206.228 17.036C206.228 15.0761 205.668 13.3961 204.829 12.2761C203.989 11.1561 202.59 10.5961 201.191 10.5961C199.792 10.5961 198.393 11.1561 197.553 12.2761C196.714 13.3961 196.154 15.0761 196.154 17.316Z" fill="white"/>
<path d="M221.617 11.1561C221.058 11.1561 220.778 11.1561 220.218 11.1561C218.259 11.1561 216.86 11.9961 216.301 13.6761V26.2759H213.223V8.35617H216.301V10.3161C217.42 8.63616 218.819 8.07617 220.498 8.07617C221.058 8.07617 221.617 8.07617 221.897 8.35617V11.1561H221.617Z" fill="white"/>
<path d="M242.046 16.4751H236.449V26.2749H233.371V2.19531H241.206C244.004 2.19531 245.963 2.7553 247.362 4.15528C248.761 5.55526 249.601 7.23523 249.601 9.4752C249.601 10.8752 249.321 12.2752 248.481 13.3951C247.642 14.5151 246.523 15.3551 245.124 15.9151L250.72 25.9949V26.2749H247.362L242.046 16.4751ZM236.449 13.9551H241.206C242.885 13.9551 244.004 13.6751 244.844 12.8351C245.683 11.9952 246.243 10.8752 246.243 9.4752C246.243 8.07522 245.683 6.95524 244.844 6.11525C244.004 5.27526 242.605 4.99527 240.926 4.99527H236.169V13.9551H236.449Z" fill="white"/>
<path d="M260.793 26.2746C258.274 26.2746 256.315 25.4346 254.916 24.0347C253.517 22.6347 252.678 20.3947 252.678 17.5948V17.0348C252.678 15.3548 252.958 13.6748 253.797 12.2749C254.636 10.8749 255.476 9.75489 256.595 8.9149C257.714 8.07492 259.114 7.79492 260.513 7.79492C262.751 7.79492 264.71 8.63491 265.829 10.0349C266.949 11.4349 267.788 13.6748 267.788 16.4748V17.8748H255.756C255.756 19.5547 256.315 20.9547 257.155 22.0747C257.994 23.1947 259.393 23.7547 260.793 23.7547C261.912 23.7547 262.751 23.4747 263.591 23.1947C264.43 22.9147 264.99 22.0747 265.549 21.5147L267.508 22.9147C266.109 25.1547 263.871 26.2746 260.793 26.2746ZM260.513 10.5949C259.393 10.5949 258.274 11.1549 257.435 11.9949C256.595 12.8348 256.036 14.2348 255.756 15.6348H264.71V15.3548C264.71 13.6748 264.15 12.5548 263.591 11.7149C263.031 10.8749 261.632 10.5949 260.513 10.5949Z" fill="white"/>
<path d="M275.344 3.875V8.07493H278.702V10.3149H275.344V21.2347C275.344 22.0747 275.624 22.3547 275.904 22.9147C276.184 23.1947 276.743 23.4747 277.303 23.4747C277.583 23.4747 278.142 23.4747 278.702 23.1947V25.7147C277.862 25.9947 277.023 25.9947 276.463 25.9947C275.064 25.9947 274.225 25.7147 273.385 24.8747C272.546 24.0347 272.266 22.9147 272.266 21.5147V10.5949H268.908V8.35493H272.266V3.875H275.344Z" fill="white"/>
<path d="M293.252 25.9959C292.972 25.7159 292.972 25.1559 292.692 24.0359C291.293 25.4359 289.614 26.2759 287.656 26.2759C285.977 26.2759 284.578 25.7159 283.458 24.8759C282.339 24.0359 281.779 22.6359 281.779 21.236C281.779 19.276 282.339 17.876 284.018 17.036C285.697 16.196 287.376 15.6361 289.894 15.6361H292.972V13.9561C292.972 12.8361 292.692 11.9961 292.133 11.4361C291.573 10.8761 290.454 10.5961 289.334 10.5961C288.215 10.5961 287.376 10.8761 286.536 11.4361C285.697 11.9961 285.417 12.5561 285.417 13.3961H282.339C282.339 12.5561 282.619 11.7161 283.178 10.8761C283.738 10.0361 284.578 9.47615 285.697 8.91616C286.816 8.35617 287.935 8.07617 289.334 8.07617C291.293 8.07617 292.972 8.63616 294.091 9.47615C295.211 10.3161 295.77 11.9961 295.77 13.6761V21.796C295.77 23.4759 296.05 24.5959 296.33 25.7159V25.9959H293.252ZM288.215 23.7559C289.055 23.7559 290.174 23.4759 291.013 22.9159C291.853 22.3559 292.412 21.796 292.972 20.956V17.316H290.734C287.096 17.316 285.137 18.436 285.137 20.676C285.137 21.516 285.417 22.3559 285.977 22.9159C286.536 23.4759 287.096 23.7559 288.215 23.7559Z" fill="white"/>
<path d="M300.527 3.59599C300.527 3.036 300.807 2.756 301.087 2.47601C301.367 2.19601 301.926 1.91602 302.486 1.91602C303.046 1.91602 303.605 2.19601 303.885 2.47601C304.165 2.756 304.445 3.31599 304.445 3.59599C304.445 3.87599 304.165 4.43598 303.885 4.71597C303.605 4.99597 303.046 5.27596 302.486 5.27596C301.926 5.27596 301.367 4.99597 301.087 4.71597C300.807 4.43598 300.527 4.15598 300.527 3.59599ZM303.885 25.9956H300.807V8.35592H303.885V25.9956Z" fill="white"/>
<path d="M312 25.9945H308.922V0.794922H312V25.9945Z" fill="white"/>
</svg>
