<svg width="122" height="162" viewBox="0 0 122 162" fill="none" xmlns="http://www.w3.org/2000/svg">
<g opacity="0.2">
<path d="M57.5224 -15.1962L56.2695 -13.9434L116.064 45.8511L117.317 44.5982L57.5224 -15.1962Z" fill="white"/>
<path d="M28.6376 -19.0009L27.3848 -17.748L119.867 74.734L121.12 73.4812L28.6376 -19.0009Z" fill="white"/>
<path d="M6.92862 -15.8583L5.67578 -14.6055L116.609 96.3274L117.862 95.0746L6.92862 -15.8583Z" fill="white"/>
<path d="M-10.9073 -8.61416L-12.1602 -7.36133L109.479 114.278L110.732 113.025L-10.9073 -8.61416Z" fill="white"/>
<path d="M41.7138 -18.4657L40.4609 -17.2129L119.276 61.6019L120.529 60.349L41.7138 -18.4657Z" fill="white"/>
<path d="M17.1571 -17.9423L15.9043 -16.6895L118.751 86.1569L120.004 84.9041L17.1571 -17.9423Z" fill="white"/>
<path d="M-2.38778 -12.6337L-3.64062 -11.3809L113.443 105.702L114.695 104.449L-2.38778 -12.6337Z" fill="white"/>
<path d="M-18.7433 -3.91104L-19.9961 -2.6582L104.832 122.17L106.085 120.917L-18.7433 -3.91104Z" fill="white"/>
<path d="M-25.8976 1.24912L-27.1504 2.50195L99.4999 129.152L100.753 127.899L-25.8976 1.24912Z" fill="white"/>
<path d="M-32.4796 7.20615L-33.7324 8.45898L93.4873 135.679L94.7402 134.426L-32.4796 7.20615Z" fill="white"/>
<path d="M-38.38 13.8468L-39.6328 15.0996L87.0175 141.75L88.2703 140.497L-38.38 13.8468Z" fill="white"/>
<path d="M-43.7101 21.0558L-44.9629 22.3086L79.8651 147.137L81.1179 145.884L-43.7101 21.0558Z" fill="white"/>
<path d="M-48.3585 28.7198L-49.6113 29.9727L72.0276 151.612L73.2805 150.359L-48.3585 28.7198Z" fill="white"/>
<path d="M-52.3214 37.296L-53.5742 38.5488L63.509 155.632L64.7618 154.379L-52.3214 37.296Z" fill="white"/>
<path d="M-55.4893 46.669L-56.7422 47.9219L54.1907 158.855L55.4436 157.602L-55.4893 46.669Z" fill="white"/>
<path d="M-57.7452 56.9542L-58.998 58.207L43.8483 161.053L45.1012 159.801L-57.7452 56.9542Z" fill="white"/>
<path d="M-58.7472 68.2647L-60 69.5176L32.482 162L33.7349 160.747L-58.7472 68.2647Z" fill="white"/>
<path d="M-58.1554 81.3956L-59.4082 82.6484L19.4066 161.463L20.6594 160.21L-58.1554 81.3956Z" fill="white"/>
<path d="M-54.9444 97.1476L-56.1973 98.4004L3.59716 158.195L4.85 156.942L-54.9444 97.1476Z" fill="white"/>
<path d="M81.1903 -3.84072L79.9375 -2.58789L104.653 22.1271L105.905 20.8743L81.1903 -3.84072Z" fill="white"/>
</g>
</svg>
