<svg width="40" height="41" viewBox="0 0 40 41" fill="none" xmlns="http://www.w3.org/2000/svg">
<path d="M18 26.2346H22V30.2346H18V26.2346ZM18 10.2346H22V22.2346H18V10.2346ZM19.98 0.234619C8.94 0.234619 0 9.19462 0 20.2346C0 31.2746 8.94 40.2346 19.98 40.2346C31.04 40.2346 40 31.2746 40 20.2346C40 9.19462 31.04 0.234619 19.98 0.234619ZM20 36.2346C11.16 36.2346 4 29.0746 4 20.2346C4 11.3946 11.16 4.23462 20 4.23462C28.84 4.23462 36 11.3946 36 20.2346C36 29.0746 28.84 36.2346 20 36.2346Z" fill="#F7F7F7"/>
</svg>
