<svg width="36" height="40" viewBox="0 0 36 40" fill="none" xmlns="http://www.w3.org/2000/svg">
<path d="M8.83333 27.3333C4.78325 27.3333 1.5 24.0501 1.5 20C1.5 16.5037 3.9467 13.5789 7.2213 12.8444C7.07643 12.1972 7 11.5242 7 10.8333C7 5.77073 11.1041 1.66667 16.1667 1.66667C20.6021 1.66667 24.3017 4.8168 25.1503 9.0018C25.2112 9.00061 25.2722 9 25.3333 9C30.3959 9 34.5 13.1041 34.5 18.1667C34.5 22.6014 31.3508 26.3006 27.1667 27.15M23.5 21.8333L18 16.3333M18 16.3333L12.5 21.8333M18 16.3333L18 38.3333" stroke="white" stroke-width="3" stroke-linecap="round" stroke-linejoin="round"/>
</svg>
