<svg width="18" height="18" viewBox="0 0 18 18" fill="none" xmlns="http://www.w3.org/2000/svg">
<path d="M3 9L1 9M3 9C3 10.1046 3.89543 11 5 11C6.10457 11 7 10.1046 7 9M3 9C3 7.89543 3.89543 7 5 7C6.10457 7 7 7.89543 7 9M15 15C15 13.8954 14.1046 13 13 13C11.8954 13 11 13.8954 11 15M15 15C15 16.1046 14.1046 17 13 17C11.8954 17 11 16.1046 11 15M15 15L17 15M11 15L1 15M7 9L17 9M15 3C15 1.89543 14.1046 0.999999 13 0.999999C11.8954 1 11 1.89543 11 3M15 3C15 4.10457 14.1046 5 13 5C11.8954 5 11 4.10457 11 3M15 3L17 3M11 3L0.999999 3" stroke="#00468B" stroke-width="2" stroke-linecap="round" stroke-linejoin="round"/>
</svg>
