<svg width="40" height="40" viewBox="0 0 40 40" fill="none" xmlns="http://www.w3.org/2000/svg">
<path d="M12.3843 38.3117C9.99964 37.2803 7.89786 35.8563 6.08136 34.0398C4.26485 32.2233 2.84091 30.1215 1.80953 27.7369C0.775703 25.3523 0.26123 22.8141 0.26123 20.1198C0.26123 17.4255 0.775703 14.8873 1.80709 12.5027C2.83847 10.1181 4.25998 8.01627 6.06917 6.19977C7.87836 4.38326 9.98014 2.95688 12.3648 1.9255C14.7494 0.894112 17.2876 0.379639 19.9819 0.379639C22.6762 0.379639 25.2168 0.894112 27.6088 1.9255C30.0007 2.95688 32.1049 4.38082 33.9214 6.19733C35.7379 8.01383 37.1619 10.1156 38.1932 12.5002C39.2246 14.8848 39.7391 17.4231 39.7391 20.1174C39.7391 22.8116 39.2222 25.3499 38.1932 27.7345C37.1619 30.1191 35.7379 32.2209 33.9214 34.0374C32.1049 35.8539 30.0031 37.2778 27.6185 38.3092C25.2339 39.3406 22.6957 39.8551 20.0014 39.8551C17.3071 39.8551 14.7689 39.3382 12.3843 38.3092V38.3117ZM26.3921 35.237C28.3695 34.3861 30.1128 33.2132 31.6221 31.7186C33.129 30.2239 34.3018 28.4879 35.1405 26.508C35.9793 24.5306 36.3962 22.3996 36.3962 20.1174C36.3962 17.8351 35.9744 15.7065 35.1308 13.7267C34.2871 11.7492 33.1143 10.0083 31.6124 8.50636C30.1104 7.00439 28.3671 5.83159 26.3823 4.98795C24.3976 4.14431 22.2641 3.72249 19.9819 3.72249C17.6997 3.72249 15.5857 4.14431 13.601 4.98795C11.6162 5.83159 9.88017 7.00439 8.39039 8.50636C6.90061 10.0083 5.73512 11.7492 4.89149 13.7267C4.04785 15.7065 3.62603 17.8351 3.62603 20.1174C3.62603 22.3996 4.04785 24.5282 4.89149 26.508C5.73512 28.4879 6.90549 30.2239 8.40014 31.7186C9.8948 33.2132 11.6357 34.3861 13.6205 35.237C15.6052 36.088 17.7314 36.5122 20.0014 36.5122C22.2714 36.5122 24.4122 36.0855 26.3921 35.237V35.237ZM13.4766 27.2907C13.2523 27.0591 13.1377 26.7567 13.1377 26.3812V13.8169C13.1377 13.4438 13.2498 13.1366 13.4766 12.8977C13.7009 12.6587 14.0545 12.5392 14.5299 12.5392H16.4635C16.9414 12.5392 17.2925 12.6587 17.5168 12.8977C17.7411 13.1366 17.8557 13.4414 17.8557 13.8169V26.3837C17.8557 26.7567 17.7436 27.0615 17.5168 27.2932C17.29 27.5248 16.9389 27.6418 16.4635 27.6418H14.5299C14.052 27.6418 13.7009 27.5248 13.4766 27.2932V27.2907ZM22.5152 27.2907C22.2836 27.0591 22.1666 26.7567 22.1666 26.3812V13.8169C22.1666 13.4438 22.2836 13.1366 22.5152 12.8977C22.7469 12.6587 23.1029 12.5392 23.5783 12.5392H25.4923C25.9556 12.5392 26.3043 12.6587 26.5359 12.8977C26.7676 13.1366 26.8846 13.4414 26.8846 13.8169V26.3837C26.8846 26.7567 26.7676 27.0615 26.5359 27.2932C26.3043 27.5248 25.9556 27.6418 25.4923 27.6418H23.5783C23.1004 27.6418 22.7469 27.5248 22.5152 27.2932V27.2907Z" fill="white"/>
</svg>
