<svg width="16" height="20" viewBox="0 0 16 20" fill="none" xmlns="http://www.w3.org/2000/svg">
<path d="M2.76476 3.26813H13.2362V5.37598H14.664V2.18654C14.664 1.21025 13.8698 0.416016 12.8935 0.416016H3.10654C2.13026 0.416016 1.33691 1.21025 1.33691 2.18654V5.37241H2.76476V3.26813Z" fill="#C2C2C2"/>
<path d="M13.2362 16.7344H2.76476V14.3142H1.33691V17.8133C1.33691 18.7896 2.13115 19.5838 3.10744 19.5838H12.8935C13.8698 19.5838 14.664 18.7896 14.664 17.8133V14.3142H13.2362V16.7344Z" fill="#C2C2C2"/>
<path d="M11.4135 13.9055L15.4355 9.88431L11.3715 5.82031L10.3613 6.82962L13.416 9.88431L10.4033 12.8962L11.4135 13.9055Z" fill="#C2C2C2"/>
<path d="M5.59679 12.8962L2.58493 9.88431L5.63873 6.82962L4.62942 5.82031L0.56543 9.88431L4.58748 13.9055L5.59679 12.8962Z" fill="#C2C2C2"/>
</svg>
