<svg width="22" height="20" viewBox="0 0 22 20" fill="none" xmlns="http://www.w3.org/2000/svg">
<path d="M21.3888 8.89755L19.0307 6.98313V3.41333C19.0307 3.22378 18.9718 3.07214 18.8571 2.96157C18.7425 2.85101 18.5853 2.79414 18.3888 2.79414H17.4324C17.2425 2.79414 17.0886 2.85101 16.9674 2.96157C16.8495 3.0753 16.7872 3.22378 16.7872 3.41333V5.16348L12.0842 1.35359C11.7501 1.08506 11.3898 0.949219 11.0066 0.949219C10.6235 0.949219 10.2632 1.08506 9.92913 1.35359L0.617944 8.89755C0.427986 9.04603 0.333008 9.23242 0.333008 9.45671C0.333008 9.63362 0.401785 9.79474 0.539341 9.93374C0.676896 10.0759 0.863578 10.1454 1.10266 10.1454C1.22712 10.1454 1.34175 10.117 1.44655 10.0601C1.55136 10.0032 1.64961 9.94006 1.74459 9.87056L2.90726 8.92914V17.146C2.90726 17.7494 3.08411 18.2169 3.43783 18.5518C3.79154 18.8867 4.28936 19.0509 4.92474 19.0509H17.0198C17.6584 19.0509 18.153 18.8835 18.5034 18.5518C18.8538 18.2201 19.0307 17.7494 19.0307 17.146V8.86596L20.272 9.87056C20.3604 9.94006 20.4587 10.0032 20.5635 10.0601C20.6683 10.117 20.7829 10.1454 20.9074 10.1454C21.117 10.1454 21.2938 10.0854 21.4445 9.96849C21.5951 9.8516 21.6672 9.68733 21.6672 9.48199C21.6672 9.24189 21.5755 9.04603 21.3888 8.89439V8.89755ZM17.5897 16.7953C17.5897 17.0765 17.5143 17.2913 17.3669 17.443C17.2163 17.5914 17.0001 17.6672 16.7152 17.6672H13.5776V11.8924C13.5776 11.6965 13.5154 11.5386 13.3909 11.4185C13.2665 11.2985 13.1027 11.2385 12.8997 11.2385H9.11035C8.90074 11.2385 8.73371 11.2985 8.60925 11.4185C8.4848 11.5386 8.42257 11.6965 8.42257 11.8924V17.6672H5.22932C4.94439 17.6672 4.72495 17.5914 4.57102 17.443C4.42037 17.2945 4.34176 17.0765 4.34176 16.7953V7.76659L10.6922 2.62987C10.7938 2.54457 10.8986 2.50034 11.0099 2.50034C11.1213 2.50034 11.2261 2.54457 11.3276 2.62987L17.5929 7.70025V16.7922L17.5897 16.7953Z" fill="#008B8B"/>
</svg>
