<svg width="24" height="24" viewBox="0 0 24 24" fill="none" xmlns="http://www.w3.org/2000/svg">
<path d="M2.78613 17.3711C2.78613 17.7292 2.91634 18.0156 3.17676 18.2305C3.43717 18.4453 3.7985 18.5527 4.26074 18.5527H8.38183C8.40788 19.1842 8.57878 19.7669 8.89453 20.3008C9.21029 20.8347 9.63509 21.266 10.1689 21.5947C10.7028 21.9235 11.3115 22.0879 11.9951 22.0879C12.6852 22.0879 13.2972 21.9251 13.831 21.5996C14.3649 21.2741 14.7897 20.8428 15.1054 20.3057C15.4212 19.7686 15.5921 19.1842 15.6181 18.5527H19.7392C20.2015 18.5527 20.5628 18.4453 20.8232 18.2305C21.0836 18.0156 21.2138 17.7292 21.2138 17.3711C21.2138 17.0456 21.1194 16.7298 20.9306 16.4238C20.7418 16.1178 20.5058 15.8183 20.2226 15.5254C19.9394 15.2324 19.6579 14.9394 19.3779 14.6465C19.1631 14.4251 18.9954 14.1354 18.875 13.7773C18.7546 13.4192 18.665 13.0384 18.6064 12.6348C18.5478 12.2311 18.5055 11.8405 18.4795 11.4629C18.46 10.1803 18.3249 9.05241 18.0742 8.0791C17.8236 7.10579 17.4346 6.29362 16.9072 5.64258C16.3799 4.99154 15.6833 4.50977 14.8173 4.19727C14.6546 3.55924 14.3242 3.01888 13.8261 2.57617C13.3281 2.13346 12.7178 1.91211 11.9951 1.91211C11.279 1.91211 10.6719 2.13346 10.1738 2.57617C9.67578 3.01888 9.34537 3.55924 9.18261 4.19727C8.31673 4.50977 7.61849 4.99154 7.08789 5.64258C6.55729 6.29362 6.1683 7.10579 5.9209 8.0791C5.6735 9.05241 5.54004 10.1803 5.52051 11.4629C5.49447 11.8405 5.45215 12.2311 5.39355 12.6348C5.33496 13.0384 5.24544 13.4192 5.125 13.7773C5.00456 14.1354 4.83691 14.4251 4.62207 14.6465C4.34213 14.9394 4.06055 15.2324 3.77734 15.5254C3.49414 15.8183 3.25814 16.1178 3.06934 16.4238C2.88053 16.7298 2.78613 17.0456 2.78613 17.3711ZM4.68066 17.0781V16.9609C4.73926 16.8698 4.83691 16.7477 4.97363 16.5947C5.11035 16.4417 5.26498 16.2741 5.4375 16.0918C5.61003 15.9095 5.78093 15.7239 5.95019 15.5351C6.12597 15.3398 6.27897 15.1136 6.40918 14.8564C6.53939 14.5993 6.65007 14.3079 6.74121 13.9824C6.83236 13.6569 6.90397 13.2955 6.95605 12.8984C7.00814 12.5013 7.0472 12.0651 7.07324 11.5898C7.09928 10.1706 7.24577 9.04427 7.51269 8.21094C7.77962 7.37761 8.13607 6.75749 8.58203 6.35059C9.02799 5.94368 9.53092 5.66211 10.0908 5.50586C10.2145 5.47982 10.3089 5.43262 10.374 5.36426C10.4391 5.2959 10.4749 5.19987 10.4814 5.07617C10.501 4.56836 10.6458 4.15332 10.916 3.83106C11.1862 3.50879 11.5459 3.34766 11.9951 3.34766C12.4508 3.34766 12.8138 3.50879 13.084 3.83106C13.3542 4.15332 13.499 4.56836 13.5185 5.07617C13.5185 5.19987 13.5527 5.2959 13.6211 5.36426C13.6895 5.43262 13.7822 5.47982 13.8994 5.50586C14.4593 5.66211 14.9622 5.94368 15.4082 6.35059C15.8542 6.75749 16.2122 7.37761 16.4824 8.21094C16.7526 9.04427 16.9007 10.1706 16.9267 11.5898C16.9463 12.0651 16.9837 12.5013 17.039 12.8984C17.0944 13.2955 17.166 13.6569 17.2539 13.9824C17.3418 14.3079 17.4508 14.5993 17.581 14.8564C17.7112 15.1136 17.8642 15.3398 18.04 15.5351C18.2158 15.7239 18.39 15.9095 18.5625 16.0918C18.7351 16.2741 18.8881 16.4417 19.0215 16.5947C19.1549 16.7477 19.2509 16.8698 19.3095 16.9609V17.0781H4.68066ZM9.90527 18.5527H14.0947C14.0557 19.2168 13.8441 19.7425 13.4599 20.1299C13.0759 20.5172 12.5876 20.7109 11.9951 20.7109C11.4092 20.7109 10.9225 20.5172 10.5352 20.1299C10.1478 19.7425 9.93783 19.2168 9.90527 18.5527Z" fill="#C2C2C2"/>
</svg>
