<svg width="24" height="24" viewBox="0 0 24 24" fill="none" xmlns="http://www.w3.org/2000/svg">
<g clip-path="url(#clip0_770_3046)">
<path d="M4.739 22.2876C4.24749 21.8118 4 21.0998 4 20.1482V6.38321C4 5.45157 4.23704 4.74286 4.70763 4.2604C5.17821 3.77795 5.89281 3.53506 6.84444 3.53506H7.07451C7.06754 3.57166 7.06405 3.60826 7.06405 3.64818V4.57982C7.06405 4.74951 7.078 4.88926 7.1024 4.99573H6.87233C6.42963 4.99573 6.09499 5.12217 5.86841 5.37837C5.64183 5.63124 5.53028 5.97395 5.53028 6.40317V20.1282C5.53028 20.5807 5.65577 20.9301 5.90675 21.173C6.15773 21.4159 6.53072 21.5357 7.02571 21.5357H16.9743C17.4693 21.5357 17.8423 21.4159 18.0932 21.173C18.3442 20.9301 18.4697 20.5841 18.4697 20.1282V6.40317C18.4697 5.97395 18.3582 5.63124 18.1316 5.37837C17.905 5.1255 17.5704 4.99573 17.1277 4.99573H16.8976C16.922 4.88593 16.9359 4.74619 16.9359 4.57982V3.64818C16.9359 3.60826 16.9359 3.57166 16.9255 3.53506H17.1556C18.1072 3.53506 18.8183 3.77795 19.2924 4.2604C19.763 4.74619 20 5.45157 20 6.38321V20.1482C20 21.0998 19.7525 21.8118 19.261 22.2876C18.7695 22.7634 18.034 22.9997 17.051 22.9997H6.94902C5.96601 22.9997 5.2305 22.7634 4.739 22.2876ZM7.41961 10.6554C7.25926 10.5024 7.1756 10.3227 7.1756 10.1164C7.1756 9.91013 7.25577 9.7238 7.41961 9.57075C7.57996 9.42102 7.76819 9.34449 7.98431 9.34449C8.20044 9.34449 8.39564 9.41769 8.55599 9.56742C8.71285 9.71715 8.79303 9.90015 8.79303 10.1164C8.79303 10.3327 8.71285 10.509 8.55599 10.6621C8.39913 10.8152 8.20741 10.8884 7.98431 10.8884C7.76122 10.8884 7.57996 10.8118 7.41961 10.6554ZM7.41612 13.8796C7.25577 13.7299 7.17909 13.5469 7.17909 13.3306C7.17909 13.1243 7.25926 12.9479 7.41612 12.7949C7.57298 12.6418 7.76471 12.5686 7.9878 12.5686C8.21089 12.5686 8.39913 12.6418 8.55948 12.7916C8.71634 12.9413 8.79651 13.121 8.79651 13.3306C8.79651 13.5402 8.71634 13.7332 8.55948 13.8796C8.39913 14.0293 8.21089 14.1025 7.9878 14.1025C7.76471 14.1025 7.57647 14.0293 7.41612 13.8796ZM7.41961 17.2767C7.25926 17.1237 7.1756 16.944 7.1756 16.7377C7.1756 16.5314 7.25577 16.3451 7.41961 16.192C7.57996 16.0423 7.76819 15.9658 7.98431 15.9658C8.20044 15.9658 8.39564 16.039 8.55599 16.1887C8.71285 16.3384 8.79303 16.5214 8.79303 16.7377C8.79303 16.954 8.71285 17.1303 8.55599 17.2834C8.39913 17.4364 8.20741 17.5096 7.98431 17.5096C7.76122 17.5096 7.57996 17.4331 7.41961 17.2767ZM8.40959 5.37504C8.25272 5.21866 8.17603 4.99573 8.17603 4.71291V3.75798C8.17603 3.47516 8.25272 3.25224 8.40959 3.09585C8.56645 2.93947 8.78257 2.85962 9.06144 2.85962H9.93638C9.96776 2.34389 10.1839 1.90469 10.5778 1.54201C10.9752 1.17934 11.4492 0.996338 12 0.996338C12.5508 0.996338 13.0248 1.17601 13.4222 1.54201C13.8196 1.90801 14.0322 2.34389 14.0636 2.85962H14.9386C15.2174 2.85962 15.4336 2.93947 15.5904 3.09585C15.7473 3.25224 15.824 3.47516 15.824 3.75798V4.71291C15.824 4.99906 15.7473 5.21866 15.5904 5.37504C15.4336 5.53143 15.2174 5.61128 14.9386 5.61128H9.06144C8.78257 5.61128 8.56645 5.53143 8.40959 5.37504ZM10.1037 10.509C9.98519 10.3959 9.92941 10.2661 9.92941 10.1131C9.92941 9.96004 9.98867 9.82029 10.1037 9.71049C10.2222 9.59737 10.3617 9.54413 10.5255 9.54413H16.2318C16.3922 9.54413 16.5281 9.60069 16.6466 9.71049C16.7651 9.82362 16.8209 9.95671 16.8209 10.1131C16.8209 10.2695 16.7617 10.3959 16.6466 10.509C16.5316 10.6222 16.3922 10.6754 16.2318 10.6754H10.5255C10.3617 10.6754 10.2187 10.6188 10.1037 10.509ZM10.1002 13.7332C9.98519 13.6201 9.92941 13.487 9.92941 13.3306C9.92941 13.1742 9.98519 13.0478 10.1002 12.9413C10.2153 12.8315 10.3582 12.7782 10.529 12.7782H16.2353C16.3991 12.7782 16.5386 12.8315 16.6536 12.9413C16.7686 13.0511 16.8244 13.1809 16.8244 13.3306C16.8244 13.4803 16.7686 13.6234 16.6536 13.7332C16.5386 13.8463 16.3991 13.8995 16.2353 13.8995H10.5255C10.3547 13.8995 10.2118 13.843 10.0967 13.7332H10.1002ZM10.1037 17.1303C9.98519 17.0172 9.92941 16.8874 9.92941 16.7344C9.92941 16.5813 9.98519 16.4449 10.1002 16.3351C10.2153 16.2253 10.3582 16.1721 10.529 16.1721H16.2353C16.3991 16.1721 16.5386 16.2253 16.6536 16.3351C16.7686 16.4449 16.8244 16.578 16.8244 16.7344C16.8244 16.8908 16.7651 17.0172 16.6501 17.1303C16.5351 17.2435 16.3956 17.2967 16.2353 17.2967H10.5255C10.3617 17.2967 10.2187 17.2401 10.1037 17.1303ZM12.5856 3.48847C12.746 3.33209 12.8296 3.14576 12.8296 2.93282C12.8296 2.70989 12.7495 2.52023 12.5856 2.36385C12.4218 2.20747 12.2301 2.13094 12 2.13094C11.7699 2.13094 11.5782 2.20747 11.4144 2.36385C11.2505 2.52023 11.1704 2.70656 11.1704 2.93282C11.1704 3.14576 11.2505 3.32876 11.4144 3.48847C11.5782 3.64818 11.7699 3.72471 12 3.72471C12.2301 3.72471 12.4218 3.64486 12.5856 3.48847Z" fill="#C2C2C2"/>
</g>
<defs>
<clipPath id="clip0_770_3046">
<rect width="16" height="22" fill="white" transform="translate(4 1)"/>
</clipPath>
</defs>
</svg>
