<svg width="50" height="50" viewBox="0 0 50 50" fill="none" xmlns="http://www.w3.org/2000/svg">
<g filter="url(#filter0_d_2_10189)">
<circle cx="25" cy="23" r="20" fill="#008B8B"/>
</g>
<path d="M18.75 29C15.9886 29 13.75 26.7614 13.75 24C13.75 21.6162 15.4182 19.622 17.6509 19.1212C17.5521 18.6799 17.5 18.2211 17.5 17.75C17.5 14.2982 20.2982 11.5 23.75 11.5C26.7741 11.5 29.2966 13.6478 29.8752 16.5012C29.9167 16.5004 29.9583 16.5 30 16.5C33.4518 16.5 36.25 19.2982 36.25 22.75C36.25 25.7737 34.1028 28.2959 31.25 28.875M28.75 25.25L25 21.5M25 21.5L21.25 25.25M25 21.5L25 36.5" stroke="white" stroke-width="2" stroke-linecap="round" stroke-linejoin="round"/>
<defs>
<filter id="filter0_d_2_10189" x="0" y="0" width="50" height="50" filterUnits="userSpaceOnUse" color-interpolation-filters="sRGB">
<feFlood flood-opacity="0" result="BackgroundImageFix"/>
<feColorMatrix in="SourceAlpha" type="matrix" values="0 0 0 0 0 0 0 0 0 0 0 0 0 0 0 0 0 0 127 0" result="hardAlpha"/>
<feOffset dy="2"/>
<feGaussianBlur stdDeviation="2.5"/>
<feComposite in2="hardAlpha" operator="out"/>
<feColorMatrix type="matrix" values="0 0 0 0 0 0 0 0 0 0 0 0 0 0 0 0 0 0 0.25 0"/>
<feBlend mode="normal" in2="BackgroundImageFix" result="effect1_dropShadow_2_10189"/>
<feBlend mode="normal" in="SourceGraphic" in2="effect1_dropShadow_2_10189" result="shape"/>
</filter>
</defs>
</svg>
