<svg width="26" height="28" viewBox="0 0 26 28" fill="none" xmlns="http://www.w3.org/2000/svg">
<path d="M21.8092 8.08535L21.6967 7.97287C21.1906 7.46671 21.0781 6.79184 21.4155 6.51064L22.7653 5.21713C23.2714 4.76721 24.0588 4.76721 24.5087 5.32961L24.6212 5.44209C25.1274 5.94824 25.1274 6.7356 24.6212 7.18551L23.2714 8.47902C22.9902 8.76022 22.3154 8.5915 21.8092 8.08535Z" stroke="#C2C2C2" stroke-miterlimit="10"/>
<path d="M10.5605 26.8702C10.5605 26.8702 11.6291 25.7454 12.2477 25.183C16.8594 25.5204 18.5466 22.371 18.9965 21.8086" stroke="#C2C2C2" stroke-miterlimit="10"/>
<path d="M22.1455 18.603L22.033 18.5467C21.5269 18.1531 21.3582 17.5344 21.6394 17.2532L22.7642 15.9597C23.1578 15.5098 23.889 15.4536 24.3951 15.8472L24.5076 15.9035C25.0137 16.2972 25.07 17.0283 24.6763 17.5344L23.5515 18.8279C23.2703 19.1091 22.6517 19.0529 22.1455 18.603Z" stroke="#C2C2C2" stroke-miterlimit="10"/>
<path d="M11.1239 22.9334C12.3611 19.4465 11.1239 16.2971 10.0553 14.8911C10.5052 13.4851 10.7302 12.5291 10.8427 10.8419C10.9551 9.88579 10.5052 9.09844 10.1115 8.53604C9.66162 7.91741 8.64931 8.08613 8.42435 8.761C7.52452 11.6855 7.3558 12.5291 6.73717 13.9913C6.11853 15.6222 6.45597 17.9843 6.17477 18.6592C6.17477 18.7716 4.9375 20.6838 4.9375 20.6838" stroke="#C2C2C2" stroke-miterlimit="10"/>
<path d="M22.2022 15.116L22.0897 15.0597C21.5835 14.6098 21.4148 14.0474 21.696 13.71L22.8208 12.4165C23.2145 11.9103 24.0018 11.9103 24.4517 12.304L24.5642 12.3602C25.0704 12.8102 25.1266 13.5413 24.7329 13.9912L23.6082 15.2847C23.327 15.6221 22.6521 15.5097 22.2022 15.116Z" stroke="#C2C2C2" stroke-miterlimit="10"/>
<path d="M22.2022 11.6297L22.0897 11.5734C21.5835 11.1235 21.4148 10.5611 21.696 10.2237L22.8208 8.93015C23.2145 8.424 24.0018 8.424 24.4517 8.81768L24.5642 8.87392C25.0704 9.32383 25.1266 10.0549 24.7329 10.5049L23.6082 11.7984C23.327 12.1358 22.6521 12.0796 22.2022 11.6297Z" stroke="#C2C2C2" stroke-miterlimit="10"/>
<path d="M15.0605 20.1211H16.7477" stroke="#C2C2C2" stroke-miterlimit="10"/>
<path d="M22.3706 5.49916V2.68719C22.3706 1.73111 21.6395 1 20.6835 1H11.1227C10.1667 1 9.43555 1.73111 9.43555 2.68719C9.43555 4.31813 9.43555 8.31114 9.43555 8.31114" stroke="#C2C2C2" stroke-miterlimit="10"/>
<path d="M11.123 21.8081H20.6838C21.6398 21.8081 22.371 21.077 22.371 20.1209V18.9961" stroke="#C2C2C2" stroke-miterlimit="10"/>
<path d="M11.1231 26.8697L3.81198 19.5586L1 22.3706L5.49916 26.8697" stroke="#C2C2C2" stroke-miterlimit="10"/>
<path d="M3.8125 22.3711L4.3749 22.9335" stroke="#C2C2C2" stroke-miterlimit="10"/>
<path d="M18.997 6.62458V9.43656H13.373V4.375H17.3098" stroke="#C2C2C2" stroke-miterlimit="10"/>
<path d="M15.0605 6.06229L16.1853 7.74948L18.9973 4.9375" stroke="#C2C2C2" stroke-miterlimit="10" stroke-linecap="round" stroke-linejoin="round"/>
<path d="M18.997 14.4976V17.3096H13.373V12.248H17.3098" stroke="#C2C2C2" stroke-miterlimit="10"/>
<path d="M15.0605 13.9353L16.1853 15.6225L18.9973 12.8105" stroke="#C2C2C2" stroke-miterlimit="10" stroke-linecap="round" stroke-linejoin="round"/>
</svg>
