<svg width="48" height="48" viewBox="0 0 48 48" fill="none" xmlns="http://www.w3.org/2000/svg">
<path fill-rule="evenodd" clip-rule="evenodd" d="M30.5308 5.03638L44.6698 10.3651C44.9301 10.459 45.0759 10.7614 44.9822 11.043L41.5255 20.251C41.4422 20.4491 41.2548 20.5847 41.0362 20.5847H35.997V23.296C35.997 23.588 35.7679 23.8174 35.4764 23.8174C35.1848 23.8174 34.9558 23.588 34.9558 23.296V20.0633C34.9558 19.7713 35.1848 19.5419 35.4764 19.5419H40.6718L43.8161 11.1577L31.1764 6.40246C30.3539 9.96887 27.1679 12.5133 23.4926 12.5133C19.8173 12.5133 16.6313 9.95844 15.8088 6.40246L3.18992 11.1577L6.34464 19.5314H11.5296C11.8212 19.5314 12.0502 19.7609 12.0502 20.0528V40.1165H15.9546C16.2461 40.1165 16.4752 40.3459 16.4752 40.6379C16.4752 40.9299 16.2461 41.1593 15.9546 41.1593H11.54C11.2485 41.1593 11.0195 40.9299 11.0195 40.6379V20.5743H5.98023C5.76159 20.5743 5.56377 20.4387 5.49089 20.2406L2.03423 11.0325C1.98217 10.9074 1.99258 10.7614 2.04464 10.6363C2.10711 10.5111 2.21122 10.4069 2.33616 10.3651L16.4752 5.03638C16.6313 4.97381 16.7979 4.99467 16.9333 5.07809C18.9011 6.30861 21.1708 6.95515 23.503 6.95515C25.8352 6.95515 28.1049 6.29818 30.0727 5.07809C30.2081 4.99467 30.3747 4.98424 30.5308 5.03638ZM16.85 6.24604C17.5892 9.29105 20.3379 11.4705 23.503 11.4705C26.6681 11.4705 29.4168 9.29105 30.156 6.24604C28.1362 7.39313 25.8456 7.99796 23.503 7.99796C21.1604 7.99796 18.8698 7.39313 16.85 6.24604ZM38.027 28.6663L41.0256 26.7163C41.2755 26.5598 41.5982 26.6224 41.7544 26.8727C41.9106 27.1125 41.8377 27.4358 41.5982 27.5922L38.027 29.9177V42.4731C38.027 42.7651 37.798 42.9945 37.5064 42.9945C37.2149 42.9945 36.9859 42.7651 36.9859 42.4731V30.5851L32.79 33.3068V42.4731C32.79 42.7651 32.5609 42.9945 32.2694 42.9945C31.9779 42.9945 31.7488 42.7651 31.7488 42.4731V33.9847L27.5529 36.7064V42.4731C27.5529 42.7651 27.3239 42.9945 27.0324 42.9945C26.7408 42.9945 26.5118 42.7651 26.5118 42.4731V37.3842L22.3159 40.106V42.4627C22.3159 42.7547 22.0868 42.9841 21.7953 42.9841C21.5038 42.9841 21.2747 42.7547 21.2747 42.4627V40.7838L18.2658 42.7443C18.1825 42.7964 18.0784 42.8277 17.9847 42.8277C17.8181 42.8277 17.6515 42.7443 17.5474 42.5879C17.3912 42.348 17.4641 42.0247 17.7035 41.8683L21.2747 39.5428V26.977C21.2747 26.685 21.5038 26.4556 21.7953 26.4556C22.0868 26.4556 22.3159 26.685 22.3159 26.977V38.865L26.5118 36.1433V26.977C26.5118 26.685 26.7408 26.4556 27.0324 26.4556C27.3239 26.4556 27.5529 26.685 27.5529 26.977V35.4655L31.7488 32.7437V26.977C31.7488 26.685 31.9779 26.4556 32.2694 26.4556C32.5609 26.4556 32.79 26.685 32.79 26.977V32.0659L36.9859 29.3442V26.9874C36.9859 26.6954 37.2149 26.466 37.5064 26.466C37.798 26.466 38.027 26.6954 38.027 26.9874V28.6663Z" fill="white"/>
<path d="M44.6698 10.3651L44.5817 10.5991L44.585 10.6003L44.6698 10.3651ZM30.5308 5.03638L30.6191 4.80227L30.61 4.79925L30.5308 5.03638ZM44.9822 11.043L45.2164 11.1309L45.2194 11.1219L44.9822 11.043ZM41.5255 20.251L41.7562 20.3479L41.7596 20.3388L41.5255 20.251ZM35.997 20.5847V20.3347C35.8589 20.3347 35.747 20.4466 35.747 20.5847H35.997ZM40.6718 19.5419V19.7919C40.776 19.7919 40.8693 19.7272 40.9059 19.6297L40.6718 19.5419ZM43.8161 11.1577L44.0502 11.2455C44.0986 11.1163 44.0332 10.9723 43.9041 10.9237L43.8161 11.1577ZM31.1764 6.40246L31.2644 6.16847C31.1969 6.14309 31.1218 6.14807 31.0582 6.18213C30.9947 6.2162 30.949 6.27603 30.9328 6.34628L31.1764 6.40246ZM15.8088 6.40246L16.0524 6.34612C16.0361 6.27589 15.9904 6.21609 15.9268 6.18206C15.8633 6.14804 15.7881 6.1431 15.7207 6.16852L15.8088 6.40246ZM3.18992 11.1577L3.10176 10.9237C2.97257 10.9724 2.90729 11.1166 2.95597 11.2458L3.18992 11.1577ZM6.34464 19.5314L6.11069 19.6196C6.14738 19.717 6.24057 19.7814 6.34464 19.7814V19.5314ZM12.0502 40.1165H11.8002C11.8002 40.2546 11.9121 40.3665 12.0502 40.3665V40.1165ZM11.0195 20.5743H11.2695C11.2695 20.4362 11.1575 20.3243 11.0195 20.3243V20.5743ZM5.49089 20.2406L5.72552 20.1542L5.72494 20.1527L5.49089 20.2406ZM2.03423 11.0325L2.26842 10.9446L2.26505 10.9365L2.03423 11.0325ZM2.04464 10.6363L1.82096 10.5246C1.8184 10.5297 1.81602 10.535 1.81381 10.5402L2.04464 10.6363ZM2.33616 10.3651L2.41539 10.6024L2.42433 10.5991L2.33616 10.3651ZM16.4752 5.03638L16.5633 5.27037L16.5681 5.26845L16.4752 5.03638ZM16.9333 5.07809L17.0658 4.86612L17.0644 4.86527L16.9333 5.07809ZM30.0727 5.07809L29.9416 4.86527L29.941 4.86562L30.0727 5.07809ZM16.85 6.24604L16.9734 6.02865C16.8867 5.97941 16.779 5.9864 16.6994 6.04645C16.6198 6.1065 16.5835 6.20811 16.607 6.30502L16.85 6.24604ZM30.156 6.24604L30.399 6.30502C30.4225 6.20811 30.3862 6.1065 30.3066 6.04645C30.227 5.9864 30.1193 5.97941 30.0326 6.02865L30.156 6.24604ZM41.0256 26.7163L40.8929 26.5043L40.8893 26.5067L41.0256 26.7163ZM38.027 28.6663H37.777C37.777 28.758 37.8272 28.8423 37.9078 28.8861C37.9884 28.9298 38.0865 28.9259 38.1633 28.8759L38.027 28.6663ZM41.7544 26.8727L41.5423 27.0051L41.5449 27.0091L41.7544 26.8727ZM41.5982 27.5922L41.7346 27.8017L41.7349 27.8015L41.5982 27.5922ZM38.027 29.9177L37.8906 29.7082C37.8198 29.7543 37.777 29.8332 37.777 29.9177H38.027ZM36.9859 30.5851H37.2359C37.2359 30.4935 37.1857 30.4092 37.1052 30.3654C37.0247 30.3217 36.9267 30.3255 36.8498 30.3754L36.9859 30.5851ZM32.79 33.3068L32.6539 33.0971C32.5829 33.1432 32.54 33.2221 32.54 33.3068H32.79ZM31.7488 33.9847H31.9988C31.9988 33.893 31.9487 33.8087 31.8682 33.765C31.7876 33.7212 31.6896 33.7251 31.6128 33.7749L31.7488 33.9847ZM27.5529 36.7064L27.4169 36.4967C27.3458 36.5428 27.3029 36.6217 27.3029 36.7064H27.5529ZM26.5118 37.3842H26.7618C26.7618 37.2926 26.7116 37.2083 26.6311 37.1646C26.5506 37.1208 26.4526 37.1246 26.3757 37.1745L26.5118 37.3842ZM22.3159 40.106L22.1798 39.8962C22.1088 39.9423 22.0659 40.0213 22.0659 40.106H22.3159ZM21.2747 40.7838H21.5247C21.5247 40.6921 21.4745 40.6077 21.3939 40.564C21.3132 40.5203 21.2151 40.5243 21.1383 40.5743L21.2747 40.7838ZM18.2658 42.7443L18.3985 42.9562L18.4022 42.9537L18.2658 42.7443ZM17.5474 42.5879L17.3379 42.7243L17.3393 42.7264L17.5474 42.5879ZM17.7035 41.8683L17.5671 41.6588L17.5668 41.659L17.7035 41.8683ZM21.2747 39.5428L21.4111 39.7523C21.482 39.7062 21.5247 39.6274 21.5247 39.5428H21.2747ZM22.3159 38.865H22.0659C22.0659 38.9567 22.116 39.0409 22.1965 39.0847C22.2771 39.1284 22.3751 39.1246 22.4519 39.0748L22.3159 38.865ZM26.5118 36.1433L26.6478 36.353C26.7189 36.3069 26.7618 36.228 26.7618 36.1433H26.5118ZM27.5529 35.4655H27.3029C27.3029 35.5571 27.3531 35.6414 27.4336 35.6851C27.5141 35.7289 27.6121 35.7251 27.689 35.6752L27.5529 35.4655ZM31.7488 32.7437L31.8849 32.9535C31.9559 32.9074 31.9988 32.8284 31.9988 32.7437H31.7488ZM32.79 32.0659H32.54C32.54 32.1575 32.5901 32.2418 32.6706 32.2856C32.7512 32.3293 32.8492 32.3255 32.926 32.2756L32.79 32.0659ZM36.9859 29.3442L37.1219 29.5539C37.193 29.5078 37.2359 29.4289 37.2359 29.3442H36.9859ZM44.758 10.1312L30.619 4.80244L30.4427 5.27032L44.5817 10.5991L44.758 10.1312ZM45.2194 11.1219C45.3538 10.7181 45.1489 10.2721 44.7546 10.13L44.585 10.6003C44.7114 10.6459 44.798 10.8047 44.745 10.964L45.2194 11.1219ZM41.7596 20.3388L45.2162 11.1308L44.7481 10.9551L41.2915 20.1631L41.7596 20.3388ZM41.0362 20.8347C41.3633 20.8347 41.6368 20.6313 41.756 20.3479L41.2951 20.1541C41.2476 20.2669 41.1464 20.3347 41.0362 20.3347V20.8347ZM35.997 20.8347H41.0362V20.3347H35.997V20.8347ZM36.247 23.296V20.5847H35.747V23.296H36.247ZM35.4764 24.0674C35.9063 24.0674 36.247 23.7257 36.247 23.296H35.747C35.747 23.4503 35.6295 23.5674 35.4764 23.5674V24.0674ZM34.7058 23.296C34.7058 23.7257 35.0464 24.0674 35.4764 24.0674V23.5674C35.3233 23.5674 35.2058 23.4503 35.2058 23.296H34.7058ZM34.7058 20.0633V23.296H35.2058V20.0633H34.7058ZM35.4764 19.2919C35.0464 19.2919 34.7058 19.6336 34.7058 20.0633H35.2058C35.2058 19.909 35.3233 19.7919 35.4764 19.7919V19.2919ZM40.6718 19.2919H35.4764V19.7919H40.6718V19.2919ZM43.582 11.0699L40.4377 19.4541L40.9059 19.6297L44.0502 11.2455L43.582 11.0699ZM31.0883 6.63645L43.7281 11.3917L43.9041 10.9237L31.2644 6.16847L31.0883 6.63645ZM23.4926 12.7633C27.2845 12.7633 30.5713 10.1383 31.42 6.45864L30.9328 6.34628C30.1364 9.79941 27.0513 12.2633 23.4926 12.2633V12.7633ZM15.5652 6.4588C16.4139 10.1276 19.7004 12.7633 23.4926 12.7633V12.2633C19.9342 12.2633 16.8488 9.78928 16.0524 6.34612L15.5652 6.4588ZM3.27807 11.3916L15.897 6.6364L15.7207 6.16852L3.10176 10.9237L3.27807 11.3916ZM6.57859 19.4433L3.42386 11.0695L2.95597 11.2458L6.11069 19.6196L6.57859 19.4433ZM11.5296 19.2814H6.34464V19.7814H11.5296V19.2814ZM12.3002 20.0528C12.3002 19.6232 11.9596 19.2814 11.5296 19.2814V19.7814C11.6827 19.7814 11.8002 19.8986 11.8002 20.0528H12.3002ZM12.3002 40.1165V20.0528H11.8002V40.1165H12.3002ZM15.9546 39.8665H12.0502V40.3665H15.9546V39.8665ZM16.7252 40.6379C16.7252 40.2082 16.3845 39.8665 15.9546 39.8665V40.3665C16.1077 40.3665 16.2252 40.4836 16.2252 40.6379H16.7252ZM15.9546 41.4093C16.3845 41.4093 16.7252 41.0676 16.7252 40.6379H16.2252C16.2252 40.7922 16.1077 40.9093 15.9546 40.9093V41.4093ZM11.54 41.4093H15.9546V40.9093H11.54V41.4093ZM10.7695 40.6379C10.7695 41.0676 11.1101 41.4093 11.54 41.4093V40.9093C11.387 40.9093 11.2695 40.7922 11.2695 40.6379H10.7695ZM10.7695 20.5743V40.6379H11.2695V20.5743H10.7695ZM5.98023 20.8243H11.0195V20.3243H5.98023V20.8243ZM5.25626 20.3269C5.36671 20.6271 5.6609 20.8243 5.98023 20.8243V20.3243C5.86228 20.3243 5.76083 20.2502 5.72552 20.1542L5.25626 20.3269ZM1.80017 11.1204L5.25683 20.3284L5.72494 20.1527L2.26828 10.9447L1.80017 11.1204ZM1.81381 10.5402C1.74175 10.7135 1.7207 10.9298 1.8034 11.1286L2.26505 10.9365C2.24364 10.885 2.2434 10.8093 2.27546 10.7323L1.81381 10.5402ZM2.25699 10.128C2.05485 10.1955 1.90556 10.3551 1.82096 10.5246L2.26831 10.7479C2.30866 10.6671 2.3676 10.6182 2.41533 10.6023L2.25699 10.128ZM16.387 4.80244L2.248 10.1312L2.42433 10.5991L16.5633 5.27032L16.387 4.80244ZM17.0644 4.86527C16.8662 4.74309 16.6167 4.71034 16.3822 4.80431L16.5681 5.26845C16.6459 5.23728 16.7296 5.24625 16.8021 5.29091L17.0644 4.86527ZM23.503 6.70515C21.2172 6.70515 18.9935 6.07154 17.0658 4.86612L16.8007 5.29006C18.8086 6.54567 21.1244 7.20515 23.503 7.20515V6.70515ZM29.941 4.86562C28.0123 6.06148 25.7881 6.70515 23.503 6.70515V7.20515C25.8823 7.20515 28.1976 6.53488 30.2045 5.29057L29.941 4.86562ZM30.61 4.79925C30.3951 4.72748 30.1496 4.73705 29.9416 4.86527L30.2039 5.29091C30.2666 5.25228 30.3543 5.241 30.4517 5.27351L30.61 4.79925ZM23.503 11.2205C20.4535 11.2205 17.805 9.12028 17.0929 6.18706L16.607 6.30502C17.3734 9.46181 20.2222 11.7205 23.503 11.7205V11.2205ZM29.9131 6.18706C29.201 9.12028 26.5525 11.2205 23.503 11.2205V11.7205C26.7838 11.7205 29.6326 9.46181 30.399 6.30502L29.9131 6.18706ZM23.503 8.24796C25.8887 8.24796 28.2218 7.63199 30.2795 6.46343L30.0326 6.02865C28.0505 7.15427 25.8025 7.74796 23.503 7.74796V8.24796ZM16.7265 6.46343C18.7842 7.63199 21.1173 8.24796 23.503 8.24796V7.74796C21.2035 7.74796 18.9555 7.15427 16.9734 6.02865L16.7265 6.46343ZM40.8893 26.5067L37.8907 28.4567L38.1633 28.8759L41.1619 26.9258L40.8893 26.5067ZM41.9665 26.7403C41.7318 26.3643 41.2513 26.28 40.8929 26.5044L41.1582 26.9282C41.2996 26.8397 41.4646 26.8805 41.5423 27.005L41.9665 26.7403ZM41.7349 27.8015C42.0864 27.5719 42.1976 27.0951 41.9639 26.7363L41.5449 27.0091C41.6236 27.1299 41.5889 27.2997 41.4615 27.3829L41.7349 27.8015ZM38.1634 30.1272L41.7346 27.8017L41.4618 27.3827L37.8906 29.7082L38.1634 30.1272ZM38.277 42.4731V29.9177H37.777V42.4731H38.277ZM37.5064 43.2445C37.9364 43.2445 38.277 42.9028 38.277 42.4731H37.777C37.777 42.6274 37.6595 42.7445 37.5064 42.7445V43.2445ZM36.7359 42.4731C36.7359 42.9028 37.0765 43.2445 37.5064 43.2445V42.7445C37.3534 42.7445 37.2359 42.6274 37.2359 42.4731H36.7359ZM36.7359 30.5851V42.4731H37.2359V30.5851H36.7359ZM32.926 33.5166L37.1219 30.7948L36.8498 30.3754L32.6539 33.0971L32.926 33.5166ZM33.04 42.4731V33.3068H32.54V42.4731H33.04ZM32.2694 43.2445C32.6994 43.2445 33.04 42.9028 33.04 42.4731H32.54C32.54 42.6274 32.4225 42.7445 32.2694 42.7445V43.2445ZM31.4988 42.4731C31.4988 42.9028 31.8394 43.2445 32.2694 43.2445V42.7445C32.1163 42.7445 31.9988 42.6274 31.9988 42.4731H31.4988ZM31.4988 33.9847V42.4731H31.9988V33.9847H31.4988ZM27.689 36.9161L31.8849 34.1944L31.6128 33.7749L27.4169 36.4967L27.689 36.9161ZM27.8029 42.4731V36.7064H27.3029V42.4731H27.8029ZM27.0324 43.2445C27.4623 43.2445 27.8029 42.9028 27.8029 42.4731H27.3029C27.3029 42.6274 27.1854 42.7445 27.0324 42.7445V43.2445ZM26.2618 42.4731C26.2618 42.9028 26.6024 43.2445 27.0324 43.2445V42.7445C26.8793 42.7445 26.7618 42.6274 26.7618 42.4731H26.2618ZM26.2618 37.3842V42.4731H26.7618V37.3842H26.2618ZM22.4519 40.3157L26.6478 37.594L26.3757 37.1745L22.1798 39.8962L22.4519 40.3157ZM22.5659 42.4627V40.106H22.0659V42.4627H22.5659ZM21.7953 43.2341C22.2253 43.2341 22.5659 42.8924 22.5659 42.4627H22.0659C22.0659 42.617 21.9484 42.7341 21.7953 42.7341V43.2341ZM21.0247 42.4627C21.0247 42.8924 21.3653 43.2341 21.7953 43.2341V42.7341C21.6422 42.7341 21.5247 42.617 21.5247 42.4627H21.0247ZM21.0247 40.7838V42.4627H21.5247V40.7838H21.0247ZM18.4022 42.9537L21.4112 40.9933L21.1383 40.5743L18.1293 42.5348L18.4022 42.9537ZM17.9847 43.0777C18.1286 43.0777 18.2783 43.0314 18.3984 42.9562L18.1331 42.5324C18.0867 42.5614 18.0281 42.5777 17.9847 42.5777V43.0777ZM17.3393 42.7264C17.4898 42.9525 17.7345 43.0777 17.9847 43.0777V42.5777C17.9016 42.5777 17.8132 42.536 17.7555 42.4493L17.3393 42.7264ZM17.5668 41.659C17.2153 41.8886 17.1042 42.3654 17.3379 42.7243L17.7569 42.4514C17.6782 42.3306 17.7128 42.1609 17.8403 42.0776L17.5668 41.659ZM21.1383 39.3333L17.5671 41.6588L17.84 42.0778L21.4111 39.7523L21.1383 39.3333ZM21.0247 26.977V39.5428H21.5247V26.977H21.0247ZM21.7953 26.2056C21.3653 26.2056 21.0247 26.5473 21.0247 26.977H21.5247C21.5247 26.8227 21.6422 26.7056 21.7953 26.7056V26.2056ZM22.5659 26.977C22.5659 26.5473 22.2253 26.2056 21.7953 26.2056V26.7056C21.9484 26.7056 22.0659 26.8227 22.0659 26.977H22.5659ZM22.5659 38.865V26.977H22.0659V38.865H22.5659ZM26.3757 35.9335L22.1798 38.6553L22.4519 39.0748L26.6478 36.353L26.3757 35.9335ZM26.2618 26.977V36.1433H26.7618V26.977H26.2618ZM27.0324 26.2056C26.6024 26.2056 26.2618 26.5473 26.2618 26.977H26.7618C26.7618 26.8227 26.8793 26.7056 27.0324 26.7056V26.2056ZM27.8029 26.977C27.8029 26.5473 27.4623 26.2056 27.0324 26.2056V26.7056C27.1854 26.7056 27.3029 26.8227 27.3029 26.977H27.8029ZM27.8029 35.4655V26.977H27.3029V35.4655H27.8029ZM31.6128 32.534L27.4169 35.2557L27.689 35.6752L31.8849 32.9535L31.6128 32.534ZM31.4988 26.977V32.7437H31.9988V26.977H31.4988ZM32.2694 26.2056C31.8394 26.2056 31.4988 26.5473 31.4988 26.977H31.9988C31.9988 26.8227 32.1163 26.7056 32.2694 26.7056V26.2056ZM33.04 26.977C33.04 26.5473 32.6994 26.2056 32.2694 26.2056V26.7056C32.4225 26.7056 32.54 26.8227 32.54 26.977H33.04ZM33.04 32.0659V26.977H32.54V32.0659H33.04ZM36.8498 29.1344L32.6539 31.8562L32.926 32.2756L37.1219 29.5539L36.8498 29.1344ZM36.7359 26.9874V29.3442H37.2359V26.9874H36.7359ZM37.5064 26.216C37.0765 26.216 36.7359 26.5577 36.7359 26.9874H37.2359C37.2359 26.8331 37.3534 26.716 37.5064 26.716V26.216ZM38.277 26.9874C38.277 26.5577 37.9364 26.216 37.5064 26.216V26.716C37.6595 26.716 37.777 26.8331 37.777 26.9874H38.277ZM38.277 28.6663V26.9874H37.777V28.6663H38.277Z" fill="white"/>
</svg>
