<svg width="14" height="18" viewBox="0 0 14 18" fill="none" xmlns="http://www.w3.org/2000/svg">
<path d="M2.625 3.27273H11.375V4.90909H13.125V1.63636C13.125 0.736364 12.3375 0.00818181 11.375 0.00818181L2.625 0C1.6625 0 0.875 0.736364 0.875 1.63636V4.90909H2.625V3.27273ZM9.98375 12.7555L14 9L9.98375 5.24455L8.75 6.40636L11.5238 9L8.75 11.5936L9.98375 12.7555ZM5.25 11.5936L2.47625 9L5.25 6.40636L4.01625 5.24455L0 9L4.01625 12.7555L5.25 11.5936ZM11.375 14.7273H2.625V13.0909H0.875V16.3636C0.875 17.2636 1.6625 18 2.625 18H11.375C12.3375 18 13.125 17.2636 13.125 16.3636V13.0909H11.375V14.7273Z" fill="#C2C2C2"/>
</svg>
