<svg width="30" height="32" viewBox="0 0 30 32" fill="none" xmlns="http://www.w3.org/2000/svg">
<path d="M7.91732 3.24935H3.66732V7.49935H0.833984V0.416016H7.91732V3.24935ZM29.1673 7.49935V0.416016H22.084V3.24935H26.334V7.49935H29.1673ZM7.91732 28.7493H3.66732V24.4993H0.833984V31.5827H7.91732V28.7493ZM26.334 24.4993V28.7493H22.084V31.5827H29.1673V24.4993H26.334ZM22.084 7.49935H7.91732V24.4993H22.084V7.49935ZM24.9173 24.4993C24.9173 26.0577 23.6423 27.3327 22.084 27.3327H7.91732C6.35898 27.3327 5.08398 26.0577 5.08398 24.4993V7.49935C5.08398 5.94102 6.35898 4.66602 7.91732 4.66602H22.084C23.6423 4.66602 24.9173 5.94102 24.9173 7.49935V24.4993ZM19.2507 10.3327H10.7507V13.166H19.2507V10.3327ZM19.2507 14.5827H10.7507V17.416H19.2507V14.5827ZM19.2507 18.8327H10.7507V21.666H19.2507V18.8327Z" fill="white"/>
</svg>
