<svg width="21" height="19" viewBox="0 0 21 19" fill="none" xmlns="http://www.w3.org/2000/svg">
<path d="M18.9869 8.69941C18.8161 8.69941 18.6439 8.64827 18.4951 8.54153C18.1215 8.27372 18.039 7.7592 18.3113 7.39168C18.9765 6.49238 19.328 5.4448 19.328 4.36142C19.328 3.27804 18.9713 2.21064 18.2963 1.31134C18.0221 0.945739 18.1008 0.430575 18.4724 0.160849C18.844 -0.108877 19.3676 -0.0315388 19.6418 0.334061C20.5306 1.51843 21.0003 2.91116 21.0003 4.36142C21.0003 5.81167 20.5377 7.1782 19.6626 8.36065C19.4989 8.5818 19.2442 8.69941 18.9856 8.69941H18.9869Z" fill="#066B69"/>
<path d="M16.7106 7.40641C16.5397 7.40641 16.3675 7.35528 16.2188 7.24854C15.8452 6.98073 15.7627 6.46621 16.0349 6.09869C16.4695 5.51194 16.6989 4.82868 16.6989 4.1224C16.6989 3.41613 16.4663 2.72072 16.0258 2.13397C15.7516 1.76837 15.8302 1.25321 16.2019 0.983481C16.5735 0.713755 17.0971 0.791093 17.3713 1.15669C18.0255 2.02851 18.3711 3.05436 18.3711 4.1224C18.3711 5.19044 18.0307 6.19712 17.3869 7.06702C17.2232 7.28817 16.9685 7.40577 16.7099 7.40577L16.7106 7.40641Z" fill="#066B69"/>
<path d="M11.2781 0.593004C11.2476 0.589808 11.2164 0.587891 11.1852 0.587891H4.17189C2.26703 0.587891 0.654522 1.82978 0.140625 3.52676H15.2119C14.7065 1.8611 13.1407 0.63391 11.2781 0.593004Z" fill="#066B69"/>
<path d="M2.86964 8.56911V15.2062C2.86964 16.8041 4.20343 18.1041 5.84323 18.1041C7.48302 18.1041 8.81682 16.8041 8.81682 15.2062V9.08172C8.81682 8.91234 8.96364 8.77492 9.1436 8.77492H11.1817C13.3288 8.77492 15.1044 7.19875 15.3533 5.17261H0C0.196853 6.74878 1.3312 8.07951 2.86964 8.56911Z" fill="#066B69"/>
</svg>
