<svg width="22" height="24" viewBox="0 0 22 24" fill="none" xmlns="http://www.w3.org/2000/svg">
<path d="M12.316 24.0004C10.7822 24.0004 9.52734 22.9779 9.52734 21.7695H10.6428C10.6428 22.3737 11.4329 22.885 12.316 22.885C13.2455 22.885 13.9892 22.3737 13.9892 21.7695H15.1046C15.1046 22.9779 13.8497 24.0004 12.316 24.0004Z" fill="#008B8B"/>
<path d="M12.3175 3.8277C11.9922 3.8277 11.7598 3.59532 11.7598 3.26997V1.59679C11.7598 1.27145 11.9922 1.03906 12.3175 1.03906C12.6428 1.03906 12.8752 1.27145 12.8752 1.59679V3.26997C12.8752 3.54884 12.6428 3.8277 12.3175 3.8277Z" fill="#008B8B"/>
<path d="M21.287 21.1644H3.34679C3.06793 21.1644 2.78906 20.932 2.78906 20.6067V19.4912C2.78906 19.3518 2.83554 19.2123 2.97497 19.0729C4.64816 17.4462 5.5777 15.3082 5.5777 13.3562V9.4521C5.5777 5.73392 8.59873 2.71289 12.3169 2.71289C16.0351 2.71289 19.0561 5.73392 19.0561 9.40563V13.3097C19.0561 15.3082 20.0322 17.3997 21.7053 19.0729C21.7983 19.1659 21.8912 19.3053 21.8912 19.4912V20.6067C21.8448 20.932 21.5659 21.1644 21.287 21.1644ZM3.90452 20.0489H20.6828V19.7236C18.9167 17.8645 17.8942 15.5406 17.8942 13.3562V9.4521C17.8942 6.3846 15.3844 3.87482 12.3169 3.87482C9.24941 3.87482 6.73964 6.3846 6.73964 9.4521V13.3562C6.73964 15.5871 5.71713 17.911 3.951 19.7236V20.0489H3.90452Z" fill="#008B8B"/>
<path d="M3.81156 8.29083C3.62565 8.29083 3.43975 8.19788 3.34679 8.01197C2.97497 7.40776 2.78906 6.75708 2.78906 6.05992C2.78906 4.6656 3.5327 3.36423 4.74111 2.66707C5.01997 2.52764 5.34532 2.6206 5.48475 2.85298C5.62418 3.13185 5.53122 3.45719 5.29884 3.59662C4.41577 4.10787 3.90452 5.03742 3.90452 6.01344C3.90452 6.52469 4.04395 6.98947 4.27634 7.40776C4.41577 7.68663 4.32281 8.01197 4.09043 8.1514C3.99747 8.29083 3.90452 8.29083 3.81156 8.29083Z" fill="#008B8B"/>
<path d="M1.25489 9.406C1.06898 9.406 0.836592 9.31305 0.743637 9.08066C0.278864 8.15111 0 7.08214 0 6.01316C0 3.54986 1.39432 1.22599 3.67171 0.0640594C3.95057 -0.0753726 4.27591 0.0175821 4.41535 0.296446C4.55478 0.57531 4.46182 0.947129 4.18296 1.08656C2.27739 2.06258 1.11546 3.96816 1.11546 6.05964C1.11546 6.9427 1.30137 7.82577 1.71966 8.61589C1.85909 8.89475 1.76614 9.22009 1.48727 9.35953C1.39432 9.406 1.30137 9.406 1.25489 9.406Z" fill="#008B8B"/>
</svg>
