<svg width="26" height="26" viewBox="0 0 26 26" fill="none" xmlns="http://www.w3.org/2000/svg">
<path d="M13.5457 1H8.08984V3.18071H13.5457V1Z" stroke="#008B8B" stroke-linecap="round" stroke-linejoin="round"/>
<path d="M1 7.54627L3.72791 4.81836" stroke="#008B8B" stroke-linecap="round" stroke-linejoin="round"/>
<path d="M4.27022 8.08858L2.63672 6.45508" stroke="#008B8B" stroke-linecap="round" stroke-linejoin="round"/>
<path d="M10.8164 15.1822L23.9088 2.08984" stroke="#008B8B" stroke-linecap="round" stroke-linejoin="round"/>
<path d="M22.8202 3.18071L21.1827 1L19.002 3.18071V6.99897" stroke="#008B8B" stroke-linecap="round" stroke-linejoin="round"/>
<path d="M22.8202 3.18164L25.0009 4.8192L22.8202 6.9999H19.002" stroke="#008B8B" stroke-linecap="round" stroke-linejoin="round"/>
<path d="M16.5879 11.0649C17.4188 12.2241 17.9052 13.6469 17.9052 15.1831C17.9052 19.0986 14.7314 22.2724 10.8159 22.2724C6.90034 22.2724 3.72656 19.0986 3.72656 15.1831C3.72656 11.2675 6.90034 8.09375 10.8159 8.09375C12.3602 8.09375 13.7911 8.58826 14.9584 9.42731" stroke="#008B8B" stroke-linecap="round" stroke-linejoin="round"/>
<path d="M14.2171 13.4407C14.4846 13.9636 14.6346 14.5554 14.6346 15.1796C14.6346 17.2873 12.9241 18.9979 10.8163 18.9979C8.70856 18.9979 6.99805 17.2873 6.99805 15.1796C6.99805 13.0718 8.70856 11.3613 10.8163 11.3613C11.4567 11.3613 12.0607 11.5194 12.5917 11.7991" stroke="#008B8B" stroke-linecap="round" stroke-linejoin="round"/>
<path d="M16.9018 7.47769C15.4993 6.36707 13.7848 5.63341 11.9121 5.42669V4.27148" stroke="#008B8B" stroke-linecap="round" stroke-linejoin="round"/>
<path d="M9.72688 4.27148V5.42669C4.81826 5.96984 1 10.1286 1 15.1831C1 20.6065 5.39384 25.0004 10.8172 25.0004C16.2406 25.0004 20.6345 20.6065 20.6345 15.1831C20.6345 12.893 19.8481 10.7852 18.5348 9.11525" stroke="#008B8B" stroke-linecap="round" stroke-linejoin="round"/>
</svg>
