<svg width="29" height="32" viewBox="0 0 29 32" fill="none" xmlns="http://www.w3.org/2000/svg">
<path d="M6.58492 18.5391V19.6272H4.94336V22.4887V30.7103H10.894V22.4887V19.6272H9.0883V18.5391H6.58492Z" fill="#11F351"/>
<path d="M28.3772 25.6725C28.213 20.1108 26.2021 16.0403 24.9709 13.5416C24.6016 12.8161 24.3143 12.2116 24.1912 11.8086C23.6167 10.1965 25.1351 9.10831 25.2172 9.02771C25.2582 8.9874 25.2993 8.9874 25.2993 8.9471C26.5304 8.06045 27.146 6.93199 27.146 5.48111C27.146 2.25693 21.2774 0 12.9055 0C4.24622 0 1.12726 1.28967 1.00414 1.32997C0.716867 1.45088 0.59375 1.6927 0.59375 1.97481C1.00414 7.93955 5.39532 10.6801 5.55947 10.801C5.68259 10.8816 5.80571 10.8816 5.92883 10.8816H9.29403C9.82753 11.1234 12.3309 12.3728 12.4951 15.0327C12.4951 15.3552 12.7413 15.597 13.0696 15.6373C13.1517 15.6373 13.2338 15.6373 13.3159 15.6373C13.8083 15.6373 14.5881 15.4358 15.2447 14.7103C16.5579 15.9194 16.6811 17.2091 16.9683 20.3123L17.0094 20.6348C17.1735 22.529 18.2816 23.6171 19.1434 24.4635C20.2104 25.471 20.5387 25.8741 19.8821 26.9622C19.6359 27.3652 19.4307 27.7683 19.2665 28.1713C18.774 29.2997 19.0613 30.5088 20.0052 31.3149C20.5387 31.7582 21.1543 32 21.8109 32C22.3034 32 22.7959 31.8791 23.2473 31.597C25.2172 30.4685 26.6946 29.1788 27.5564 28.2922C28.0899 27.7683 28.3772 27.0428 28.3772 26.3174C28.4182 26.1159 28.4182 25.9144 28.3772 25.6725ZM22.919 12.2116C23.0831 12.6952 23.4115 13.34 23.7808 14.1058C24.9299 16.4433 26.7767 20.1914 27.0639 25.2292C26.6125 25.3904 26.2021 25.471 25.9148 25.5113C25.8328 25.5113 25.7507 25.5113 25.7096 25.4307C24.1912 23.6574 21.3595 19.1033 19.8821 15.3552C18.6509 12.2116 19.5948 11.0025 19.9231 10.6801C21.0312 10.5592 22.0161 10.3577 22.8779 10.0756C22.6728 10.7204 22.6317 11.4458 22.919 12.2116ZM1.98908 2.41814C3.09713 2.05542 6.38025 1.32997 12.9055 1.32997C21.7699 1.32997 25.7917 3.74811 25.7917 5.48111C25.7917 7.61713 23.6987 8.9471 19.5948 9.43073C19.5538 9.43073 19.5127 9.43073 19.4717 9.43073C18.4047 9.55164 17.2146 9.59194 15.8603 9.59194H14.2598H9.45818H9.41714H6.13402C5.43636 9.10831 2.48155 6.77078 1.98908 2.41814ZM14.4649 13.5819C14.2187 13.9446 13.9725 14.1461 13.7673 14.267C13.48 12.7355 12.6182 11.6474 11.7564 10.9219H14.0135C14.5881 11.4458 14.9164 11.9698 14.9574 12.4534C14.9985 13.0579 14.5881 13.4207 14.5881 13.461C14.547 13.5013 14.506 13.5416 14.4649 13.5819ZM22.5907 30.5491C21.9341 30.9118 21.2774 30.7103 20.9081 30.3879C20.5387 30.0655 20.2104 29.461 20.5387 28.7758C20.7029 28.4131 20.867 28.0504 21.0722 27.6877C22.2213 25.6725 21.1133 24.5441 20.0873 23.5768C19.3076 22.8111 18.4457 22.005 18.3226 20.5542L18.2816 20.272C17.9943 16.8463 17.8301 15.2343 16.0244 13.7028C16.1886 13.3804 16.3117 12.937 16.3117 12.4534C16.3117 11.9295 16.1065 11.4458 15.8192 10.9219H15.9013C16.7221 10.9219 17.5429 10.8816 18.2816 10.8413C17.8712 11.8086 17.707 13.4207 18.6509 15.8388C20.1694 19.7078 23.1242 24.3829 24.6837 26.2771C24.9709 26.6398 25.4224 26.8413 25.9148 26.8413C25.9969 26.8413 26.038 26.8413 26.12 26.8413C26.3663 26.801 26.7356 26.7607 27.105 26.6398C27.0639 26.9219 26.8998 27.204 26.6946 27.4055C25.9559 28.131 24.5606 29.4207 22.5907 30.5491Z" fill="white"/>
</svg>
