<svg width="34" height="34" viewBox="0 0 34 34" fill="none" xmlns="http://www.w3.org/2000/svg">
<path d="M5.53506 26.6729C8.92111 24.759 12.833 23.6667 17 23.6667C21.167 23.6667 25.0789 24.759 28.4649 26.6729M22 13.6667C22 16.4281 19.7614 18.6667 17 18.6667C14.2386 18.6667 12 16.4281 12 13.6667C12 10.9052 14.2386 8.66667 17 8.66667C19.7614 8.66667 22 10.9052 22 13.6667ZM32 17C32 25.2843 25.2843 32 17 32C8.71573 32 2 25.2843 2 17C2 8.71573 8.71573 2 17 2C25.2843 2 32 8.71573 32 17Z" stroke="#1873BC" stroke-width="3" stroke-linecap="round" stroke-linejoin="round"/>
</svg>
