<svg width="26" height="22" viewBox="0 0 26 22" fill="none" xmlns="http://www.w3.org/2000/svg">
<path d="M22.7148 1C23.6196 2.22588 24.1434 3.70958 24.1434 5.30031C24.1434 6.89103 23.6249 8.35041 22.736 9.57143" stroke="#084F4B" stroke-width="2" stroke-linecap="round" stroke-linejoin="round"/>
<path d="M20 2C20.6333 2.85812 21 3.89671 21 5.01022C21 6.12372 20.637 7.14529 20.0148 8" stroke="#084F4B" stroke-width="2" stroke-linecap="round" stroke-linejoin="round"/>
<path d="M13.409 1.71484H5.02453C2.80512 1.71484 1 3.49641 1 5.69173C1 7.69721 2.5092 9.35222 4.46721 9.61994V18.4791C4.46721 19.8713 5.61144 21.0006 7.022 21.0006C8.43256 21.0006 9.57679 19.8713 9.57679 18.4791V11.0364C9.57679 10.2771 10.1982 9.66375 10.9676 9.66375H13.404C15.6284 9.66375 17.4286 7.88705 17.4286 5.69173C17.4286 3.49641 15.6284 1.71971 13.404 1.71971L13.409 1.71484Z" stroke="#084F4B" stroke-width="2" stroke-linecap="round" stroke-linejoin="round"/>
<path d="M17.4286 5.28516H1" stroke="#084F4B" stroke-width="2" stroke-linecap="round" stroke-linejoin="round"/>
</svg>
