<svg width="48" height="48" viewBox="0 0 48 48" fill="none" xmlns="http://www.w3.org/2000/svg">
<path fill-rule="evenodd" clip-rule="evenodd" d="M31.838 24.2724C31.5596 24.2724 31.3409 24.0498 31.3409 23.7665V12.1725C31.3409 11.8892 31.5596 11.6666 31.838 11.6666H35.1287L37.0971 6.34512L29.4323 3.41333C28.9054 6.03061 26.6339 7.91328 24.004 7.91328C21.364 7.91328 19.0922 6.03022 18.5561 3.41251L10.9009 6.335L12.8693 11.6565H16.16C16.4384 11.6565 16.6571 11.8791 16.6571 12.1624V23.7564C16.6571 24.0397 16.4384 24.2623 16.16 24.2623C15.8816 24.2623 15.6629 24.0397 15.6629 23.7564V21.466L10.9903 23.5945L23.9989 29.3506L37.0171 23.6145L32.335 21.492V23.7665C32.335 24.0397 32.1163 24.2724 31.838 24.2724ZM19.5026 3.09213C19.5056 3.10388 19.5082 3.11583 19.5104 3.12796C19.918 5.31323 21.8069 6.90159 23.9941 6.90159C26.1813 6.90159 28.0702 5.31323 28.4778 3.12796C28.48 3.11579 28.4826 3.1038 28.4857 3.092C27.1238 3.89526 25.5784 4.31161 23.994 4.31161C22.4097 4.31161 20.8643 3.89531 19.5026 3.09213ZM20.1367 35.7045L23.4375 31.4636V45.2308L10.1748 39.7308V34.217C10.1748 33.9338 9.95611 33.7112 9.67775 33.7112C9.39938 33.7112 9.18066 33.9338 9.18066 34.217V40.0747C9.18066 40.2771 9.29996 40.4592 9.48886 40.5401L23.7452 46.4383C23.8048 46.4687 23.8744 46.4788 23.9341 46.4788C23.9937 46.4788 24.0633 46.4687 24.123 46.4484L38.3793 40.5401C38.5682 40.4693 38.6875 40.2771 38.6875 40.0747V34.217C38.6875 33.9338 38.4688 33.7112 38.1904 33.7112C37.912 33.7112 37.6933 33.9338 37.6933 34.217V39.7308L24.4317 45.2304V31.2691L27.8509 35.7043C27.9404 35.8257 28.0895 35.8965 28.2387 35.8965C28.3083 35.8965 28.3778 35.8864 28.4375 35.8662L42.6938 29.5936C42.8429 29.5228 42.9424 29.4014 42.9821 29.2497C43.0219 29.0979 42.9921 28.936 42.8927 28.8146L38.6575 23.3211C38.6078 23.2503 38.5382 23.1997 38.4686 23.1694L32.335 20.3867V12.6783H35.4766C35.6854 12.6783 35.8743 12.5468 35.9439 12.3546L38.2106 6.22372C38.31 5.97079 38.1807 5.6774 37.9223 5.57623L28.6566 2.03529C28.5075 1.97459 28.3484 1.99483 28.2192 2.07576C26.9566 2.875 25.4952 3.29992 24.0039 3.29992C22.5127 3.29992 21.0513 2.875 19.7887 2.07576C19.6594 1.99483 19.5004 1.98471 19.3513 2.03529L10.0856 5.57623C9.96634 5.62682 9.85698 5.71787 9.80727 5.83927C9.75756 5.96068 9.74762 6.10231 9.79733 6.22372L12.0541 12.3546C12.1336 12.5468 12.3126 12.6783 12.5213 12.6783H15.6629V20.4267C15.5833 20.4208 15.5014 20.4339 15.4243 20.4684L9.52892 23.1595C9.44939 23.2 9.38974 23.2505 9.34003 23.3113L5.10489 28.8048C5.01541 28.9262 4.97565 29.088 5.01541 29.2398C5.05518 29.3915 5.16454 29.5231 5.30372 29.5838L19.56 35.8563C19.6296 35.8866 19.6893 35.8968 19.7589 35.8968C19.908 35.8968 20.0571 35.8259 20.1367 35.7045ZM26.0923 26.6193C25.8139 26.6193 25.5952 26.3967 25.5952 26.1134V21.0347C25.5952 20.7514 25.8139 20.5289 26.0923 20.5289H27.7923L23.9946 16.3L20.1969 20.5289H21.9069C22.1852 20.5289 22.404 20.7514 22.404 21.0347V25.7897C22.404 26.0729 22.1852 26.2955 21.9069 26.2955C21.6285 26.2955 21.4098 26.0729 21.4098 25.7897V21.5406H20.008C19.6402 21.5406 19.3221 21.3281 19.1829 20.9942C19.0437 20.6604 19.0934 20.2759 19.3419 20.0028L23.3285 15.5513C23.4975 15.3591 23.7461 15.2478 23.9946 15.2478C24.2531 15.2478 24.4917 15.3591 24.6607 15.5513L28.6473 20.0028C28.8959 20.2759 28.9555 20.6604 28.8064 20.9942C28.6573 21.3382 28.3391 21.5406 27.9812 21.5406H26.5795V26.1134C26.5894 26.3967 26.3707 26.6193 26.0923 26.6193ZM24.7889 30.0995L28.3977 34.7634L41.7096 28.9057L38.1008 24.2317L38.0931 24.2358L38.0866 24.2396C38.0749 24.2465 38.0656 24.2519 38.0511 24.2519L24.7889 30.0995ZM19.6098 34.7637L6.28795 28.9059L9.92659 24.2117C9.96636 24.242 10.0061 24.2622 10.0459 24.2825L23.2385 30.1099L19.6098 34.7637Z" fill="white"/>
<path d="M35.1287 11.6666V11.9166H35.3027L35.3631 11.7534L35.1287 11.6666ZM37.0971 6.34512L37.3316 6.43185L37.4174 6.19995L37.1864 6.11162L37.0971 6.34512ZM29.4323 3.41333L29.5216 3.17983L29.2455 3.07423L29.1872 3.364L29.4323 3.41333ZM18.5561 3.41251L18.8011 3.36236L18.742 3.07396L18.467 3.17896L18.5561 3.41251ZM10.9009 6.335L10.8117 6.10145L10.5805 6.18969L10.6664 6.42174L10.9009 6.335ZM12.8693 11.6565L12.6348 11.7433L12.6952 11.9065H12.8693V11.6565ZM15.6629 21.466H15.9129V21.0774L15.5593 21.2385L15.6629 21.466ZM10.9903 23.5945L10.8867 23.367L10.38 23.5978L10.8892 23.8231L10.9903 23.5945ZM23.9989 29.3506L23.8977 29.5792L23.9987 29.6239L24.0997 29.5794L23.9989 29.3506ZM37.0171 23.6145L37.1179 23.8433L37.6298 23.6178L37.1204 23.3868L37.0171 23.6145ZM32.335 21.492L32.4383 21.2643L32.085 21.1042V21.492H32.335ZM19.5026 3.09213L19.6296 2.87679L19.1109 2.57089L19.2604 3.15418L19.5026 3.09213ZM19.5104 3.12796L19.2644 3.17272L19.2646 3.1738L19.5104 3.12796ZM28.4778 3.12796L28.7235 3.1738L28.7237 3.17272L28.4778 3.12796ZM28.4857 3.092L28.7278 3.1541L28.8774 2.57066L28.3586 2.87667L28.4857 3.092ZM23.4375 31.4636H23.6875V30.7354L23.2402 31.3101L23.4375 31.4636ZM20.1367 35.7045L19.9394 35.551L19.9331 35.559L19.9275 35.5675L20.1367 35.7045ZM23.4375 45.2308L23.3417 45.4617L23.6875 45.6051V45.2308H23.4375ZM10.1748 39.7308H9.92483V39.8977L10.0791 39.9617L10.1748 39.7308ZM9.48886 40.5401L9.39039 40.7699L9.39328 40.7711L9.48886 40.5401ZM23.7452 46.4383L23.8586 46.2155L23.8498 46.2111L23.8408 46.2073L23.7452 46.4383ZM24.123 46.4484L24.2033 46.6852L24.2111 46.6825L24.2187 46.6794L24.123 46.4484ZM38.3793 40.5401L38.2915 40.3059L38.2836 40.3092L38.3793 40.5401ZM37.6933 39.7308L37.7891 39.9617L37.9433 39.8977V39.7308H37.6933ZM24.4317 45.2304H24.1817V45.6047L24.5274 45.4613L24.4317 45.2304ZM24.4317 31.2691L24.6297 31.1164L24.1817 30.5353V31.2691H24.4317ZM27.8509 35.7043L28.0522 35.5559L28.0489 35.5517L27.8509 35.7043ZM28.4375 35.8662L28.5178 36.1029L28.5282 36.0994L28.5382 36.095L28.4375 35.8662ZM42.6938 29.5936L42.7945 29.8226L42.8011 29.8195L42.6938 29.5936ZM42.9821 29.2497L42.7403 29.1863L42.7403 29.1863L42.9821 29.2497ZM42.8927 28.8146L42.6946 28.9673L42.6992 28.973L42.8927 28.8146ZM38.6575 23.3211L38.4527 23.4649L38.4595 23.4738L38.6575 23.3211ZM38.4686 23.1694L38.3653 23.3971L38.3687 23.3985L38.4686 23.1694ZM32.335 20.3867H32.085V20.5478L32.2318 20.6143L32.335 20.3867ZM32.335 12.6783V12.4283H32.085V12.6783H32.335ZM35.9439 12.3546L35.7094 12.2679L35.7088 12.2695L35.9439 12.3546ZM38.2106 6.22372L37.9778 6.13224L37.9761 6.13702L38.2106 6.22372ZM37.9223 5.57623L38.0134 5.34342L38.0115 5.3427L37.9223 5.57623ZM28.6566 2.03529L28.5624 2.2669L28.5674 2.26882L28.6566 2.03529ZM28.2192 2.07576L28.0865 1.86388L28.0855 1.86453L28.2192 2.07576ZM19.7887 2.07576L19.9224 1.86453L19.9214 1.86388L19.7887 2.07576ZM19.3513 2.03529L19.2709 1.79837L19.262 1.80177L19.3513 2.03529ZM10.0856 5.57623L9.99633 5.34255L9.98804 5.34607L10.0856 5.57623ZM9.80727 5.83927L9.57591 5.74454L9.57591 5.74455L9.80727 5.83927ZM9.79733 6.22372L10.0321 6.1373L10.0287 6.12899L9.79733 6.22372ZM12.0541 12.3546L11.8193 12.441L11.8231 12.4502L12.0541 12.3546ZM15.6629 12.6783H15.9129V12.4283H15.6629V12.6783ZM15.6629 20.4267L15.6444 20.676L15.9129 20.6959V20.4267H15.6629ZM15.4243 20.4684L15.3222 20.2402L15.3205 20.241L15.4243 20.4684ZM9.52892 23.1595L9.42501 22.9319L9.41555 22.9367L9.52892 23.1595ZM9.34003 23.3113L9.14653 23.1528L9.14204 23.1586L9.34003 23.3113ZM5.10489 28.8048L4.90685 28.6521L4.90364 28.6564L5.10489 28.8048ZM5.01541 29.2398L5.25725 29.1764H5.25725L5.01541 29.2398ZM5.30372 29.5838L5.4044 29.3549L5.40366 29.3546L5.30372 29.5838ZM19.56 35.8563L19.4594 36.0851L19.4601 36.0854L19.56 35.8563ZM27.7923 20.5289V20.7789H28.3529L27.9783 20.3618L27.7923 20.5289ZM23.9946 16.3L24.1806 16.1329L23.9946 15.9258L23.8086 16.1329L23.9946 16.3ZM20.1969 20.5289L20.0109 20.3618L19.6364 20.7789H20.1969V20.5289ZM21.4098 21.5406H21.6598V21.2906H21.4098V21.5406ZM19.3419 20.0028L19.5269 20.171L19.5282 20.1696L19.3419 20.0028ZM23.3285 15.5513L23.5148 15.7181L23.5163 15.7164L23.3285 15.5513ZM24.6607 15.5513L24.473 15.7164L24.4745 15.7181L24.6607 15.5513ZM28.6473 20.0028L28.4611 20.1696L28.4624 20.171L28.6473 20.0028ZM28.8064 20.9942L28.5781 20.8923L28.577 20.8948L28.8064 20.9942ZM26.5795 21.5406V21.2906H26.3295V21.5406H26.5795ZM26.5795 26.1134H26.3293L26.3296 26.1222L26.5795 26.1134ZM28.3977 34.7634L28.2 34.9164L28.3196 35.0709L28.4984 34.9922L28.3977 34.7634ZM24.7889 30.0995L24.688 29.8707L24.3956 29.9997L24.5912 30.2525L24.7889 30.0995ZM41.7096 28.9057L41.8103 29.1345L42.1028 29.0058L41.9075 28.7529L41.7096 28.9057ZM38.1008 24.2317L38.2987 24.0789L38.1689 23.9109L37.9821 24.0116L38.1008 24.2317ZM38.0931 24.2358L37.9744 24.0156L37.9677 24.0195L38.0931 24.2358ZM38.0866 24.2396L37.9611 24.0234L37.9599 24.024L38.0866 24.2396ZM38.0511 24.2519V24.0019H37.9984L37.9502 24.0231L38.0511 24.2519ZM6.28795 28.9059L6.09035 28.7528L5.89416 29.0059L6.18732 29.1348L6.28795 28.9059ZM19.6098 34.7637L19.5091 34.9925L19.6873 35.0708L19.8069 34.9174L19.6098 34.7637ZM9.92659 24.2117L10.0783 24.0129L9.88101 23.8624L9.729 24.0585L9.92659 24.2117ZM10.0459 24.2825L9.93235 24.5056L9.94488 24.5112L10.0459 24.2825ZM23.2385 30.1099L23.4356 30.2636L23.6328 30.0107L23.3395 29.8812L23.2385 30.1099ZM31.0909 23.7665C31.0909 24.1837 31.4174 24.5224 31.838 24.5224V24.0224C31.7018 24.0224 31.5909 23.9159 31.5909 23.7665H31.0909ZM31.0909 12.1725V23.7665H31.5909V12.1725H31.0909ZM31.838 11.4166C31.4174 11.4166 31.0909 11.7553 31.0909 12.1725H31.5909C31.5909 12.0232 31.7018 11.9166 31.838 11.9166V11.4166ZM35.1287 11.4166H31.838V11.9166H35.1287V11.4166ZM36.8626 6.25839L34.8942 11.5799L35.3631 11.7534L37.3316 6.43185L36.8626 6.25839ZM29.3429 3.64683L37.0078 6.57862L37.1864 6.11162L29.5216 3.17983L29.3429 3.64683ZM29.1872 3.364C28.6833 5.86713 26.5123 7.66328 24.004 7.66328V8.16328C26.7556 8.16328 29.1276 6.19409 29.6773 3.46266L29.1872 3.364ZM24.004 7.66328C21.4856 7.66328 19.3139 5.86651 18.8011 3.36236L18.3112 3.46267C18.8705 6.19392 21.2425 8.16328 24.004 8.16328V7.66328ZM10.99 6.56856L18.6453 3.64607L18.467 3.17896L10.8117 6.10145L10.99 6.56856ZM13.1038 11.5698L11.1353 6.24827L10.6664 6.42174L12.6348 11.7433L13.1038 11.5698ZM16.16 11.4065H12.8693V11.9065H16.16V11.4065ZM16.9071 12.1624C16.9071 11.7452 16.5805 11.4065 16.16 11.4065V11.9065C16.2962 11.9065 16.4071 12.013 16.4071 12.1624H16.9071ZM16.9071 23.7564V12.1624H16.4071V23.7564H16.9071ZM16.16 24.5123C16.5805 24.5123 16.9071 24.1736 16.9071 23.7564H16.4071C16.4071 23.9058 16.2962 24.0123 16.16 24.0123V24.5123ZM15.4129 23.7564C15.4129 24.1736 15.7394 24.5123 16.16 24.5123V24.0123C16.0238 24.0123 15.9129 23.9058 15.9129 23.7564H15.4129ZM15.4129 21.466V23.7564H15.9129V21.466H15.4129ZM11.094 23.822L15.7665 21.6935L15.5593 21.2385L10.8867 23.367L11.094 23.822ZM24.1 29.122L11.0915 23.3659L10.8892 23.8231L23.8977 29.5792L24.1 29.122ZM36.9163 23.3857L23.8981 29.1218L24.0997 29.5794L37.1179 23.8433L36.9163 23.3857ZM32.2318 21.7197L36.9139 23.8422L37.1204 23.3868L32.4383 21.2643L32.2318 21.7197ZM32.585 23.7665V21.492H32.085V23.7665H32.585ZM31.838 24.5224C32.2617 24.5224 32.585 24.1703 32.585 23.7665H32.085C32.085 23.909 31.9709 24.0224 31.838 24.0224V24.5224ZM19.2604 3.15418C19.2619 3.16023 19.2633 3.16641 19.2644 3.17272L19.7564 3.08321C19.7531 3.06526 19.7492 3.04754 19.7447 3.03007L19.2604 3.15418ZM19.2646 3.1738C19.6938 5.47473 21.6838 7.15159 23.9941 7.15159V6.65159C21.93 6.65159 20.1422 5.15172 19.7562 3.08212L19.2646 3.1738ZM23.9941 7.15159C26.3044 7.15159 28.2944 5.47473 28.7235 3.1738L28.232 3.08212C27.846 5.15172 26.0581 6.65159 23.9941 6.65159V7.15159ZM28.7237 3.17272C28.7249 3.16651 28.7262 3.1603 28.7278 3.1541L28.2435 3.0299C28.239 3.04729 28.2351 3.06507 28.2318 3.08321L28.7237 3.17272ZM23.994 4.56161C25.6224 4.56161 27.2118 4.13361 28.6127 3.30733L28.3586 2.87667C27.0358 3.65691 25.5344 4.06161 23.994 4.06161V4.56161ZM19.3756 3.30746C20.7764 4.13366 22.3657 4.56161 23.994 4.56161V4.06161C22.4537 4.06161 20.9523 3.65696 19.6296 2.87679L19.3756 3.30746ZM23.2402 31.3101L19.9394 35.551L20.3339 35.8581L23.6348 31.6172L23.2402 31.3101ZM23.6875 45.2308V31.4636H23.1875V45.2308H23.6875ZM10.0791 39.9617L23.3417 45.4617L23.5333 44.9999L10.2706 39.4998L10.0791 39.9617ZM9.92483 34.217V39.7308H10.4248V34.217H9.92483ZM9.67775 33.9612C9.81394 33.9612 9.92483 34.0677 9.92483 34.217H10.4248C10.4248 33.7998 10.0983 33.4612 9.67775 33.4612V33.9612ZM9.43066 34.217C9.43066 34.0677 9.54155 33.9612 9.67775 33.9612V33.4612C9.25721 33.4612 8.93066 33.7998 8.93066 34.217H9.43066ZM9.43066 40.0747V34.217H8.93066V40.0747H9.43066ZM9.58732 40.3103C9.49016 40.2687 9.43066 40.1769 9.43066 40.0747H8.93066C8.93066 40.3773 9.10977 40.6497 9.39039 40.7699L9.58732 40.3103ZM23.8408 46.2073L9.58443 40.3091L9.39328 40.7711L23.6496 46.6693L23.8408 46.2073ZM23.9341 46.2288C23.9179 46.2288 23.9019 46.2274 23.8876 46.2246C23.8732 46.2218 23.8638 46.2182 23.8586 46.2155L23.6318 46.6611C23.7383 46.7153 23.8507 46.7288 23.9341 46.7288V46.2288ZM24.0427 46.2117C24.0114 46.2223 23.9692 46.2288 23.9341 46.2288V46.7288C24.0182 46.7288 24.1152 46.7151 24.2033 46.6852L24.0427 46.2117ZM38.2836 40.3092L24.0273 46.2175L24.2187 46.6794L38.475 40.7711L38.2836 40.3092ZM38.4375 40.0747C38.4375 40.1851 38.3718 40.2759 38.2915 40.306L38.4671 40.7742C38.7645 40.6627 38.9375 40.369 38.9375 40.0747H38.4375ZM38.4375 34.217V40.0747H38.9375V34.217H38.4375ZM38.1904 33.9612C38.3266 33.9612 38.4375 34.0677 38.4375 34.217H38.9375C38.9375 33.7998 38.6109 33.4612 38.1904 33.4612V33.9612ZM37.9433 34.217C37.9433 34.0677 38.0542 33.9612 38.1904 33.9612V33.4612C37.7699 33.4612 37.4433 33.7998 37.4433 34.217H37.9433ZM37.9433 39.7308V34.217H37.4433V39.7308H37.9433ZM24.5274 45.4613L37.7891 39.9617L37.5976 39.4998L24.3359 44.9995L24.5274 45.4613ZM24.1817 31.2691V45.2304H24.6817V31.2691H24.1817ZM28.0489 35.5517L24.6297 31.1164L24.2337 31.4217L27.6529 35.8569L28.0489 35.5517ZM28.2387 35.6465C28.1643 35.6465 28.0919 35.6098 28.0522 35.556L27.6497 35.8526C27.789 36.0416 28.0147 36.1465 28.2387 36.1465V35.6465ZM28.3572 35.6294C28.3277 35.6394 28.2858 35.6465 28.2387 35.6465V36.1465C28.3307 36.1465 28.428 36.1334 28.5178 36.1029L28.3572 35.6294ZM42.5931 29.3648L28.3368 35.6373L28.5382 36.095L42.7945 29.8225L42.5931 29.3648ZM42.7403 29.1863C42.7195 29.2657 42.67 29.3282 42.5866 29.3678L42.8011 29.8195C43.0159 29.7174 43.1652 29.5371 43.224 29.313L42.7403 29.1863ZM42.6992 28.973C42.7438 29.0275 42.7615 29.1054 42.7403 29.1863L43.224 29.313C43.2823 29.0904 43.2403 28.8446 43.0861 28.6562L42.6992 28.973ZM38.4595 23.4738L42.6947 28.9673L43.0906 28.662L38.8555 23.1685L38.4595 23.4738ZM38.3687 23.3985C38.403 23.4135 38.4336 23.4372 38.4529 23.4648L38.8621 23.1775C38.7821 23.0634 38.6734 22.9859 38.5686 22.9402L38.3687 23.3985ZM32.2318 20.6143L38.3653 23.397L38.5719 22.9417L32.4383 20.159L32.2318 20.6143ZM32.085 12.6783V20.3867H32.585V12.6783H32.085ZM35.4766 12.4283H32.335V12.9283H35.4766V12.4283ZM35.7088 12.2695C35.6758 12.3608 35.5822 12.4283 35.4766 12.4283V12.9283C35.7885 12.9283 36.0728 12.7329 36.1789 12.4397L35.7088 12.2695ZM37.9761 6.13702L35.7094 12.2679L36.1784 12.4413L38.445 6.31041L37.9761 6.13702ZM37.8311 5.80904C37.9636 5.86088 38.0257 6.01063 37.9779 6.13226L38.4432 6.31518C38.5943 5.93096 38.3979 5.49393 38.0134 5.34343L37.8311 5.80904ZM28.5674 2.26882L37.833 5.80976L38.0115 5.3427L28.7459 1.80177L28.5674 2.26882ZM28.3519 2.28764C28.4179 2.24633 28.4928 2.23852 28.5624 2.26685L28.7509 1.80374C28.5222 1.71067 28.279 1.74332 28.0865 1.86388L28.3519 2.28764ZM24.0039 3.54992C25.5427 3.54992 27.0505 3.11146 28.3529 2.287L28.0855 1.86453C26.8627 2.63855 25.4477 3.04992 24.0039 3.04992V3.54992ZM19.655 2.287C20.9574 3.11146 22.4652 3.54992 24.0039 3.54992V3.04992C22.5602 3.04992 21.1452 2.63855 19.9224 1.86453L19.655 2.287ZM19.4316 2.27204C19.521 2.24171 19.6 2.25256 19.656 2.28764L19.9214 1.86388C19.7189 1.73709 19.4798 1.72771 19.2709 1.79854L19.4316 2.27204ZM10.1749 5.80976L19.4405 2.26882L19.262 1.80177L9.99639 5.3427L10.1749 5.80976ZM10.0386 5.934C10.0568 5.88972 10.1065 5.83894 10.1832 5.8064L9.98804 5.34607C9.8262 5.41469 9.6572 5.54602 9.57591 5.74454L10.0386 5.934ZM10.0287 6.12899C10.0088 6.0803 10.0084 6.00787 10.0386 5.934L9.57591 5.74455C9.50674 5.91349 9.48649 6.12433 9.56597 6.31845L10.0287 6.12899ZM12.2887 12.2682L10.0319 6.13736L9.56272 6.31008L11.8195 12.441L12.2887 12.2682ZM12.5213 12.4283C12.4234 12.4283 12.3298 12.367 12.2851 12.259L11.8231 12.4502C11.9375 12.7266 12.2018 12.9283 12.5213 12.9283V12.4283ZM15.6629 12.4283H12.5213V12.9283H15.6629V12.4283ZM15.9129 20.4267V12.6783H15.4129V20.4267H15.9129ZM15.5265 20.6966C15.5645 20.6795 15.6048 20.673 15.6444 20.676L15.6814 20.1773C15.5619 20.1685 15.4384 20.1882 15.3222 20.2402L15.5265 20.6966ZM9.63274 23.3869L15.5281 20.6958L15.3205 20.241L9.42511 22.9321L9.63274 23.3869ZM9.53345 23.4696C9.56246 23.4342 9.5953 23.4062 9.6423 23.3823L9.41555 22.9367C9.30348 22.9937 9.21702 23.0669 9.14661 23.1529L9.53345 23.4696ZM5.30288 28.9574L9.53802 23.4639L9.14204 23.1586L4.9069 28.6521L5.30288 28.9574ZM5.25725 29.1764C5.2388 29.106 5.25613 29.0209 5.30614 28.9531L4.90364 28.6564C4.7747 28.8314 4.71249 29.07 4.77358 29.3032L5.25725 29.1764ZM5.40366 29.3546C5.3385 29.3262 5.27869 29.2582 5.25725 29.1764L4.77358 29.3032C4.83167 29.5249 4.99057 29.7199 5.20378 29.8129L5.40366 29.3546ZM19.6607 35.6275L5.4044 29.3549L5.20304 29.8126L19.4594 36.0851L19.6607 35.6275ZM19.7589 35.6468C19.7193 35.6468 19.6943 35.6421 19.66 35.6271L19.4601 36.0854C19.565 36.1312 19.6592 36.1468 19.7589 36.1468V35.6468ZM19.9275 35.5675C19.9007 35.6085 19.8363 35.6468 19.7589 35.6468V36.1468C19.9797 36.1468 20.2135 36.0434 20.3458 35.8415L19.9275 35.5675ZM25.3452 26.1134C25.3452 26.5306 25.6718 26.8693 26.0923 26.8693V26.3693C25.9561 26.3693 25.8452 26.2628 25.8452 26.1134H25.3452ZM25.3452 21.0347V26.1134H25.8452V21.0347H25.3452ZM26.0923 20.2789C25.6718 20.2789 25.3452 20.6175 25.3452 21.0347H25.8452C25.8452 20.8854 25.9561 20.7789 26.0923 20.7789V20.2789ZM27.7923 20.2789H26.0923V20.7789H27.7923V20.2789ZM23.8086 16.467L27.6063 20.6959L27.9783 20.3618L24.1806 16.1329L23.8086 16.467ZM20.3829 20.6959L24.1806 16.467L23.8086 16.1329L20.0109 20.3618L20.3829 20.6959ZM21.9069 20.2789H20.1969V20.7789H21.9069V20.2789ZM22.654 21.0347C22.654 20.6175 22.3274 20.2789 21.9069 20.2789V20.7789C22.0431 20.7789 22.154 20.8854 22.154 21.0347H22.654ZM22.654 25.7897V21.0347H22.154V25.7897H22.654ZM21.9069 26.5455C22.3274 26.5455 22.654 26.2069 22.654 25.7897H22.154C22.154 25.939 22.0431 26.0455 21.9069 26.0455V26.5455ZM21.1598 25.7897C21.1598 26.2069 21.4863 26.5455 21.9069 26.5455V26.0455C21.7707 26.0455 21.6598 25.939 21.6598 25.7897H21.1598ZM21.1598 21.5406V25.7897H21.6598V21.5406H21.1598ZM20.008 21.7906H21.4098V21.2906H20.008V21.7906ZM18.9521 21.0904C19.1304 21.5182 19.5401 21.7906 20.008 21.7906V21.2906C19.7403 21.2906 19.5137 21.138 19.4136 20.898L18.9521 21.0904ZM19.157 19.8345C18.8377 20.1855 18.7788 20.6748 18.9521 21.0904L19.4136 20.898C19.3085 20.6459 19.3491 20.3664 19.5268 20.171L19.157 19.8345ZM23.1423 15.3845L19.1557 19.836L19.5282 20.1696L23.5148 15.7181L23.1423 15.3845ZM23.9946 14.9978C23.6738 14.9978 23.357 15.1403 23.1408 15.3862L23.5163 15.7164C23.6381 15.5779 23.8183 15.4978 23.9946 15.4978V14.9978ZM24.8485 15.3862C24.6332 15.1414 24.3268 14.9978 23.9946 14.9978V15.4978C24.1794 15.4978 24.3502 15.5767 24.473 15.7164L24.8485 15.3862ZM28.8335 19.836L24.847 15.3845L24.4745 15.7181L28.4611 20.1696L28.8335 19.836ZM29.0346 21.0962C29.224 20.6722 29.148 20.1816 28.8322 19.8345L28.4624 20.171C28.6437 20.3703 28.687 20.6486 28.5781 20.8923L29.0346 21.0962ZM27.9812 21.7906C28.4383 21.7906 28.8468 21.5295 29.0358 21.0937L28.577 20.8948C28.4677 21.147 28.2399 21.2906 27.9812 21.2906V21.7906ZM26.5795 21.7906H27.9812V21.2906H26.5795V21.7906ZM26.8295 26.1134V21.5406H26.3295V26.1134H26.8295ZM26.0923 26.8693C26.5113 26.8693 26.8442 26.5302 26.8293 26.1046L26.3296 26.1222C26.3346 26.2632 26.23 26.3693 26.0923 26.3693V26.8693ZM28.5954 34.6104L24.9866 29.9465L24.5912 30.2525L28.2 34.9164L28.5954 34.6104ZM41.6089 28.6769L28.297 34.5346L28.4984 34.9922L41.8103 29.1345L41.6089 28.6769ZM37.9029 24.3844L41.5117 29.0585L41.9075 28.7529L38.2987 24.0789L37.9029 24.3844ZM38.2118 24.4558L38.2194 24.4517L37.9821 24.0116L37.9745 24.0157L38.2118 24.4558ZM38.212 24.4558L38.2186 24.452L37.9677 24.0195L37.9611 24.0234L38.212 24.4558ZM38.0511 24.5019C38.1407 24.5019 38.2031 24.4611 38.2132 24.4551L37.9599 24.024C37.9506 24.0295 37.9623 24.0221 37.9778 24.0159C37.999 24.0075 38.0242 24.0019 38.0511 24.0019V24.5019ZM24.8898 30.3282L38.1519 24.4806L37.9502 24.0231L24.688 29.8707L24.8898 30.3282ZM6.18732 29.1348L19.5091 34.9925L19.7104 34.5348L6.38857 28.6771L6.18732 29.1348ZM9.729 24.0585L6.09035 28.7528L6.48554 29.0591L10.1242 24.3648L9.729 24.0585ZM10.1593 24.0597C10.1178 24.0386 10.0975 24.0276 10.0783 24.0129L9.77492 24.4104C9.8352 24.4564 9.89443 24.4859 9.93252 24.5053L10.1593 24.0597ZM23.3395 29.8812L10.1469 24.0538L9.94488 24.5112L23.1374 30.3385L23.3395 29.8812ZM19.8069 34.9174L23.4356 30.2636L23.0413 29.9561L19.4126 34.6099L19.8069 34.9174Z" fill="white"/>
</svg>
