<svg width="48" height="48" viewBox="0 0 48 48" fill="none" xmlns="http://www.w3.org/2000/svg">
<path d="M44.9579 10.5228C44.9111 10.4096 44.8081 10.3247 44.6958 10.2776L30.8636 5.03291C30.7233 4.98574 30.5735 4.99518 30.4518 5.07064C28.5146 6.27804 26.2872 6.91948 24.0037 6.91948C21.7202 6.91948 19.4928 6.27804 17.5555 5.07064C17.4339 4.99518 17.2841 4.97631 17.1437 5.03291L3.30217 10.2776C3.18986 10.3247 3.09628 10.4096 3.04012 10.5228C2.99333 10.636 2.98397 10.7681 3.03076 10.8813L6.40927 19.9462C6.47478 20.1255 6.65259 20.2481 6.84913 20.2481H11.8186V40.0571C11.8186 40.3212 12.0245 40.5287 12.2866 40.5287H22.3753V41.0287C22.3753 42.67 23.6948 44 25.3233 44H37.4522C39.0806 44 40.4002 42.67 40.4002 41.0287V31.8882C40.4002 30.511 39.4643 29.3508 38.2102 29.0206V25.0022C38.2102 21.2102 35.1499 18.1257 31.3877 18.1257C27.6255 18.1257 24.5652 21.2102 24.5652 25.0022V29.0112C23.3111 29.3602 22.3753 30.511 22.3753 31.8882V39.5949H12.7545V19.7859C12.7545 19.5218 12.5486 19.3142 12.2866 19.3142H7.17668L4.06958 10.9945L16.2734 6.37237C17.1905 9.88139 20.3538 12.3717 23.9943 12.3717C27.6349 12.3717 30.8075 9.88139 31.7153 6.37237L43.9191 10.9945L40.812 19.3142H38.3506C38.0886 19.3142 37.8827 19.5218 37.8827 19.7859C37.8827 20.05 38.0886 20.2575 38.3506 20.2575H41.1395C41.3361 20.2575 41.5045 20.1349 41.5794 19.9557L44.9579 10.8907C45.014 10.7681 45.014 10.636 44.9579 10.5228ZM31.3877 19.0784C34.6352 19.0784 37.2744 21.7385 37.2744 25.0117V28.9263H35.9641V25.0022C35.9641 22.4554 33.9146 20.3896 31.3877 20.3896C28.8609 20.3896 26.8113 22.4554 26.8113 25.0022V28.9169H25.5011V25.0022C25.5011 21.7385 28.1496 19.0784 31.3877 19.0784ZM27.7472 28.9169V25.0022C27.7472 22.9742 29.385 21.3329 31.3877 21.3329C33.3905 21.3329 35.0283 22.9836 35.0283 25.0022V28.9169H27.7472ZM23.3111 31.8882C23.3111 30.7657 24.2096 29.8602 25.3233 29.8602H37.4522C38.5659 29.8602 39.4643 30.7657 39.4643 31.8882V41.0287C39.4643 42.1512 38.5659 43.0567 37.4522 43.0567H25.3233C24.2096 43.0567 23.3111 42.1512 23.3111 41.0287V31.8882ZM24.0037 11.4284C20.7468 11.4284 17.9299 9.18336 17.1625 6.04222L17.2654 6.00449C19.2962 7.23076 21.6266 7.8722 24.013 7.8722C26.3995 7.8722 28.7205 7.23076 30.7607 6.00449L30.8636 6.04222C30.0775 9.18336 27.2605 11.4284 24.0037 11.4284Z" fill="white" stroke="white" stroke-width="0.5"/>
</svg>
