<svg width="48" height="48" viewBox="0 0 48 48" fill="none" xmlns="http://www.w3.org/2000/svg">
<path fill-rule="evenodd" clip-rule="evenodd" d="M43.6627 10.068C43.7867 10.1194 43.9004 10.2119 43.9521 10.3353C44.0141 10.4586 44.0141 10.6025 43.9624 10.7362L40.6758 19.4423C40.5931 19.6376 40.407 19.7712 40.19 19.7712H35.415V23.0091C35.415 23.2969 35.1876 23.523 34.8982 23.523C34.6088 23.523 34.3815 23.2969 34.3815 23.0091V19.2573C34.3815 18.9695 34.6088 18.7433 34.8982 18.7433H39.8283L42.8152 10.8492L31.0534 6.44989C30.1439 9.81106 27.0536 12.1957 23.4982 12.1957C19.9428 12.1957 16.8628 9.81106 15.943 6.44989L4.18121 10.8492L7.16816 18.7433H12.0982C12.3876 18.7433 12.615 18.9695 12.615 19.2573V38.2011H34.3815V35.7959C34.3815 35.5081 34.6088 35.282 34.8982 35.282C35.1876 35.282 35.415 35.5081 35.415 35.7959V38.7151C35.415 39.0029 35.1876 39.229 34.8982 39.229H12.0982C11.8088 39.229 11.5814 39.0029 11.5814 38.7151V19.761H6.80642C6.58938 19.761 6.393 19.6273 6.32066 19.432L3.03398 10.7259C2.9823 10.6025 2.99263 10.4586 3.04431 10.3353C3.10632 10.2119 3.20968 10.1194 3.3337 10.068L16.8008 5.04169C16.9559 4.98002 17.1212 5.00058 17.2556 5.08281C19.1263 6.23403 21.2864 6.84048 23.4982 6.84048C25.71 6.84048 27.8701 6.22376 29.7408 5.07253C29.8752 4.9903 30.0406 4.98002 30.1956 5.03141L30.8881 5.28838L43.6627 10.068ZM16.9145 6.09013C17.6793 9.06071 20.3769 11.1679 23.4982 11.1679C26.6195 11.1679 29.3274 9.06071 30.1026 6.09013L30.0819 6.07985C28.0975 7.25164 25.8237 7.86837 23.5085 7.86837C21.1831 7.86837 18.9196 7.25164 16.9352 6.07985L16.9145 6.09013ZM31.0634 25.2192H34.5465C39.4558 25.2192 43.4557 29.2074 43.4557 34.1207C43.4557 39.0237 39.4558 43.0119 34.5465 43.0119H34.0607C33.7713 43.0119 33.5439 42.7858 33.5439 42.4979C33.5439 42.2101 33.7713 41.984 34.0607 41.984H34.2467C36.5205 41.984 38.3603 40.1441 38.3603 37.8828C38.3603 35.6214 36.5102 33.7815 34.2467 33.7815H30.9704L30.9291 37.3791C30.9291 37.5847 30.805 37.7697 30.6087 37.8519C30.4226 37.9239 30.1952 37.8828 30.0505 37.7388L21.7615 29.6186C21.6581 29.5158 21.6064 29.3822 21.6064 29.2383C21.6064 29.0944 21.6685 28.9607 21.7718 28.8682L30.2572 21.2516C30.4123 21.118 30.6293 21.0872 30.8154 21.1694C31.0014 21.2516 31.1151 21.4366 31.1151 21.6422L31.0634 25.2192ZM39.3938 37.8725C39.3938 39.0545 38.9804 40.1441 38.3086 41.0178C40.7581 39.6815 42.4221 37.0913 42.4324 34.1104C42.4324 29.7728 38.8977 26.2471 34.5568 26.2471H30.5466C30.4019 26.2471 30.2676 26.1957 30.1746 26.0929C30.0815 25.9902 30.0299 25.8565 30.0299 25.7229L30.0712 22.8037L22.8777 29.2588L29.9162 36.1456L29.9472 33.247C29.9472 32.9695 30.1849 32.7433 30.464 32.7433H34.2467C37.089 32.7433 39.3938 35.0458 39.3938 37.8725Z" fill="white"/>
<path d="M43.9521 10.3353L43.7215 10.4319L43.7249 10.4399L43.7287 10.4476L43.9521 10.3353ZM43.6627 10.068L43.7585 9.83694L43.7503 9.83388L43.6627 10.068ZM43.9624 10.7362L43.7293 10.646L43.7286 10.6479L43.9624 10.7362ZM40.6758 19.4423L40.9062 19.5398L40.9097 19.5306L40.6758 19.4423ZM35.415 19.7712V19.5212H35.165V19.7712H35.415ZM39.8283 18.7433V18.9933H40.001L40.0621 18.8318L39.8283 18.7433ZM42.8152 10.8492L43.049 10.9377L43.1378 10.703L42.9028 10.6151L42.8152 10.8492ZM31.0534 6.44989L31.141 6.21573L30.8838 6.11954L30.8121 6.38459L31.0534 6.44989ZM15.943 6.44989L16.1841 6.3839L16.1118 6.11981L15.8554 6.21573L15.943 6.44989ZM4.18121 10.8492L4.09363 10.6151L3.85858 10.703L3.94739 10.9377L4.18121 10.8492ZM7.16816 18.7433L6.93434 18.8318L6.99546 18.9933H7.16816V18.7433ZM12.615 38.2011H12.365V38.4511H12.615V38.2011ZM34.3815 38.2011V38.4511H34.6315V38.2011H34.3815ZM11.5814 19.761H11.8314V19.511H11.5814V19.761ZM6.32066 19.432L6.55509 19.3452L6.55454 19.3437L6.32066 19.432ZM3.03398 10.7259L3.26801 10.6375L3.26456 10.6293L3.03398 10.7259ZM3.04431 10.3353L2.82095 10.223L2.81707 10.2307L2.81373 10.2387L3.04431 10.3353ZM3.3337 10.068L3.24623 9.83366L3.238 9.83708L3.3337 10.068ZM16.8008 5.04169L16.8883 5.27596L16.8932 5.27399L16.8008 5.04169ZM17.2556 5.08281L17.3866 4.86989L17.3861 4.86957L17.2556 5.08281ZM29.7408 5.07253L29.6103 4.85929L29.6098 4.85962L29.7408 5.07253ZM30.1956 5.03141L30.2826 4.79689L30.2743 4.79411L30.1956 5.03141ZM30.8881 5.28838L30.9757 5.05424L30.975 5.054L30.8881 5.28838ZM16.9145 6.09013L16.8032 5.86628L16.6219 5.95642L16.6724 6.15247L16.9145 6.09013ZM30.1026 6.09013L30.3445 6.15325L30.3958 5.95671L30.2139 5.86628L30.1026 6.09013ZM30.0819 6.07985L30.1932 5.856L30.0717 5.79556L29.9548 5.86458L30.0819 6.07985ZM16.9352 6.07985L17.0623 5.86458L16.9454 5.79556L16.8239 5.856L16.9352 6.07985ZM31.0634 25.2192L30.8134 25.2156L30.8098 25.4692H31.0634V25.2192ZM30.9704 33.7815V33.5315H30.7232L30.7204 33.7786L30.9704 33.7815ZM30.9291 37.3791L30.6791 37.3762V37.3791H30.9291ZM30.6087 37.8519L30.6989 38.0852L30.7052 38.0825L30.6087 37.8519ZM30.0505 37.7388L30.2268 37.5616L30.2255 37.5603L30.0505 37.7388ZM21.7615 29.6186L21.5852 29.7958L21.5865 29.7972L21.7615 29.6186ZM21.7718 28.8682L21.9385 29.0545L21.9388 29.0543L21.7718 28.8682ZM30.2572 21.2516L30.094 21.0622L30.0902 21.0656L30.2572 21.2516ZM30.8154 21.1694L30.7143 21.398L30.7143 21.398L30.8154 21.1694ZM31.1151 21.6422L31.3651 21.6458V21.6422H31.1151ZM38.3086 41.0178L38.1104 40.8654L38.4283 41.2373L38.3086 41.0178ZM42.4324 34.1104L42.6824 34.1113V34.1104H42.4324ZM30.1746 26.0929L29.9892 26.2607L29.9892 26.2607L30.1746 26.0929ZM30.0299 25.7229L29.7799 25.7194V25.7229H30.0299ZM30.0712 22.8037L30.3212 22.8073L30.3293 22.2362L29.9042 22.6176L30.0712 22.8037ZM22.8777 29.2588L22.7107 29.0728L22.5122 29.2509L22.7029 29.4375L22.8777 29.2588ZM29.9162 36.1456L29.7413 36.3243L30.1599 36.7339L30.1662 36.1483L29.9162 36.1456ZM29.9472 33.247L30.1972 33.2497V33.247H29.9472ZM44.1827 10.2387C44.0984 10.0375 43.9239 9.90565 43.7584 9.83708L43.567 10.299C43.6496 10.3332 43.7025 10.3864 43.7215 10.4319L44.1827 10.2387ZM44.1956 10.8263C44.2688 10.6372 44.2739 10.4187 44.1755 10.223L43.7287 10.4476C43.7544 10.4986 43.7595 10.5679 43.7293 10.646L44.1956 10.8263ZM40.9097 19.5306L44.1963 10.8244L43.7286 10.6479L40.4419 19.354L40.9097 19.5306ZM40.19 20.0212C40.5145 20.0212 40.787 19.8209 40.906 19.5398L40.4455 19.3448C40.3992 19.4543 40.2996 19.5212 40.19 19.5212V20.0212ZM35.415 20.0212H40.19V19.5212H35.415V20.0212ZM35.665 23.0091V19.7712H35.165V23.0091H35.665ZM34.8982 23.773C35.3244 23.773 35.665 23.4362 35.665 23.0091H35.165C35.165 23.1575 35.0509 23.273 34.8982 23.273V23.773ZM34.1315 23.0091C34.1315 23.4362 34.4721 23.773 34.8982 23.773V23.273C34.7456 23.273 34.6315 23.1575 34.6315 23.0091H34.1315ZM34.1315 19.2573V23.0091H34.6315V19.2573H34.1315ZM34.8982 18.4933C34.4721 18.4933 34.1315 18.8301 34.1315 19.2573H34.6315C34.6315 19.1088 34.7456 18.9933 34.8982 18.9933V18.4933ZM39.8283 18.4933H34.8982V18.9933H39.8283V18.4933ZM42.5814 10.7607L39.5944 18.6549L40.0621 18.8318L43.049 10.9377L42.5814 10.7607ZM30.9659 6.68405L42.7276 11.0834L42.9028 10.6151L31.141 6.21573L30.9659 6.68405ZM23.4982 12.4457C27.1661 12.4457 30.3556 9.98578 31.2948 6.51519L30.8121 6.38459C29.9322 9.63635 26.9411 11.9457 23.4982 11.9457V12.4457ZM15.7018 6.51588C16.6513 9.98536 19.8298 12.4457 23.4982 12.4457V11.9457C20.0558 11.9457 17.0743 9.63677 16.1841 6.3839L15.7018 6.51588ZM4.2688 11.0834L16.0306 6.68405L15.8554 6.21573L4.09363 10.6151L4.2688 11.0834ZM7.40199 18.6549L4.41503 10.7607L3.94739 10.9377L6.93434 18.8318L7.40199 18.6549ZM12.0982 18.4933H7.16816V18.9933H12.0982V18.4933ZM12.865 19.2573C12.865 18.8301 12.5244 18.4933 12.0982 18.4933V18.9933C12.2508 18.9933 12.365 19.1088 12.365 19.2573H12.865ZM12.865 38.2011V19.2573H12.365V38.2011H12.865ZM34.3815 37.9511H12.615V38.4511H34.3815V37.9511ZM34.1315 35.7959V38.2011H34.6315V35.7959H34.1315ZM34.8982 35.032C34.4721 35.032 34.1315 35.3687 34.1315 35.7959H34.6315C34.6315 35.6475 34.7456 35.532 34.8982 35.532V35.032ZM35.665 35.7959C35.665 35.3687 35.3244 35.032 34.8982 35.032V35.532C35.0509 35.532 35.165 35.6475 35.165 35.7959H35.665ZM35.665 38.7151V35.7959H35.165V38.7151H35.665ZM34.8982 39.479C35.3244 39.479 35.665 39.1423 35.665 38.7151H35.165C35.165 38.8635 35.0509 38.979 34.8982 38.979V39.479ZM12.0982 39.479H34.8982V38.979H12.0982V39.479ZM11.3314 38.7151C11.3314 39.1423 11.672 39.479 12.0982 39.479V38.979C11.9456 38.979 11.8314 38.8635 11.8314 38.7151H11.3314ZM11.3314 19.761V38.7151H11.8314V19.761H11.3314ZM6.80642 20.011H11.5814V19.511H6.80642V20.011ZM6.08622 19.5189C6.1966 19.8168 6.48978 20.011 6.80642 20.011V19.511C6.68898 19.511 6.58941 19.4378 6.55509 19.3452L6.08622 19.5189ZM2.80009 10.8142L6.08677 19.5203L6.55454 19.3437L3.26786 10.6376L2.80009 10.8142ZM2.81373 10.2387C2.74181 10.4103 2.72068 10.625 2.80339 10.8225L3.26456 10.6293C3.24392 10.58 3.24346 10.5069 3.27489 10.4319L2.81373 10.2387ZM3.238 9.83708C3.06099 9.91042 2.91106 10.0438 2.82095 10.223L3.26767 10.4476C3.30159 10.3801 3.35837 10.3284 3.42941 10.299L3.238 9.83708ZM16.7134 4.80747L3.24629 9.83381L3.42112 10.3022L16.8882 5.27591L16.7134 4.80747ZM17.3861 4.86957C17.189 4.74897 16.9413 4.71674 16.7084 4.8094L16.8932 5.27399C16.9704 5.2433 17.0534 5.25219 17.1251 5.29604L17.3861 4.86957ZM23.4982 6.59048C21.3321 6.59048 19.2175 5.99659 17.3866 4.86989L17.1246 5.29572C19.0351 6.47148 21.2407 7.09048 23.4982 7.09048V6.59048ZM29.6098 4.85962C27.7783 5.98672 25.6635 6.59048 23.4982 6.59048V7.09048C25.7565 7.09048 27.9619 6.46079 29.8719 5.28544L29.6098 4.85962ZM30.2743 4.79411C30.0609 4.72337 29.8171 4.73274 29.6103 4.85929L29.8713 5.28576C29.9333 5.24786 30.0203 5.23667 30.1169 5.26871L30.2743 4.79411ZM30.975 5.054L30.2826 4.79703L30.1086 5.2658L30.8011 5.52277L30.975 5.054ZM43.7503 9.83388L30.9757 5.05424L30.8005 5.52253L43.5751 10.3022L43.7503 9.83388ZM23.4982 10.9179C20.4907 10.9179 17.8929 8.88765 17.1566 6.0278L16.6724 6.15247C17.4657 9.23376 20.2631 11.4179 23.4982 11.4179V10.9179ZM29.8607 6.02701C29.1143 8.88726 26.506 10.9179 23.4982 10.9179V11.4179C26.733 11.4179 29.5405 9.23416 30.3445 6.15325L29.8607 6.02701ZM29.9706 6.30371L29.9913 6.31399L30.2139 5.86628L30.1932 5.856L29.9706 6.30371ZM23.5085 8.11837C25.868 8.11837 28.1857 7.48986 30.209 6.29512L29.9548 5.86458C28.0093 7.01341 25.7794 7.61837 23.5085 7.61837V8.11837ZM16.8081 6.29512C18.8313 7.48981 21.1387 8.11837 23.5085 8.11837V7.61837C21.2275 7.61837 19.0079 7.01346 17.0623 5.86458L16.8081 6.29512ZM17.0258 6.31398L17.0465 6.3037L16.8239 5.856L16.8032 5.86628L17.0258 6.31398ZM34.5465 24.9692H31.0634V25.4692H34.5465V24.9692ZM43.7057 34.1207C43.7057 29.069 39.5935 24.9692 34.5465 24.9692V25.4692C39.3181 25.4692 43.2057 29.3458 43.2057 34.1207H43.7057ZM34.5465 43.2619C39.5933 43.2619 43.7057 39.1623 43.7057 34.1207H43.2057C43.2057 38.8851 39.3183 42.7619 34.5465 42.7619V43.2619ZM34.0607 43.2619H34.5465V42.7619H34.0607V43.2619ZM33.2939 42.4979C33.2939 42.9251 33.6345 43.2619 34.0607 43.2619V42.7619C33.9081 42.7619 33.7939 42.6464 33.7939 42.4979H33.2939ZM34.0607 41.734C33.6345 41.734 33.2939 42.0708 33.2939 42.4979H33.7939C33.7939 42.3495 33.9081 42.234 34.0607 42.234V41.734ZM34.2467 41.734H34.0607V42.234H34.2467V41.734ZM38.1103 37.8828C38.1103 40.0055 36.3829 41.734 34.2467 41.734V42.234C36.6581 42.234 38.6103 40.2826 38.6103 37.8828H38.1103ZM34.2467 34.0315C36.373 34.0315 38.1103 35.7604 38.1103 37.8828H38.6103C38.6103 35.4825 36.6474 33.5315 34.2467 33.5315V34.0315ZM30.9704 34.0315H34.2467V33.5315H30.9704V34.0315ZM31.179 37.382L31.2204 33.7844L30.7204 33.7786L30.6791 37.3762L31.179 37.382ZM30.7052 38.0825C30.9919 37.9625 31.1791 37.6882 31.1791 37.3791H30.6791C30.6791 37.4811 30.6181 37.5769 30.5121 37.6213L30.7052 38.0825ZM29.8742 37.9161C30.0926 38.1332 30.4256 38.1908 30.6988 38.0851L30.5185 37.6187C30.4196 37.657 30.2979 37.6323 30.2268 37.5616L29.8742 37.9161ZM21.5865 29.7972L29.8756 37.9174L30.2255 37.5603L21.9364 29.44L21.5865 29.7972ZM21.3564 29.2383C21.3564 29.4444 21.4317 29.6432 21.5852 29.7958L21.9378 29.4413C21.8845 29.3884 21.8564 29.3199 21.8564 29.2383H21.3564ZM21.6051 28.6819C21.4498 28.821 21.3564 29.0219 21.3564 29.2383H21.8564C21.8564 29.1668 21.8872 29.1005 21.9385 29.0545L21.6051 28.6819ZM30.0902 21.0656L21.6048 28.6822L21.9388 29.0543L30.4242 21.4377L30.0902 21.0656ZM30.9164 20.9407C30.6431 20.8199 30.323 20.8649 30.094 21.0622L30.4205 21.441C30.5016 21.3711 30.6155 21.3544 30.7143 21.398L30.9164 20.9407ZM31.3651 21.6422C31.3651 21.3442 31.1988 21.0655 30.9164 20.9407L30.7143 21.398C30.804 21.4377 30.8651 21.5291 30.8651 21.6422H31.3651ZM31.3134 25.2228L31.3651 21.6458L30.8651 21.6386L30.8134 25.2156L31.3134 25.2228ZM38.5068 41.1702C39.2095 40.2563 39.6438 39.1139 39.6438 37.8725H39.1438C39.1438 38.9951 38.7513 40.0319 38.1104 40.8654L38.5068 41.1702ZM42.1824 34.1096C42.1724 36.9955 40.5617 39.5039 38.1889 40.7983L38.4283 41.2373C40.9545 39.8592 42.6718 37.1871 42.6824 34.1113L42.1824 34.1096ZM34.5568 26.4971C38.7601 26.4971 42.1824 29.9113 42.1824 34.1104H42.6824C42.6824 29.6342 39.0353 25.9971 34.5568 25.9971V26.4971ZM30.5466 26.4971H34.5568V25.9971H30.5466V26.4971ZM29.9892 26.2607C30.1372 26.4242 30.3434 26.4971 30.5466 26.4971V25.9971C30.4605 25.9971 30.398 25.9673 30.3599 25.9252L29.9892 26.2607ZM29.7799 25.7229C29.7799 25.9199 29.8555 26.113 29.9892 26.2607L30.3599 25.9252C30.3075 25.8673 30.2799 25.7931 30.2799 25.7229H29.7799ZM29.8212 22.8002L29.7799 25.7194L30.2798 25.7264L30.3212 22.8073L29.8212 22.8002ZM23.0447 29.4449L30.2382 22.9898L29.9042 22.6176L22.7107 29.0728L23.0447 29.4449ZM30.091 35.9669L23.0526 29.0801L22.7029 29.4375L29.7413 36.3243L30.091 35.9669ZM29.6972 33.2443L29.6662 36.143L30.1662 36.1483L30.1972 33.2497L29.6972 33.2443ZM30.464 32.4933C30.0547 32.4933 29.6972 32.8236 29.6972 33.247H30.1972C30.1972 33.1153 30.3151 32.9933 30.464 32.9933V32.4933ZM34.2467 32.4933H30.464V32.9933H34.2467V32.4933ZM39.6438 37.8725C39.6438 34.9071 37.2264 32.4933 34.2467 32.4933V32.9933C36.9516 32.9933 39.1438 35.1845 39.1438 37.8725H39.6438Z" fill="white"/>
</svg>
