<svg width="25" height="26" viewBox="0 0 25 26" fill="none" xmlns="http://www.w3.org/2000/svg">
<path d="M6.06641 2.36364H2.46641V5.90909H0.0664062V0H6.06641V2.36364ZM24.0664 5.90909V0H18.0664V2.36364H21.6664V5.90909H24.0664ZM6.06641 23.6364H2.46641V20.0909H0.0664062V26H6.06641V23.6364ZM21.6664 20.0909V23.6364H18.0664V26H24.0664V20.0909H21.6664ZM18.0664 5.90909H6.06641V20.0909H18.0664V5.90909ZM20.4664 20.0909C20.4664 21.3909 19.3864 22.4545 18.0664 22.4545H6.06641C4.74641 22.4545 3.66641 21.3909 3.66641 20.0909V5.90909C3.66641 4.60909 4.74641 3.54545 6.06641 3.54545H18.0664C19.3864 3.54545 20.4664 4.60909 20.4664 5.90909V20.0909ZM15.6664 8.27273H8.46641V10.6364H15.6664V8.27273ZM15.6664 11.8182H8.46641V14.1818H15.6664V11.8182ZM15.6664 15.3636H8.46641V17.7273H15.6664V15.3636Z" fill="white"/>
</svg>
