<svg width="48" height="48" viewBox="0 0 48 48" fill="none" xmlns="http://www.w3.org/2000/svg">
<path d="M45.3477 37.2735L40.7193 32.736C40.2995 32.8732 39.9096 33.0692 39.5498 33.3044C39.5298 33.275 39.5098 33.2554 39.4798 33.2358L37.1906 30.9915C38.5201 29.3941 39.3198 27.3556 39.3198 25.1408C39.3198 23.6315 38.95 22.2105 38.3002 20.9561C38.3602 20.9071 38.4101 20.8385 38.4401 20.7601L41.619 12.4593C41.669 12.3417 41.659 12.2045 41.609 12.0869C41.559 11.9693 41.4491 11.8811 41.3291 11.8321L28.9734 7.27496L28.3037 7.02995C28.1537 6.98095 27.9938 6.99075 27.8638 7.06915C26.0545 8.16678 23.9652 8.75479 21.8259 8.75479C19.6867 8.75479 17.5974 8.17658 15.7881 7.07895C15.6581 7.00055 15.4982 6.98095 15.3482 7.03975L2.32276 11.8321C2.2028 11.8811 2.10284 11.9693 2.04286 12.0869C1.99288 12.2045 1.98288 12.3417 2.03286 12.4593L5.21175 20.7601C5.28173 20.9463 5.47166 21.0737 5.68159 21.0737H10.3V39.1453C10.3 39.4197 10.5199 39.6353 10.7998 39.6353H32.8521C33.132 39.6353 33.3519 39.4197 33.3519 39.1453V33.7258C34.3016 33.3534 35.1813 32.8438 35.951 32.2067L38.2302 34.4412C38.2402 34.451 38.2602 34.4706 38.2702 34.4804C38.0103 34.8234 37.8004 35.2056 37.6404 35.6172L37.5604 35.823L42.1888 40.3605C43.0585 41.2132 44.478 41.2132 45.3477 40.3605C46.2174 39.5177 46.2174 38.1359 45.3477 37.2735ZM32.3523 20.5935V32.2557C31.5825 32.5106 30.7628 32.6478 29.9031 32.6478C25.6846 32.6478 22.2458 29.2765 22.2458 25.1408C22.2458 21.0051 25.6846 17.6338 29.9031 17.6338C32.1523 17.6338 34.1716 18.5844 35.5711 20.1035H32.8521C32.5822 20.1035 32.3523 20.3191 32.3523 20.5935ZM21.8259 9.73482C24.0652 9.73482 26.2644 9.1468 28.1837 8.02957L28.2037 8.03938C27.464 10.8716 24.8449 12.8807 21.8259 12.8807C18.807 12.8807 16.1979 10.8716 15.4582 8.03938L15.4782 8.02957C17.3975 9.1468 19.5867 9.73482 21.8259 9.73482ZM32.3523 38.6651H11.2996V20.5935C11.2996 20.3191 11.0797 20.1035 10.7998 20.1035H6.03146L3.14247 12.5769L14.5185 8.38238C15.4082 11.5871 18.3871 13.8607 21.8259 13.8607C25.2647 13.8607 28.2537 11.5871 29.1334 8.38238L40.5094 12.5769L37.6904 19.9369C35.991 17.4966 33.132 15.8992 29.9031 15.8992C24.7049 15.8992 20.4764 20.0447 20.4764 25.1408C20.4764 30.2369 24.7049 34.3824 29.9031 34.3824C30.7528 34.3824 31.5725 34.2746 32.3523 34.0688V38.6651ZM33.3519 21.0835H36.3409C37.1106 22.2595 37.5604 23.6511 37.5604 25.1408C37.5604 28.0612 35.851 30.5995 33.3519 31.8441V21.0835Z" fill="white" stroke="white" stroke-width="0.5"/>
</svg>
