<svg width="48" height="48" viewBox="0 0 48 48" fill="none" xmlns="http://www.w3.org/2000/svg">
<g clip-path="url(#clip0_157_7645)">
<path d="M14.2218 20.7777C14.5032 20.7777 14.7243 20.553 14.7243 20.267C14.7243 19.981 14.5032 19.7563 14.2218 19.7563H3.5987C3.3173 19.7563 3.09619 19.981 3.09619 20.267C3.09619 20.553 3.3173 20.7777 3.5987 20.7777H14.2218Z" fill="white" stroke="white" stroke-width="0.5"/>
<path d="M11.6382 22.7277C11.6382 22.4417 11.4171 22.217 11.1357 22.217H0.502513C0.221106 22.217 0 22.4417 0 22.7277C0 23.0137 0.221106 23.2384 0.502513 23.2384H11.1357C11.407 23.2384 11.6382 23.0137 11.6382 22.7277Z" fill="white" stroke="white" stroke-width="0.5"/>
<path d="M45.6784 22.2791H45.5779L40.603 14.8848C40.1709 14.2413 39.4472 13.8532 38.6734 13.8532H32.6633V9.4309C32.6633 8.01127 31.5176 6.85718 30.1206 6.85718H8.1809H7.36683H5.52764C4.13065 6.85718 2.99497 8.01127 2.99497 9.4309V16.6312H0.502513C0.221106 16.6312 0 16.8559 0 17.1419C0 17.4278 0.221106 17.6525 0.502513 17.6525H11.1357C11.4171 17.6525 11.6382 17.4278 11.6382 17.1419C11.6382 16.8559 11.4171 16.6312 11.1357 16.6312H4V9.4309C4 8.573 4.68342 7.8785 5.52764 7.8785H7.35678H8.17085H30.1206C30.9648 7.8785 31.6482 8.573 31.6482 9.4309V31.1033C31.6482 31.9612 30.9648 32.6557 30.1206 32.6557H27.2764H24.5729C24.2915 32.6557 24.0704 32.8804 24.0704 33.1664C24.0704 33.4524 24.2915 33.677 24.5729 33.677H27.2764H30.1206H35.3568C35.608 35.8627 37.4372 37.5581 39.6482 37.5581C41.8593 37.5581 43.6884 35.8627 43.9397 33.677H45.6683C46.9548 33.677 48 32.6149 48 31.3076V24.6486C48 23.3515 46.9548 22.2893 45.6784 22.2791ZM39.6482 36.547C37.8191 36.547 36.3317 35.0354 36.3317 33.1766C36.3317 31.3178 37.8191 29.8062 39.6482 29.8062C41.4774 29.8062 42.9648 31.3178 42.9648 33.1766C42.9648 35.0354 41.4774 36.547 39.6482 36.547ZM46.995 31.3178C46.995 32.0634 46.402 32.6659 45.6683 32.6659H43.9397C43.6884 30.4803 41.8593 28.7849 39.6482 28.7849C37.4372 28.7849 35.608 30.4803 35.3568 32.6659H32.1407C32.4623 32.237 32.6533 31.6957 32.6533 31.1135V14.8745H38.6734C39.1156 14.8745 39.5176 15.0992 39.7688 15.4669L44.3518 22.2995H37.8492C37.1156 22.2995 36.5226 21.697 36.5226 20.9514V18.0202C36.5226 17.7342 36.3015 17.5095 36.0201 17.5095C35.7387 17.5095 35.5176 17.7342 35.5176 18.0202V20.9514C35.5176 22.2587 36.5628 23.3209 37.8492 23.3209H45.3065H45.6784C46.4121 23.3209 47.005 23.9234 47.005 24.669V31.3178H46.995Z" fill="white" stroke="white" stroke-width="0.5"/>
<path d="M21.7084 25.1084H17.7688H3.9195C3.6381 25.1084 3.41699 25.3331 3.41699 25.6191V40.6325C3.41699 40.9184 3.6381 41.1431 3.9195 41.1431H17.7688H21.809C21.9396 41.1431 22.0703 41.0921 22.1607 40.9899C22.2512 40.8878 22.3115 40.7652 22.3115 40.6222L22.211 25.6088C22.211 25.3331 21.9798 25.1084 21.7084 25.1084ZM8.97478 26.1297H12.9346V29.6431L11.3064 28.6626C11.1557 28.5707 10.9647 28.5707 10.814 28.6524L8.97478 29.6737V26.1297ZM4.42202 26.1297H7.97981V30.5316C7.97981 30.7154 8.07026 30.8789 8.22101 30.9708C8.30141 31.0218 8.39187 31.0423 8.48232 31.0423C8.56272 31.0423 8.64312 31.0218 8.72353 30.981L11.0552 29.6941L13.1959 30.981C13.3466 31.0729 13.5476 31.0729 13.6984 30.981C13.8592 30.8891 13.9497 30.7257 13.9497 30.5418V26.1399H17.2662V40.132H4.42202V26.1297ZM18.2612 40.1218V26.1297H21.2059L21.2964 40.1218H18.2612Z" fill="white" stroke="white" stroke-width="0.5"/>
</g>
<defs>
<clipPath id="clip0_157_7645">
<rect width="48" height="48" fill="white"/>
</clipPath>
</defs>
</svg>
