<svg width="48" height="48" viewBox="0 0 48 48" fill="none" xmlns="http://www.w3.org/2000/svg">
<g clip-path="url(#clip0_121_7462)">
<path fill-rule="evenodd" clip-rule="evenodd" d="M32.0446 33.6429H43.8092C44.084 33.6429 44.2998 33.8539 44.2998 34.1353C44.2998 34.4166 44.084 34.6377 43.8092 34.6377H37.8827C37.8827 34.7582 37.8337 34.8788 37.7454 34.9692L33.6538 39.1591C33.2907 39.5309 32.8001 39.7318 32.2703 39.7318H32.1231C31.5638 39.6916 31.0241 39.4404 30.6022 39.0084L30.5532 38.9581V40.7265C30.5532 41.0079 30.3373 41.2289 30.0626 41.2289H8.4172C8.14246 41.2289 7.9266 41.0079 7.9266 40.7265V22.1987H3.39343C3.18738 22.1987 3.00095 22.0681 2.93227 21.8772L-0.18796 13.3668C-0.23702 13.2463 -0.227208 13.1056 -0.178148 12.985C-0.119276 12.8644 -0.0211555 12.774 0.0965889 12.7238L12.8621 7.80043C13.0092 7.74015 13.1662 7.76024 13.2938 7.84062C15.0698 8.97601 17.1205 9.56882 19.2203 9.56882C21.32 9.56882 23.3707 8.96596 25.1467 7.84062C25.2743 7.76024 25.4313 7.7502 25.5785 7.80043L38.3635 12.7238C38.4813 12.774 38.5892 12.8644 38.6383 12.985C38.6873 13.1056 38.6971 13.2463 38.6481 13.3668L35.5279 21.8772C35.4494 22.0681 35.2727 22.1987 35.0667 22.1987H33.1043L36.931 26.1173L36.9408 26.1273H43.7896C44.0643 26.1273 44.2802 26.3484 44.2802 26.6297C44.2802 26.911 44.0643 27.1321 43.7896 27.1321H32.025C31.7502 27.1321 31.5344 26.911 31.5344 26.6297C31.5344 26.3484 31.7502 26.1273 32.025 26.1273H35.5573L31.5736 22.048L30.769 21.2241C30.4452 20.8925 30.0233 20.6915 29.5818 20.6614L23.0469 20.1892C22.6447 20.159 22.2914 20.2896 22.0363 20.5509C22.0265 20.5609 22.0167 20.5735 22.0069 20.586C21.9971 20.5986 21.9872 20.6112 21.9774 20.6212C22.0049 20.632 22.0328 20.6428 22.061 20.6538C22.1637 20.6935 22.2698 20.7347 22.3699 20.782C23.0862 21.1135 23.7436 21.5456 24.2735 22.048C24.6071 21.9776 24.9603 22.0681 25.2154 22.3293C25.6079 22.7312 25.6079 23.3944 25.2154 23.7963C24.8229 24.1982 24.1753 24.1982 23.7829 23.7963C23.4983 23.5149 23.4198 23.0929 23.5375 22.7312C23.1058 22.3293 22.5662 21.9776 21.9676 21.7064C21.8793 21.6662 21.791 21.626 21.6929 21.5858L22.1541 28.2775C22.1835 28.7297 22.3797 29.1617 22.7035 29.4933L30.4158 37.3907L31.2989 38.295C31.5442 38.5562 31.868 38.7069 32.1918 38.727C32.4959 38.7471 32.7609 38.6567 32.9571 38.4558L36.6759 34.6477H32.0446C31.7698 34.6477 31.554 34.4267 31.554 34.1453C31.554 33.864 31.7698 33.6429 32.0446 33.6429ZM25.4803 8.82529C23.5964 9.97072 21.4378 10.5736 19.2399 10.5736C17.042 10.5736 14.8931 9.97072 13.0092 8.82529L12.9896 8.83534C13.7157 11.7391 16.2766 13.7989 19.2399 13.7989C22.2031 13.7989 24.7739 11.7391 25.5 8.83534L25.4803 8.82529ZM8.9078 40.2342H29.5621V37.9534L21.9971 30.2067C21.5065 29.7043 21.2121 29.0411 21.163 28.3478L20.7019 21.6561C20.6921 21.5255 20.6921 21.4049 20.7019 21.2844C19.3674 20.993 18.1704 21.2341 17.8564 21.9575C17.4737 22.8216 18.4451 24.2183 20.015 25.0623C20.2603 25.1929 20.3486 25.5044 20.2211 25.7455C20.1328 25.9163 19.966 26.0168 19.7894 26.0168C19.7109 26.0168 19.6324 25.9967 19.5637 25.9565C17.4443 24.8111 16.3551 22.9623 16.9635 21.5556C17.4933 20.3399 19.1418 19.8877 20.9962 20.3198C21.0944 20.149 21.2121 19.9882 21.3495 19.8475C21.8008 19.3753 22.4288 19.1442 23.1156 19.1944L29.6504 19.6667C30.3275 19.7169 30.9751 20.0184 31.4657 20.5207L32.1329 21.204H34.7429L37.5786 13.4874L26.4125 9.18701C25.549 12.4726 22.6152 14.8036 19.2399 14.8036C15.8645 14.8036 12.9405 12.4726 12.0673 9.18701L0.901176 13.4874L3.73686 21.204H8.4172C8.69193 21.204 8.9078 21.425 8.9078 21.7064V40.2342ZM35.7445 29.885H47.5091C47.7741 29.885 47.9997 30.1061 47.9997 30.3874C47.9997 30.6687 47.7839 30.8898 47.5091 30.8898H35.7445C35.4698 30.8898 35.2539 30.6687 35.2539 30.3874C35.2539 30.1061 35.4698 29.885 35.7445 29.885Z" fill="white"/>
<path d="M37.8827 34.6377V34.3877H37.6327V34.6377H37.8827ZM37.7454 34.9692L37.9242 35.1439L37.9242 35.1439L37.7454 34.9692ZM33.6538 39.1591L33.4749 38.9844L33.6538 39.1591ZM32.1231 39.7318L32.1052 39.9812L32.1141 39.9818H32.1231V39.7318ZM30.6022 39.0084L30.4234 39.183V39.183L30.6022 39.0084ZM30.5532 38.9581L30.732 38.7835L30.3032 38.3443V38.9581H30.5532ZM7.9266 22.1987H8.1766V21.9487H7.9266V22.1987ZM2.93227 21.8772L3.16751 21.7925L3.16699 21.7911L2.93227 21.8772ZM-0.18796 13.3668L0.0469049 13.2807L0.0436042 13.2726L-0.18796 13.3668ZM-0.178148 12.985L-0.402799 12.8753L-0.406518 12.8829L-0.409713 12.8908L-0.178148 12.985ZM0.0965889 12.7238L0.00657287 12.4904L-0.00152154 12.4938L0.0965889 12.7238ZM12.8621 7.80043L12.952 8.03374L12.9568 8.03178L12.8621 7.80043ZM13.2938 7.84062L13.4284 7.62998L13.4271 7.62912L13.2938 7.84062ZM25.1467 7.84062L25.0134 7.62912L25.0129 7.62945L25.1467 7.84062ZM25.5785 7.80043L25.6684 7.56696L25.6592 7.56384L25.5785 7.80043ZM38.3635 12.7238L38.4617 12.4937L38.4534 12.4905L38.3635 12.7238ZM38.6481 13.3668L38.4164 13.2725L38.4134 13.2808L38.6481 13.3668ZM35.5279 21.8772L35.7592 21.9723L35.7626 21.9632L35.5279 21.8772ZM33.1043 22.1987V21.9487H32.5107L32.9254 22.3734L33.1043 22.1987ZM36.931 26.1173L36.7521 26.2919L36.7521 26.2919L36.931 26.1173ZM36.9408 26.1273L36.7619 26.302L36.8355 26.3773H36.9408V26.1273ZM35.5573 26.1273V26.3773H36.1509L35.7362 25.9526L35.5573 26.1273ZM31.5736 22.048L31.3947 22.2226L31.5736 22.048ZM30.769 21.2241L30.9479 21.0494L30.769 21.2241ZM29.5818 20.6614L29.5637 20.9108L29.5647 20.9108L29.5818 20.6614ZM23.0469 20.1892L23.0283 20.4385L23.0289 20.4385L23.0469 20.1892ZM22.0363 20.5509L21.8574 20.3762L21.8574 20.3762L22.0363 20.5509ZM22.0069 20.586L21.8099 20.4321L21.8099 20.4321L22.0069 20.586ZM21.9774 20.6212L21.7986 20.4465L21.5355 20.7159L21.8858 20.8538L21.9774 20.6212ZM22.061 20.6538L21.9707 20.8869L21.9707 20.8869L22.061 20.6538ZM22.3699 20.782L22.2631 21.008L22.2649 21.0088L22.3699 20.782ZM24.2735 22.048L24.1014 22.2294L24.1966 22.3197L24.325 22.2926L24.2735 22.048ZM25.2154 22.3293L25.3943 22.1546L25.2154 22.3293ZM25.2154 23.7963L25.3943 23.9709L25.2154 23.7963ZM23.7829 23.7963L23.9617 23.6216L23.9586 23.6185L23.7829 23.7963ZM23.5375 22.7312L23.7753 22.8086L23.8246 22.6569L23.7079 22.5482L23.5375 22.7312ZM21.9676 21.7064L21.8641 21.9339L21.8644 21.9341L21.9676 21.7064ZM21.6929 21.5858L21.7876 21.3544L21.4159 21.2022L21.4435 21.603L21.6929 21.5858ZM22.1541 28.2775L22.4035 28.2613L22.4035 28.2603L22.1541 28.2775ZM22.7035 29.4933L22.8824 29.3186L22.7035 29.4933ZM30.4158 37.3907L30.5947 37.216L30.4158 37.3907ZM31.2989 38.295L31.4812 38.1238L31.4777 38.1203L31.2989 38.295ZM32.1918 38.727L32.2082 38.4776L32.2072 38.4775L32.1918 38.727ZM32.9571 38.4558L32.7782 38.2811H32.7782L32.9571 38.4558ZM36.6759 34.6477L36.8547 34.8224L37.2694 34.3977H36.6759V34.6477ZM25.4803 8.82529L25.5943 8.60276L25.4699 8.53907L25.3505 8.61168L25.4803 8.82529ZM13.0092 8.82529L13.1391 8.61168L13.0197 8.53907L12.8953 8.60277L13.0092 8.82529ZM12.9896 8.83534L12.8757 8.61281L12.6989 8.70332L12.7471 8.89599L12.9896 8.83534ZM25.5 8.83534L25.7425 8.89599L25.7907 8.70332L25.6139 8.61281L25.5 8.83534ZM29.5621 40.2342V40.4842H29.8121V40.2342H29.5621ZM8.9078 40.2342H8.6578V40.4842H8.9078V40.2342ZM29.5621 37.9534H29.8121V37.8516L29.741 37.7787L29.5621 37.9534ZM21.9971 30.2067L21.8182 30.3813L21.9971 30.2067ZM21.163 28.3478L20.9136 28.365L20.9137 28.3655L21.163 28.3478ZM20.7019 21.6561L20.9513 21.6389L20.9512 21.6374L20.7019 21.6561ZM20.7019 21.2844L20.951 21.3046L20.9688 21.0867L20.7552 21.0401L20.7019 21.2844ZM17.8564 21.9575L18.085 22.0588L18.0857 22.0571L17.8564 21.9575ZM20.015 25.0623L19.8966 25.2825L19.8975 25.2829L20.015 25.0623ZM20.2211 25.7455L20.0001 25.6286L19.999 25.6307L20.2211 25.7455ZM19.5637 25.9565L19.69 25.7406L19.6825 25.7366L19.5637 25.9565ZM16.9635 21.5556L16.7343 21.4558L16.734 21.4564L16.9635 21.5556ZM20.9962 20.3198L20.9395 20.5633L21.1205 20.6054L21.213 20.4443L20.9962 20.3198ZM21.3495 19.8475L21.5283 20.0222L21.5302 20.0203L21.3495 19.8475ZM23.1156 19.1944L23.0974 19.4438L23.0976 19.4438L23.1156 19.1944ZM29.6504 19.6667L29.6689 19.4174L29.6685 19.4173L29.6504 19.6667ZM31.4657 20.5207L31.2868 20.6954L31.2868 20.6954L31.4657 20.5207ZM32.1329 21.204L31.954 21.3786L32.0276 21.454H32.1329V21.204ZM34.7429 21.204V21.454H34.9174L34.9776 21.2902L34.7429 21.204ZM37.5786 13.4874L37.8132 13.5736L37.8981 13.3426L37.6684 13.2541L37.5786 13.4874ZM26.4125 9.18701L26.5023 8.95371L26.2417 8.85333L26.1707 9.12346L26.4125 9.18701ZM12.0673 9.18701L12.3089 9.12279L12.2373 8.85361L11.9774 8.95371L12.0673 9.18701ZM0.901176 13.4874L0.811327 13.2541L0.58161 13.3426L0.666519 13.5736L0.901176 13.4874ZM3.73686 21.204L3.5022 21.2902L3.56238 21.454H3.73686V21.204ZM43.8092 33.3929H32.0446V33.8929H43.8092V33.3929ZM44.5498 34.1353C44.5498 33.7148 44.221 33.3929 43.8092 33.3929V33.8929C43.9469 33.8929 44.0498 33.9931 44.0498 34.1353H44.5498ZM43.8092 34.8877C44.2276 34.8877 44.5498 34.5491 44.5498 34.1353H44.0498C44.0498 34.2842 43.9403 34.3877 43.8092 34.3877V34.8877ZM37.8827 34.8877H43.8092V34.3877H37.8827V34.8877ZM37.9242 35.1439C38.0571 35.0079 38.1327 34.8251 38.1327 34.6377H37.6327C37.6327 34.6914 37.6103 34.7497 37.5665 34.7946L37.9242 35.1439ZM33.8326 39.3338L37.9242 35.1439L37.5665 34.7946L33.4749 38.9844L33.8326 39.3338ZM32.2703 39.9818C32.8648 39.9818 33.4207 39.7555 33.8326 39.3338L33.4749 38.9844C33.1607 39.3062 32.7354 39.4818 32.2703 39.4818V39.9818ZM32.1231 39.9818H32.2703V39.4818H32.1231V39.9818ZM30.4234 39.183C30.8861 39.6569 31.4823 39.9364 32.1052 39.9812L32.141 39.4825C31.6453 39.4468 31.1621 39.2239 30.7811 38.8337L30.4234 39.183ZM30.3743 39.1328L30.4234 39.183L30.7811 38.8337L30.732 38.7835L30.3743 39.1328ZM30.8032 40.7265V38.9581H30.3032V40.7265H30.8032ZM30.0626 41.4789C30.4809 41.4789 30.8032 41.1403 30.8032 40.7265H30.3032C30.3032 40.8754 30.1937 40.9789 30.0626 40.9789V41.4789ZM8.4172 41.4789H30.0626V40.9789H8.4172V41.4789ZM7.6766 40.7265C7.6766 41.1403 7.99883 41.4789 8.4172 41.4789V40.9789C8.28609 40.9789 8.1766 40.8754 8.1766 40.7265H7.6766ZM7.6766 22.1987V40.7265H8.1766V22.1987H7.6766ZM3.39343 22.4487H7.9266V21.9487H3.39343V22.4487ZM2.69703 21.9618C2.80185 22.2531 3.08325 22.4487 3.39343 22.4487V21.9487C3.29151 21.9487 3.20005 21.883 3.16751 21.7925L2.69703 21.9618ZM-0.422681 13.4529L2.69755 21.9632L3.16699 21.7911L0.0467609 13.2808L-0.422681 13.4529ZM-0.409713 12.8908C-0.478028 13.0587 -0.498021 13.2681 -0.419525 13.461L0.0436042 13.2726C0.0239807 13.2244 0.0236113 13.1525 0.0534163 13.0792L-0.409713 12.8908ZM-0.00152154 12.4938C-0.173286 12.5671 -0.316981 12.6996 -0.402799 12.8753L0.0465022 13.0947C0.0784287 13.0293 0.130975 12.9809 0.194699 12.9537L-0.00152154 12.4938ZM12.7721 7.56718L0.00662859 12.4905L0.186549 12.957L12.952 8.03369L12.7721 7.56718ZM13.4271 7.62912C13.2361 7.50877 12.9944 7.47604 12.7673 7.56909L12.9568 8.03178C13.024 8.00425 13.0964 8.01172 13.1605 8.05213L13.4271 7.62912ZM19.2203 9.31882C17.1678 9.31882 15.1638 8.73943 13.4284 7.62999L13.1591 8.05126C14.9757 9.21258 17.0732 9.81882 19.2203 9.81882V9.31882ZM25.0129 7.62945C23.2764 8.72978 21.272 9.31882 19.2203 9.31882V9.81882C21.3681 9.81882 23.4651 9.20214 25.2805 8.0518L25.0129 7.62945ZM25.6592 7.56384C25.452 7.49309 25.2144 7.50246 25.0134 7.62912L25.28 8.05213C25.3341 8.01802 25.4106 8.0073 25.4977 8.03703L25.6592 7.56384ZM38.4534 12.4905L25.6683 7.56713L25.4886 8.03373L38.2737 12.9571L38.4534 12.4905ZM38.8698 12.8908C38.7895 12.6933 38.6222 12.5623 38.4617 12.4938L38.2654 12.9537C38.3403 12.9857 38.389 13.0356 38.4067 13.0792L38.8698 12.8908ZM38.8797 13.461C38.9581 13.2681 38.9382 13.0587 38.8698 12.8908L38.4067 13.0792C38.4365 13.1525 38.4361 13.2244 38.4165 13.2726L38.8797 13.461ZM35.7626 21.9632L38.8828 13.4529L38.4134 13.2808L35.2931 21.7911L35.7626 21.9632ZM35.0667 22.4487C35.3845 22.4487 35.6461 22.2469 35.7591 21.9722L35.2966 21.7821C35.2526 21.8892 35.161 21.9487 35.0667 21.9487V22.4487ZM33.1043 22.4487H35.0667V21.9487H33.1043V22.4487ZM37.1098 25.9426L33.2831 22.024L32.9254 22.3734L36.7521 26.2919L37.1098 25.9426ZM37.1196 25.9526L37.1098 25.9426L36.7521 26.2919L36.7619 26.302L37.1196 25.9526ZM43.7896 25.8773H36.9408V26.3773H43.7896V25.8773ZM44.5302 26.6297C44.5302 26.2159 44.208 25.8773 43.7896 25.8773V26.3773C43.9207 26.3773 44.0302 26.4808 44.0302 26.6297H44.5302ZM43.7896 27.3821C44.208 27.3821 44.5302 27.0435 44.5302 26.6297H44.0302C44.0302 26.7786 43.9207 26.8821 43.7896 26.8821V27.3821ZM32.025 27.3821H43.7896V26.8821H32.025V27.3821ZM31.2844 26.6297C31.2844 27.0435 31.6066 27.3821 32.025 27.3821V26.8821C31.8939 26.8821 31.7844 26.7786 31.7844 26.6297H31.2844ZM32.025 25.8773C31.6066 25.8773 31.2844 26.2159 31.2844 26.6297H31.7844C31.7844 26.4808 31.8939 26.3773 32.025 26.3773V25.8773ZM35.5573 25.8773H32.025V26.3773H35.5573V25.8773ZM31.3947 22.2226L35.3784 26.302L35.7362 25.9526L31.7525 21.8733L31.3947 22.2226ZM30.5902 21.3987L31.3947 22.2226L31.7525 21.8733L30.9479 21.0494L30.5902 21.3987ZM29.5647 20.9108C29.9413 20.9365 30.3067 21.1084 30.5902 21.3987L30.9479 21.0494C30.5838 20.6766 30.1053 20.4466 29.5988 20.412L29.5647 20.9108ZM23.0289 20.4385L29.5637 20.9108L29.5998 20.4121L23.065 19.9398L23.0289 20.4385ZM22.2152 20.7255C22.4149 20.521 22.6941 20.4134 23.0283 20.4385L23.0656 19.9399C22.5952 19.9046 22.1679 20.0583 21.8574 20.3762L22.2152 20.7255ZM22.2039 20.74C22.2091 20.7332 22.2121 20.7294 22.2147 20.7263C22.2172 20.7233 22.2171 20.7235 22.2152 20.7255L21.8574 20.3762C21.8361 20.3981 21.8175 20.4224 21.8099 20.4321L22.2039 20.74ZM22.1563 20.7959C22.1776 20.774 22.1963 20.7497 22.2039 20.7399L21.8099 20.4321C21.8046 20.4389 21.8016 20.4427 21.7991 20.4458C21.7965 20.4488 21.7966 20.4485 21.7986 20.4465L22.1563 20.7959ZM22.1513 20.4206C22.123 20.4097 22.0958 20.3991 22.069 20.3886L21.8858 20.8538C21.914 20.8649 21.9426 20.876 21.9707 20.8869L22.1513 20.4206ZM22.4767 20.5559C22.3671 20.5041 22.2525 20.4598 22.1513 20.4206L21.9707 20.8869C22.0749 20.9272 22.1725 20.9652 22.2631 21.008L22.4767 20.5559ZM24.4455 21.8666C23.8934 21.3431 23.2125 20.8965 22.4749 20.5551L22.2649 21.0088C22.9599 21.3306 23.5938 21.7481 24.1014 22.2294L24.4455 21.8666ZM25.3943 22.1546C25.0754 21.8281 24.6335 21.7166 24.2219 21.8034L24.325 22.2926C24.5807 22.2387 24.8452 22.308 25.0365 22.504L25.3943 22.1546ZM25.3943 23.9709C25.8816 23.4719 25.8816 22.6537 25.3943 22.1546L25.0365 22.504C25.3342 22.8088 25.3342 23.3168 25.0365 23.6216L25.3943 23.9709ZM23.604 23.9709C24.0946 24.4733 24.9037 24.4733 25.3943 23.9709L25.0365 23.6216C24.7422 23.9231 24.2561 23.9231 23.9617 23.6216L23.604 23.9709ZM23.2998 22.6538C23.1558 23.0964 23.2488 23.6198 23.6071 23.974L23.9586 23.6185C23.7478 23.4101 23.6839 23.0894 23.7753 22.8086L23.2998 22.6538ZM21.8644 21.9341C22.4413 22.1955 22.9576 22.5328 23.3672 22.9142L23.7079 22.5482C23.2541 22.1258 22.691 21.7598 22.0708 21.4787L21.8644 21.9341ZM21.5981 21.8171C21.6912 21.8552 21.7753 21.8935 21.8641 21.9339L22.0712 21.4788C21.9833 21.4388 21.8908 21.3967 21.7876 21.3544L21.5981 21.8171ZM22.4035 28.2603L21.9423 21.5686L21.4435 21.603L21.9046 28.2947L22.4035 28.2603ZM22.8824 29.3186C22.5989 29.0283 22.429 28.6519 22.4035 28.2613L21.9046 28.2937C21.938 28.8074 22.1606 29.2951 22.5247 29.6679L22.8824 29.3186ZM30.5947 37.216L22.8824 29.3186L22.5247 29.6679L30.2369 37.5654L30.5947 37.216ZM31.4777 38.1203L30.5947 37.216L30.2369 37.5654L31.12 38.4697L31.4777 38.1203ZM32.2072 38.4775C31.9496 38.4615 31.6846 38.3406 31.4811 38.1239L31.1166 38.4661C31.4037 38.7719 31.7864 38.9524 32.1763 38.9766L32.2072 38.4775ZM32.7782 38.2811C32.64 38.4226 32.4501 38.4936 32.2082 38.4776L32.1753 38.9765C32.5418 39.0007 32.8817 38.8908 33.136 38.6304L32.7782 38.2811ZM36.497 34.473L32.7782 38.2811L33.136 38.6304L36.8547 34.8224L36.497 34.473ZM32.0446 34.8977H36.6759V34.3977H32.0446V34.8977ZM31.304 34.1453C31.304 34.5591 31.6262 34.8977 32.0446 34.8977V34.3977C31.9135 34.3977 31.804 34.2942 31.804 34.1453H31.304ZM32.0446 33.3929C31.6262 33.3929 31.304 33.7315 31.304 34.1453H31.804C31.804 33.9964 31.9135 33.8929 32.0446 33.8929V33.3929ZM19.2399 10.8236C21.4835 10.8236 23.6871 10.2082 25.6102 9.03891L25.3505 8.61168C23.5057 9.73327 21.392 10.3236 19.2399 10.3236V10.8236ZM12.8794 9.03891C14.8023 10.2081 16.996 10.8236 19.2399 10.8236V10.3236C17.0879 10.3236 14.984 9.73338 13.1391 8.61168L12.8794 9.03891ZM13.1035 9.05787L13.1232 9.04782L12.8953 8.60277L12.8757 8.61281L13.1035 9.05787ZM19.2399 13.5489C16.3956 13.5489 13.9314 11.5713 13.2321 8.77469L12.7471 8.89599C13.5 11.9069 16.1577 14.0489 19.2399 14.0489V13.5489ZM25.2574 8.77469C24.5582 11.5709 22.0846 13.5489 19.2399 13.5489V14.0489C22.3216 14.0489 24.9895 11.9073 25.7425 8.89599L25.2574 8.77469ZM25.3664 9.04782L25.386 9.05787L25.6139 8.61281L25.5943 8.60276L25.3664 9.04782ZM29.5621 39.9842H8.9078V40.4842H29.5621V39.9842ZM29.3121 37.9534V40.2342H29.8121V37.9534H29.3121ZM21.8182 30.3813L29.3833 38.128L29.741 37.7787L22.1759 30.032L21.8182 30.3813ZM20.9137 28.3655C20.9669 29.1173 21.2859 29.8362 21.8182 30.3813L22.1759 30.032C21.727 29.5723 21.4573 28.9649 21.4124 28.3302L20.9137 28.3655ZM20.4525 21.6733L20.9136 28.365L21.4124 28.3307L20.9513 21.6389L20.4525 21.6733ZM20.4527 21.2641C20.4417 21.3986 20.4419 21.5323 20.4526 21.6748L20.9512 21.6374C20.9423 21.5187 20.9424 21.4112 20.951 21.3046L20.4527 21.2641ZM18.0857 22.0571C18.1979 21.7987 18.4851 21.5897 18.9516 21.4842C19.4128 21.3799 20.0076 21.3886 20.6485 21.5286L20.7552 21.0401C20.0617 20.8887 19.3907 20.8723 18.8413 20.9966C18.2971 21.1196 17.8289 21.393 17.627 21.858L18.0857 22.0571ZM20.1334 24.8421C19.3775 24.4357 18.7742 23.9003 18.4087 23.3747C18.0349 22.8371 17.9471 22.3701 18.085 22.0588L17.6278 21.8563C17.383 22.4091 17.5896 23.0725 17.9982 23.6602C18.4153 24.26 19.0826 24.8448 19.8967 25.2825L20.1334 24.8421ZM20.4421 25.8624C20.6319 25.5035 20.5035 25.0391 20.1325 24.8416L19.8975 25.2829C20.0172 25.3466 20.0654 25.5052 20.0001 25.6286L20.4421 25.8624ZM19.7894 26.2668C20.0629 26.2668 20.3135 26.111 20.4432 25.8603L19.999 25.6307C19.952 25.7216 19.869 25.7668 19.7894 25.7668V26.2668ZM19.4374 26.1723C19.5463 26.236 19.6687 26.2668 19.7894 26.2668V25.7668C19.753 25.7668 19.7184 25.7574 19.6899 25.7407L19.4374 26.1723ZM16.734 21.4564C16.3892 22.2538 16.5366 23.1531 17.0254 23.9811C17.5142 24.8091 18.3537 25.5868 19.4448 26.1764L19.6825 25.7366C18.6542 25.1808 17.8895 24.4614 17.456 23.7269C17.0224 22.9925 16.9295 22.2641 17.1929 21.6549L16.734 21.4564ZM21.053 20.0763C20.0935 19.8528 19.1726 19.8541 18.4119 20.0801C17.6493 20.3067 17.0355 20.7646 16.7343 21.4558L17.1927 21.6555C17.4213 21.1309 17.8967 20.7548 18.5543 20.5594C19.214 20.3634 20.0444 20.3547 20.9395 20.5633L21.053 20.0763ZM21.1706 19.6729C21.0168 19.8304 20.8867 20.0085 20.7795 20.1953L21.213 20.4443C21.302 20.2894 21.4074 20.146 21.5283 20.0222L21.1706 19.6729ZM23.1339 18.9451C22.3777 18.8898 21.6751 19.145 21.1687 19.6748L21.5302 20.0203C21.9265 19.6056 22.4799 19.3986 23.0974 19.4438L23.1339 18.9451ZM29.6685 19.4173L23.1336 18.9451L23.0976 19.4438L29.6324 19.916L29.6685 19.4173ZM31.6445 20.3461C31.1121 19.8009 30.4078 19.4722 29.6689 19.4174L29.6319 19.916C30.2471 19.9617 30.838 20.2358 31.2868 20.6954L31.6445 20.3461ZM32.3118 21.0293L31.6445 20.3461L31.2868 20.6954L31.954 21.3786L32.3118 21.0293ZM34.7429 20.954H32.1329V21.454H34.7429V20.954ZM37.3439 13.4012L34.5082 21.1177L34.9776 21.2902L37.8132 13.5736L37.3439 13.4012ZM26.3226 9.4203L37.4887 13.7207L37.6684 13.2541L26.5023 8.95371L26.3226 9.4203ZM19.2399 15.0536C22.7328 15.0536 25.763 12.6421 26.6543 9.25055L26.1707 9.12346C25.3351 12.3031 22.4977 14.5536 19.2399 14.5536V15.0536ZM11.8257 9.25122C12.7268 12.6417 15.7465 15.0536 19.2399 15.0536V14.5536C15.9826 14.5536 13.1543 12.3035 12.3089 9.12279L11.8257 9.25122ZM0.991025 13.7207L12.1571 9.4203L11.9774 8.95371L0.811327 13.2541L0.991025 13.7207ZM3.97151 21.1177L1.13583 13.4012L0.666519 13.5736L3.5022 21.2902L3.97151 21.1177ZM8.4172 20.954H3.73686V21.454H8.4172V20.954ZM9.1578 21.7064C9.1578 21.2926 8.83556 20.954 8.4172 20.954V21.454C8.5483 21.454 8.6578 21.5575 8.6578 21.7064H9.1578ZM9.1578 40.2342V21.7064H8.6578V40.2342H9.1578ZM47.5091 29.635H35.7445V30.135H47.5091V29.635ZM48.2497 30.3874C48.2497 29.9703 47.9145 29.635 47.5091 29.635V30.135C47.6337 30.135 47.7497 30.2418 47.7497 30.3874H48.2497ZM47.5091 31.1398C47.9275 31.1398 48.2497 30.8012 48.2497 30.3874H47.7497C47.7497 30.5363 47.6402 30.6398 47.5091 30.6398V31.1398ZM35.7445 31.1398H47.5091V30.6398H35.7445V31.1398ZM35.0039 30.3874C35.0039 30.8012 35.3261 31.1398 35.7445 31.1398V30.6398C35.6134 30.6398 35.5039 30.5363 35.5039 30.3874H35.0039ZM35.7445 29.635C35.3261 29.635 35.0039 29.9736 35.0039 30.3874H35.5039C35.5039 30.2385 35.6134 30.135 35.7445 30.135V29.635Z" fill="white"/>
</g>
<defs>
<clipPath id="clip0_121_7462">
<rect width="48" height="48" fill="white"/>
</clipPath>
</defs>
</svg>
