<svg width="48" height="48" viewBox="0 0 48 48" fill="none" xmlns="http://www.w3.org/2000/svg">
<path fill-rule="evenodd" clip-rule="evenodd" d="M38.8316 20.0984C38.4291 20.0984 38.0641 19.8898 37.8675 19.539L34.0953 12.9309C33.4775 11.9923 33.1499 10.8925 33.1499 9.75483C33.1499 6.57877 35.6959 4 38.8316 4C41.9673 4 44.5134 6.58825 44.5134 9.75483C44.5134 10.8925 44.1857 11.9828 43.568 12.9309L39.7957 19.539C39.5898 19.8898 39.2341 20.0984 38.8316 20.0984ZM43.5773 9.75483C43.5773 7.10022 41.4432 4.94808 38.8316 4.94808C36.2107 4.94808 34.0859 7.10022 34.0859 9.74535C34.0859 10.6934 34.3574 11.6225 34.8816 12.4095C34.8862 12.4142 34.8886 12.4189 34.8909 12.4237L34.8938 12.4292C34.8954 12.4321 34.8974 12.435 34.9003 12.4379L38.6912 19.0744C38.738 19.1503 38.8036 19.1598 38.841 19.1598C38.8784 19.1598 38.944 19.1503 38.9908 19.0744L42.763 12.4474C42.7677 12.4426 42.77 12.4379 42.7723 12.4332C42.7747 12.4284 42.777 12.4237 42.7817 12.4189C43.3059 11.632 43.5773 10.7124 43.5773 9.75483ZM40.8255 34.8364H32.0362C30.5198 34.8364 29.2936 33.585 29.2936 32.0586C29.2936 30.5322 30.5291 29.2807 32.0362 29.2807H35.2093L37.6243 29.2902H41.3123C43.3435 29.2902 44.9909 27.6216 44.9909 25.5642C44.9909 23.5069 43.3435 21.8383 41.3123 21.8383H9.76789C8.25151 21.8383 7.02531 20.5868 7.02531 19.0604C7.02531 17.534 8.26087 16.2826 9.76789 16.2826H33.6181C33.8801 16.2826 34.0861 16.074 34.0861 15.8085C34.0861 15.543 33.8801 15.3345 33.6181 15.3345H9.77725C7.74605 15.3345 6.09863 17.0031 6.09863 19.0604C6.09863 21.1177 7.74605 22.7864 9.77725 22.7864H41.3216C42.838 22.7864 44.0642 24.0378 44.0642 25.5642C44.0642 27.0906 42.8286 28.3421 41.3216 28.3421H37.6336L35.2187 28.3326H32.0455C30.0143 28.3326 28.3669 30.0012 28.3669 32.0586C28.3669 34.1159 30.0143 35.7845 32.0455 35.7845H40.8349C42.3513 35.7845 43.5775 37.036 43.5775 38.5624C43.5775 40.0888 42.3419 41.3403 40.8349 41.3403H24.0518C23.7897 41.3403 23.5838 41.5488 23.5838 41.8143C23.5838 42.0798 23.7897 42.2883 24.0518 42.2883H40.8255C42.8567 42.2883 44.5041 40.6197 44.5041 38.5624C44.5041 36.5051 42.8567 34.8364 40.8255 34.8364ZM24.4539 33.6704L26.2792 28.7404C26.326 28.6266 26.3166 28.4939 26.2698 28.3801C26.223 28.2663 26.1201 28.181 26.0077 28.1336L18.5195 25.2799C18.3791 25.2325 18.2293 25.242 18.1076 25.3178C17.0967 25.953 15.9266 26.2943 14.7285 26.2943C13.5304 26.2943 12.3603 25.9625 11.3494 25.3178C11.2277 25.242 11.078 25.223 10.9376 25.2799L3.46802 28.1241C3.35569 28.1715 3.26209 28.2569 3.20593 28.3706C3.15913 28.4844 3.14977 28.6171 3.19657 28.7309L5.02184 33.6609C5.08736 33.8411 5.2652 33.9643 5.46177 33.9643H7.9329V35.083H3.46802C3.20593 35.083 3 35.2916 3 35.5571C3 35.8225 3.20593 36.0311 3.46802 36.0311H13.3713C13.6334 36.0311 13.8393 35.8225 13.8393 35.5571C13.8393 35.2916 13.6334 35.083 13.3713 35.083H8.86894V33.4903C8.86894 33.2248 8.66301 33.0162 8.40092 33.0162H5.78002L4.22621 28.8352L10.4134 26.484C11.0031 28.3612 12.7441 29.679 14.7379 29.679C16.7316 29.679 18.4633 28.3612 19.0624 26.484L25.2495 28.8352L23.6957 33.0162H21.0748C20.8127 33.0162 20.6068 33.2248 20.6068 33.4903V41.2266V44.0519H8.86894V41.8428H13.3713C13.6334 41.8428 13.8393 41.6343 13.8393 41.3688C13.8393 41.1033 13.6334 40.8948 13.3713 40.8948H3.46802C3.20593 40.8948 3 41.1033 3 41.3688C3 41.6343 3.20593 41.8428 3.46802 41.8428H7.9329V44.5259C7.9329 44.7914 8.13883 44.9999 8.40092 44.9999H21.0748C21.3369 44.9999 21.5428 44.7914 21.5428 44.5259V41.2361V33.9738H24.014C24.2105 33.9738 24.3884 33.8505 24.4539 33.6704ZM14.7379 28.7404C13.2309 28.7404 11.9111 27.7923 11.3869 26.4176C12.4165 26.958 13.5678 27.2424 14.7379 27.2424C15.9079 27.2424 17.0592 26.958 18.0889 26.4176C17.5647 27.7923 16.2449 28.7404 14.7379 28.7404ZM38.8313 11.5705C40.3664 11.5705 41.6113 10.3096 41.6113 8.75476C41.6113 7.19991 40.3664 5.93896 38.8313 5.93896C37.2962 5.93896 36.0513 7.19991 36.0513 8.75476C36.0513 10.3001 37.2962 11.5705 38.8313 11.5705ZM38.8313 6.87756C39.8516 6.87756 40.6753 7.71187 40.6753 8.74528C40.6753 9.77868 39.8516 10.613 38.8313 10.613C37.811 10.613 36.9873 9.77868 36.9873 8.74528C36.9873 7.71187 37.811 6.87756 38.8313 6.87756ZM16.7132 38.4677C16.7132 38.7332 16.5073 38.9417 16.2452 38.9417H6.35132C6.08923 38.9417 5.8833 38.7332 5.8833 38.4677C5.8833 38.2022 6.08923 37.9937 6.35132 37.9937H16.2452C16.5073 37.9937 16.7132 38.2022 16.7132 38.4677Z" fill="white"/>
<path d="M37.8675 19.539L38.0856 19.4168L38.0846 19.4151L37.8675 19.539ZM34.0953 12.9309L34.3124 12.807L34.3085 12.8001L34.3041 12.7934L34.0953 12.9309ZM43.568 12.9309L43.3585 12.7944L43.3545 12.8006L43.3508 12.807L43.568 12.9309ZM39.7957 19.539L40.0114 19.6656L40.0129 19.6629L39.7957 19.539ZM34.8816 12.4095L34.6735 12.5481L34.6868 12.568L34.7037 12.5851L34.8816 12.4095ZM34.8909 12.4237L34.6667 12.5344L34.6689 12.5387L34.8909 12.4237ZM34.8938 12.4292L34.6716 12.5442L34.6762 12.5524L34.8938 12.4292ZM34.9003 12.4379L35.1174 12.3139L35.1012 12.2855L35.0782 12.2623L34.9003 12.4379ZM38.6912 19.0744L38.474 19.1985L38.4785 19.2057L38.6912 19.0744ZM38.9908 19.0744L39.2036 19.2058L39.208 19.1981L38.9908 19.0744ZM42.763 12.4474L42.5851 12.2717L42.562 12.2951L42.5457 12.3237L42.763 12.4474ZM42.7723 12.4332L42.5481 12.3225L42.5481 12.3226L42.7723 12.4332ZM42.7817 12.4189L42.9596 12.5946L42.9765 12.5775L42.9898 12.5575L42.7817 12.4189ZM35.2093 29.2807L35.2103 29.0307H35.2093V29.2807ZM37.6243 29.2902L37.6233 29.5402H37.6243V29.2902ZM37.6336 28.3421L37.6327 28.5921H37.6336V28.3421ZM35.2187 28.3326L35.2197 28.0826H35.2187V28.3326ZM26.2792 28.7404L26.0478 28.6452L26.0447 28.6536L26.2792 28.7404ZM24.4539 33.6704L24.2195 33.5836L24.219 33.5849L24.4539 33.6704ZM26.0077 28.1336L26.105 27.9031L26.0968 27.9L26.0077 28.1336ZM18.5195 25.2799L18.6086 25.0461L18.5994 25.043L18.5195 25.2799ZM18.1076 25.3178L17.9754 25.1057L17.9746 25.1061L18.1076 25.3178ZM11.3494 25.3178L11.4839 25.107L11.4817 25.1057L11.3494 25.3178ZM10.9376 25.2799L11.0266 25.5136L11.0315 25.5116L10.9376 25.2799ZM3.46802 28.1241L3.379 27.8904L3.37081 27.8938L3.46802 28.1241ZM3.20593 28.3706L2.98175 28.26L2.97797 28.2676L2.97473 28.2755L3.20593 28.3706ZM3.19657 28.7309L3.43116 28.6441L3.42777 28.6358L3.19657 28.7309ZM5.02184 33.6609L5.25678 33.5755L5.25628 33.5741L5.02184 33.6609ZM7.9329 33.9643H8.1829V33.7143H7.9329V33.9643ZM7.9329 35.083V35.333H8.1829V35.083H7.9329ZM8.86894 35.083H8.61894V35.333H8.86894V35.083ZM5.78002 33.0162L5.54568 33.1033L5.60623 33.2662H5.78002V33.0162ZM4.22621 28.8352L4.1374 28.6015L3.90541 28.6897L3.99187 28.9223L4.22621 28.8352ZM10.4134 26.484L10.6519 26.409L10.5724 26.1561L10.3246 26.2503L10.4134 26.484ZM19.0624 26.484L19.1512 26.2503L18.9044 26.1565L18.8242 26.408L19.0624 26.484ZM25.2495 28.8352L25.4839 28.9223L25.5703 28.6897L25.3384 28.6015L25.2495 28.8352ZM23.6957 33.0162V33.2662H23.8695L23.9301 33.1033L23.6957 33.0162ZM20.6068 44.0519V44.3019H20.8568V44.0519H20.6068ZM8.86894 44.0519H8.61894V44.3019H8.86894V44.0519ZM8.86894 41.8428V41.5928H8.61894V41.8428H8.86894ZM7.9329 41.8428H8.1829V41.5928H7.9329V41.8428ZM21.5428 33.9738V33.7238H21.2928V33.9738H21.5428ZM11.3869 26.4176L11.5031 26.1962L10.9178 25.8891L11.1533 26.5067L11.3869 26.4176ZM18.0889 26.4176L18.3225 26.5067L18.558 25.8891L17.9727 26.1962L18.0889 26.4176ZM37.6494 19.6612C37.8914 20.093 38.341 20.3484 38.8316 20.3484V19.8484C38.5172 19.8484 38.2368 19.6866 38.0856 19.4168L37.6494 19.6612ZM33.8782 13.0548L37.6504 19.6629L38.0846 19.4151L34.3124 12.807L33.8782 13.0548ZM32.8999 9.75483C32.8999 10.9408 33.2415 12.0884 33.8865 13.0683L34.3041 12.7934C33.7135 11.8962 33.3999 10.8443 33.3999 9.75483H32.8999ZM38.8316 3.75C35.5548 3.75 32.8999 6.44372 32.8999 9.75483H33.3999C33.3999 6.71382 35.837 4.25 38.8316 4.25V3.75ZM44.7634 9.75483C44.7634 6.45347 42.1087 3.75 38.8316 3.75V4.25C41.826 4.25 44.2634 6.72303 44.2634 9.75483H44.7634ZM43.7774 13.0674C44.4214 12.0791 44.7634 10.9414 44.7634 9.75483H44.2634C44.2634 10.8436 43.9501 11.8866 43.3585 12.7944L43.7774 13.0674ZM40.0129 19.6629L43.7851 13.0548L43.3508 12.807L39.5786 19.4151L40.0129 19.6629ZM38.8316 20.3484C39.3255 20.3484 39.7619 20.0905 40.0113 19.6656L39.5802 19.4124C39.4177 19.6891 39.1428 19.8484 38.8316 19.8484V20.3484ZM38.8316 5.19808C41.3024 5.19808 43.3273 7.23559 43.3273 9.75483H43.8273C43.8273 6.96484 41.5839 4.69808 38.8316 4.69808V5.19808ZM34.3359 9.74535C34.3359 7.23559 36.3515 5.19808 38.8316 5.19808V4.69808C36.07 4.69808 33.8359 6.96484 33.8359 9.74535H34.3359ZM35.0896 12.2709C34.5938 11.5265 34.3359 10.6459 34.3359 9.74535H33.8359C33.8359 10.741 34.121 11.7186 34.6735 12.5481L35.0896 12.2709ZM35.1151 12.313C35.1128 12.3083 35.0954 12.2702 35.0595 12.2338L34.7037 12.5851C34.6771 12.5582 34.6644 12.5296 34.6668 12.5343L35.1151 12.313ZM35.1158 12.3142L35.1129 12.3087L34.6689 12.5387L34.6718 12.5441L35.1158 12.3142ZM35.0782 12.2623C35.0944 12.2787 35.105 12.2948 35.1113 12.3059L34.6762 12.5524C34.6859 12.5693 34.7004 12.5913 34.7224 12.6135L35.0782 12.2623ZM38.9083 18.9504L35.1174 12.3139L34.6832 12.5619L38.4741 19.1984L38.9083 18.9504ZM38.841 18.9098C38.8428 18.9098 38.8547 18.9099 38.8704 18.9168C38.8785 18.9203 38.8863 18.9252 38.893 18.931C38.8997 18.9368 38.903 18.9416 38.904 18.9432L38.4785 19.2057C38.5881 19.3833 38.7558 19.4098 38.841 19.4098V18.9098ZM38.778 18.9432C38.779 18.9416 38.7823 18.9368 38.789 18.931C38.7956 18.9252 38.8034 18.9203 38.8116 18.9168C38.8273 18.9099 38.8392 18.9098 38.841 18.9098V19.4098C38.9262 19.4098 39.0939 19.3833 39.2035 19.2057L38.778 18.9432ZM42.5457 12.3237L38.7735 18.9508L39.208 19.1981L42.9802 12.571L42.5457 12.3237ZM42.5481 12.3226C42.5458 12.3272 42.5585 12.2986 42.5851 12.2717L42.9409 12.623C42.9768 12.5867 42.9941 12.5486 42.9965 12.5437L42.5481 12.3226ZM42.6038 12.2433C42.5679 12.2797 42.5505 12.3177 42.5481 12.3225L42.9965 12.5438C42.9988 12.5391 42.9861 12.5677 42.9596 12.5946L42.6038 12.2433ZM43.3273 9.75483C43.3273 10.6646 43.0696 11.5358 42.5736 12.2803L42.9898 12.5575C43.5421 11.7283 43.8273 10.7602 43.8273 9.75483H43.3273ZM32.0362 35.0864H40.8255V34.5864H32.0362V35.0864ZM29.0436 32.0586C29.0436 33.7195 30.3782 35.0864 32.0362 35.0864V34.5864C30.6614 34.5864 29.5436 33.4505 29.5436 32.0586H29.0436ZM32.0362 29.0307C30.3881 29.0307 29.0436 30.3971 29.0436 32.0586H29.5436C29.5436 30.6672 30.6702 29.5307 32.0362 29.5307V29.0307ZM35.2093 29.0307H32.0362V29.5307H35.2093V29.0307ZM37.6253 29.0402L35.2103 29.0307L35.2083 29.5307L37.6233 29.5402L37.6253 29.0402ZM41.3123 29.0402H37.6243V29.5402H41.3123V29.0402ZM44.7409 25.5642C44.7409 27.4865 43.2024 29.0402 41.3123 29.0402V29.5402C43.4845 29.5402 45.2409 27.7566 45.2409 25.5642H44.7409ZM41.3123 22.0883C43.2024 22.0883 44.7409 23.642 44.7409 25.5642H45.2409C45.2409 23.3719 43.4845 21.5883 41.3123 21.5883V22.0883ZM9.76789 22.0883H41.3123V21.5883H9.76789V22.0883ZM6.77531 19.0604C6.77531 20.7213 8.10989 22.0883 9.76789 22.0883V21.5883C8.39314 21.5883 7.27531 20.4523 7.27531 19.0604H6.77531ZM9.76789 16.0326C8.1198 16.0326 6.77531 17.399 6.77531 19.0604H7.27531C7.27531 17.6691 8.40195 16.5326 9.76789 16.5326V16.0326ZM33.6181 16.0326H9.76789V16.5326H33.6181V16.0326ZM33.8361 15.8085C33.8361 15.9389 33.7391 16.0326 33.6181 16.0326V16.5326C34.0212 16.5326 34.3361 16.209 34.3361 15.8085H33.8361ZM33.6181 15.5845C33.7391 15.5845 33.8361 15.6781 33.8361 15.8085H34.3361C34.3361 15.408 34.0212 15.0845 33.6181 15.0845V15.5845ZM9.77725 15.5845H33.6181V15.0845H9.77725V15.5845ZM6.34863 19.0604C6.34863 17.1381 7.88713 15.5845 9.77725 15.5845V15.0845C7.60498 15.0845 5.84863 16.868 5.84863 19.0604H6.34863ZM9.77725 22.5364C7.88713 22.5364 6.34863 20.9827 6.34863 19.0604H5.84863C5.84863 21.2528 7.60498 23.0364 9.77725 23.0364V22.5364ZM41.3216 22.5364H9.77725V23.0364H41.3216V22.5364ZM44.3142 25.5642C44.3142 23.9033 42.9796 22.5364 41.3216 22.5364V23.0364C42.6964 23.0364 43.8142 24.1723 43.8142 25.5642H44.3142ZM41.3216 28.5921C42.9697 28.5921 44.3142 27.2257 44.3142 25.5642H43.8142C43.8142 26.9556 42.6876 28.0921 41.3216 28.0921V28.5921ZM37.6336 28.5921H41.3216V28.0921H37.6336V28.5921ZM35.2177 28.5826L37.6327 28.5921L37.6346 28.0921L35.2197 28.0826L35.2177 28.5826ZM32.0455 28.5826H35.2187V28.0826H32.0455V28.5826ZM28.6169 32.0586C28.6169 30.1363 30.1554 28.5826 32.0455 28.5826V28.0826C29.8732 28.0826 28.1169 29.8662 28.1169 32.0586H28.6169ZM32.0455 35.5345C30.1554 35.5345 28.6169 33.9809 28.6169 32.0586H28.1169C28.1169 34.2509 29.8732 36.0345 32.0455 36.0345V35.5345ZM40.8349 35.5345H32.0455V36.0345H40.8349V35.5345ZM43.8275 38.5624C43.8275 36.9015 42.4929 35.5345 40.8349 35.5345V36.0345C42.2096 36.0345 43.3275 37.1705 43.3275 38.5624H43.8275ZM40.8349 41.5903C42.483 41.5903 43.8275 40.2238 43.8275 38.5624H43.3275C43.3275 39.9537 42.2008 41.0903 40.8349 41.0903V41.5903ZM24.0518 41.5903H40.8349V41.0903H24.0518V41.5903ZM23.8338 41.8143C23.8338 41.6839 23.9308 41.5903 24.0518 41.5903V41.0903C23.6486 41.0903 23.3338 41.4138 23.3338 41.8143H23.8338ZM24.0518 42.0383C23.9308 42.0383 23.8338 41.9447 23.8338 41.8143H23.3338C23.3338 42.2148 23.6486 42.5383 24.0518 42.5383V42.0383ZM40.8255 42.0383H24.0518V42.5383H40.8255V42.0383ZM44.2541 38.5624C44.2541 40.4847 42.7156 42.0383 40.8255 42.0383V42.5383C42.9978 42.5383 44.7541 40.7548 44.7541 38.5624H44.2541ZM40.8255 35.0864C42.7156 35.0864 44.2541 36.6401 44.2541 38.5624H44.7541C44.7541 36.37 42.9978 34.5864 40.8255 34.5864V35.0864ZM26.0447 28.6536L24.2195 33.5836L24.6884 33.7572L26.5136 28.8272L26.0447 28.6536ZM26.0386 28.4752C26.0658 28.5413 26.0648 28.6045 26.048 28.6453L26.5104 28.8355C26.5872 28.6487 26.5675 28.4465 26.501 28.285L26.0386 28.4752ZM25.9105 28.3639C25.9805 28.3935 26.0236 28.4387 26.0386 28.4752L26.501 28.285C26.4224 28.094 26.2596 27.9686 26.1049 27.9033L25.9105 28.3639ZM18.4304 25.5135L25.9187 28.3672L26.0968 27.9L18.6085 25.0463L18.4304 25.5135ZM18.2398 25.53C18.2885 25.4997 18.3585 25.4894 18.4395 25.5168L18.5994 25.043C18.3996 24.9756 18.1701 24.9843 17.9754 25.1057L18.2398 25.53ZM14.7285 26.5443C15.9742 26.5443 17.1903 26.1895 18.2406 25.5295L17.9746 25.1061C17.0031 25.7166 15.8791 26.0443 14.7285 26.0443V26.5443ZM11.215 25.5286C12.2672 26.1996 13.4841 26.5443 14.7285 26.5443V26.0443C13.5767 26.0443 12.4535 25.7254 11.4839 25.107L11.215 25.5286ZM11.0315 25.5116C11.0927 25.4868 11.1587 25.4935 11.2172 25.53L11.4817 25.1057C11.2968 24.9904 11.0633 24.9592 10.8437 25.0482L11.0315 25.5116ZM3.55698 28.3578L11.0265 25.5135L10.8486 25.0463L3.37905 27.8905L3.55698 28.3578ZM3.4301 28.4813C3.45889 28.423 3.50654 28.3792 3.56522 28.3545L3.37081 27.8938C3.20485 27.9639 3.06529 28.0908 2.98175 28.26L3.4301 28.4813ZM3.42777 28.6358C3.41099 28.595 3.40995 28.5318 3.43713 28.4657L2.97473 28.2755C2.9083 28.437 2.88854 28.6393 2.96537 28.826L3.42777 28.6358ZM5.25628 33.5741L3.43101 28.6441L2.96212 28.8177L4.78739 33.7477L5.25628 33.5741ZM5.46177 33.7143C5.36763 33.7143 5.28545 33.6543 5.25678 33.5755L4.78689 33.7464C4.88926 34.0278 5.16278 34.2143 5.46177 34.2143V33.7143ZM7.9329 33.7143H5.46177V34.2143H7.9329V33.7143ZM8.1829 35.083V33.9643H7.6829V35.083H8.1829ZM3.46802 35.333H7.9329V34.833H3.46802V35.333ZM3.25 35.5571C3.25 35.4267 3.347 35.333 3.46802 35.333V34.833C3.06485 34.833 2.75 35.1566 2.75 35.5571H3.25ZM3.46802 35.7811C3.347 35.7811 3.25 35.6875 3.25 35.5571H2.75C2.75 35.9576 3.06485 36.2811 3.46802 36.2811V35.7811ZM13.3713 35.7811H3.46802V36.2811H13.3713V35.7811ZM13.5893 35.5571C13.5893 35.6875 13.4923 35.7811 13.3713 35.7811V36.2811C13.7744 36.2811 14.0893 35.9576 14.0893 35.5571H13.5893ZM13.3713 35.333C13.4923 35.333 13.5893 35.4267 13.5893 35.5571H14.0893C14.0893 35.1566 13.7744 34.833 13.3713 34.833V35.333ZM8.86894 35.333H13.3713V34.833H8.86894V35.333ZM8.61894 33.4903V35.083H9.11894V33.4903H8.61894ZM8.40092 33.2662C8.52194 33.2662 8.61894 33.3598 8.61894 33.4903H9.11894C9.11894 33.0898 8.80409 32.7662 8.40092 32.7662V33.2662ZM5.78002 33.2662H8.40092V32.7662H5.78002V33.2662ZM3.99187 28.9223L5.54568 33.1033L6.01436 32.9291L4.46055 28.7481L3.99187 28.9223ZM10.3246 26.2503L4.1374 28.6015L4.31501 29.0689L10.5022 26.7177L10.3246 26.2503ZM14.7379 29.429C12.856 29.429 11.2097 28.1846 10.6519 26.409L10.1749 26.5589C10.7965 28.5377 12.6323 29.929 14.7379 29.929V29.429ZM18.8242 26.408C18.257 28.1853 16.619 29.429 14.7379 29.429V29.929C16.8443 29.929 18.6696 28.5371 19.3005 26.56L18.8242 26.408ZM25.3384 28.6015L19.1512 26.2503L18.9735 26.7177L25.1607 29.0689L25.3384 28.6015ZM23.9301 33.1033L25.4839 28.9223L25.0152 28.7481L23.4614 32.9291L23.9301 33.1033ZM21.0748 33.2662H23.6957V32.7662H21.0748V33.2662ZM20.8568 33.4903C20.8568 33.3598 20.9538 33.2662 21.0748 33.2662V32.7662C20.6717 32.7662 20.3568 33.0898 20.3568 33.4903H20.8568ZM20.8568 41.2266V33.4903H20.3568V41.2266H20.8568ZM20.8568 44.0519V41.2266H20.3568V44.0519H20.8568ZM8.86894 44.3019H20.6068V43.8019H8.86894V44.3019ZM8.61894 41.8428V44.0519H9.11894V41.8428H8.61894ZM13.3713 41.5928H8.86894V42.0928H13.3713V41.5928ZM13.5893 41.3688C13.5893 41.4992 13.4923 41.5928 13.3713 41.5928V42.0928C13.7744 42.0928 14.0893 41.7693 14.0893 41.3688H13.5893ZM13.3713 41.1448C13.4923 41.1448 13.5893 41.2384 13.5893 41.3688H14.0893C14.0893 40.9683 13.7744 40.6448 13.3713 40.6448V41.1448ZM3.46802 41.1448H13.3713V40.6448H3.46802V41.1448ZM3.25 41.3688C3.25 41.2384 3.347 41.1448 3.46802 41.1448V40.6448C3.06485 40.6448 2.75 40.9683 2.75 41.3688H3.25ZM3.46802 41.5928C3.347 41.5928 3.25 41.4992 3.25 41.3688H2.75C2.75 41.7693 3.06485 42.0928 3.46802 42.0928V41.5928ZM7.9329 41.5928H3.46802V42.0928H7.9329V41.5928ZM8.1829 44.5259V41.8428H7.6829V44.5259H8.1829ZM8.40092 44.7499C8.27991 44.7499 8.1829 44.6563 8.1829 44.5259H7.6829C7.6829 44.9264 7.99776 45.2499 8.40092 45.2499V44.7499ZM21.0748 44.7499H8.40092V45.2499H21.0748V44.7499ZM21.2928 44.5259C21.2928 44.6563 21.1958 44.7499 21.0748 44.7499V45.2499C21.478 45.2499 21.7928 44.9264 21.7928 44.5259H21.2928ZM21.2928 41.2361V44.5259H21.7928V41.2361H21.2928ZM21.2928 33.9738V41.2361H21.7928V33.9738H21.2928ZM24.014 33.7238H21.5428V34.2238H24.014V33.7238ZM24.219 33.5849C24.1903 33.6638 24.1081 33.7238 24.014 33.7238V34.2238C24.313 34.2238 24.5865 34.0373 24.6889 33.7559L24.219 33.5849ZM11.1533 26.5067C11.7133 27.9754 13.1241 28.9904 14.7379 28.9904V28.4904C13.3376 28.4904 12.1088 27.6093 11.6205 26.3285L11.1533 26.5067ZM14.7379 26.9924C13.6083 26.9924 12.4968 26.7178 11.5031 26.1962L11.2707 26.639C12.3362 27.1982 13.5274 27.4924 14.7379 27.4924V26.9924ZM17.9727 26.1962C16.9789 26.7178 15.8675 26.9924 14.7379 26.9924V27.4924C15.9484 27.4924 17.1396 27.1982 18.2051 26.639L17.9727 26.1962ZM14.7379 28.9904C16.3517 28.9904 17.7625 27.9754 18.3225 26.5067L17.8553 26.3285C17.3669 27.6093 16.1381 28.4904 14.7379 28.4904V28.9904ZM41.3613 8.75476C41.3613 10.1746 40.2253 11.3205 38.8313 11.3205V11.8205C40.5075 11.8205 41.8613 10.4447 41.8613 8.75476H41.3613ZM38.8313 6.18896C40.2253 6.18896 41.3613 7.33496 41.3613 8.75476H41.8613C41.8613 7.06486 40.5075 5.68896 38.8313 5.68896V6.18896ZM36.3013 8.75476C36.3013 7.33496 37.4373 6.18896 38.8313 6.18896V5.68896C37.1551 5.68896 35.8013 7.06486 35.8013 8.75476H36.3013ZM38.8313 11.3205C37.4378 11.3205 36.3013 10.1656 36.3013 8.75476H35.8013C35.8013 10.4346 37.1546 11.8205 38.8313 11.8205V11.3205ZM40.9253 8.74528C40.9253 7.57682 39.9926 6.62756 38.8313 6.62756V7.12756C39.7105 7.12756 40.4253 7.84692 40.4253 8.74528H40.9253ZM38.8313 10.863C39.9926 10.863 40.9253 9.91373 40.9253 8.74528H40.4253C40.4253 9.64363 39.7105 10.363 38.8313 10.363V10.863ZM36.7373 8.74528C36.7373 9.91373 37.6699 10.863 38.8313 10.863V10.363C37.9521 10.363 37.2373 9.64363 37.2373 8.74528H36.7373ZM38.8313 6.62756C37.6699 6.62756 36.7373 7.57682 36.7373 8.74528H37.2373C37.2373 7.84692 37.9521 7.12756 38.8313 7.12756V6.62756ZM16.2452 39.1917C16.6484 39.1917 16.9632 38.8682 16.9632 38.4677H16.4632C16.4632 38.5981 16.3662 38.6917 16.2452 38.6917V39.1917ZM6.35132 39.1917H16.2452V38.6917H6.35132V39.1917ZM5.6333 38.4677C5.6333 38.8682 5.94815 39.1917 6.35132 39.1917V38.6917C6.2303 38.6917 6.1333 38.5981 6.1333 38.4677H5.6333ZM6.35132 37.7437C5.94815 37.7437 5.6333 38.0672 5.6333 38.4677H6.1333C6.1333 38.3373 6.2303 38.2437 6.35132 38.2437V37.7437ZM16.2452 37.7437H6.35132V38.2437H16.2452V37.7437ZM16.9632 38.4677C16.9632 38.0672 16.6484 37.7437 16.2452 37.7437V38.2437C16.3662 38.2437 16.4632 38.3373 16.4632 38.4677H16.9632Z" fill="white"/>
</svg>
